<svg version="1.1" xmlns="http://www.w3.org/2000/svg" viewBox="0 0 68.66855504620617 25.447774242051565" width="137.33711009241233" height="50.89554848410313">
  <rect x="0" y="0" width="68.66855504620617" height="25.447774242051565" fill="#ffffff"></rect><g stroke-linecap="round"><g transform="translate(57.60571285703952 12.67000059535431) rotate(0 -23.271435333936438 0.05388652567148711)"><path d="M-0.75 -0.25 C-4.12 -0.45, -13.72 -1.4, -21.42 -0.89 C-29.11 -0.39, -42.84 2.42, -46.92 2.78 M1.06 -1.42 C-2.29 -1.99, -13.81 -2.98, -21.92 -2.58 C-30.03 -2.18, -43.15 0.19, -47.61 0.97" stroke="#000000" stroke-width="2" fill="none"></path></g><g transform="translate(57.60571285703952 12.67000059535431) rotate(0 -23.271435333936438 0.05388652567148711)"><path d="M-37 -4.37 C-38.03 -3.92, -40.04 -1.58, -48.14 -0.04 M-36.45 -4.78 C-39.65 -3.53, -43.66 -2.03, -47.4 1.59" stroke="#000000" stroke-width="2" fill="none"></path></g><g transform="translate(57.60571285703952 12.67000059535431) rotate(0 -23.271435333936438 0.05388652567148711)"><path d="M-35.54 4.07 C-36.89 2.81, -39.19 3.45, -48.14 -0.04 M-34.99 3.66 C-38.66 2.42, -43.1 1.42, -47.4 1.59" stroke="#000000" stroke-width="2" fill="none"></path></g></g>
</svg>