<svg version="1.1" xmlns="http://www.w3.org/2000/svg" viewBox="0 0 66.2420216353404 26.94365414651503" width="132.4840432706808" height="53.88730829303006">
  <rect x="0" y="0" width="66.2420216353404" height="26.94365414651503" fill="transparent"></rect><g stroke-linecap="round"><g transform="translate(56.05169445404579 13.65433930134435) rotate(0 -22.93068363637559 -0.18251222808683565)"><path d="M0.19 0.08 C-3.72 -0.07, -15.12 -1.83, -22.8 -1.53 C-30.48 -1.23, -41.95 1.24, -45.9 1.9 M-1.17 -0.92 C-5.35 -1.4, -16.54 -4.24, -24.02 -3.54 C-31.5 -2.84, -42.4 2.66, -46.05 3.29" stroke="#000000" stroke-width="2" fill="none"></path></g><g transform="translate(56.05169445404579 13.65433930134435) rotate(0 -22.93068363637559 -0.18251222808683565)"><path d="M-36.11 -4.99 C-39.55 -0.44, -43.15 1.72, -45.35 2.54 M-36.81 -4.92 C-39.05 -1.9, -42.01 0.25, -46.6 3.7" stroke="#000000" stroke-width="2" fill="none"></path></g><g transform="translate(56.05169445404579 13.65433930134435) rotate(0 -22.93068363637559 -0.18251222808683565)"><path d="M-33.45 3.15 C-37.8 4.79, -42.35 4.05, -45.35 2.54 M-34.15 3.22 C-37.14 4.01, -40.84 3.92, -46.6 3.7" stroke="#000000" stroke-width="2" fill="none"></path></g></g>
</svg>