<svg
  xmlns="http://www.w3.org/2000/svg"
  viewBox="0 0 459 224"
  style="background-color: transparent"
>
  <g>
    <g
      id="90865bad-2e3f-4174-27b5-2bb33560a11e_svg"
      class="tl-centered-g"
      transform="translate(20.39, 88.16) rotate(4.57, 62.65, 57.55)"
    >
      <g opacity="1">
        <path
          d="M0.18,39.43 Q2.99,39.34 4.48,39.32 T7.56,39.05 12.09,38.15 17.94,36.69 24.05,34.82 30.65,32.54 37.04,30.21 43.52,27.80 50.33,25.22 56.80,22.71 62.62,20.41 68.09,18.22 73.52,16.17 78.77,14.30 83.87,12.46 89.20,10.47 94.50,8.44 99.25,6.63 103.45,5.15 107.20,3.83 110.71,2.64 113.96,1.60 117.74,0.25 121.46,-1.15 124.34,-1.77 126.59,-0.62 127.31,2.17 126.99,5.16 126.10,9.36 125.10,13.49 124.45,16.37 123.68,19.51 122.87,22.76 122.09,25.97 121.30,29.26 120.37,32.74 119.22,36.88 118.04,41.53 116.89,46.36 115.66,51.39 114.44,56.60 113.04,62.65 111.49,68.91 110.08,74.52 108.75,79.79 107.48,84.62 106.26,89.07 105.06,93.31 104.02,97.17 103.25,100.51 102.64,103.38 102.11,106.02 101.60,108.95 101.05,112.04 100.53,114.33 100.15,115.38 99.79,115.82 99.33,116.16 98.81,116.38 98.25,116.47 97.68,116.43 97.14,116.24 96.66,115.94 96.27,115.53 95.99,115.03 95.83,114.49 95.81,113.92 95.92,113.36 96.35,112.67 97.03,112.06 97.74,111.81 98.50,111.80 99.22,112.03 99.84,112.48 100.27,113.10 100.49,113.82 100.46,114.58 100.19,115.29 99.71,115.88 99.06,116.28 98.33,116.46 97.57,116.39 96.88,116.08 96.32,115.57 95.95,114.90 95.82,114.15 95.93,113.40 96.27,112.73 96.81,112.20 97.50,111.87 98.25,111.77 98.99,111.92 99.65,112.30 100.15,112.87 100.44,113.57 100.50,114.33 100.30,115.07 100.23,115.28 100.15,115.38 99.79,115.82 99.33,116.16 98.81,116.38 98.25,116.47 97.68,116.43 97.14,116.24 96.66,115.94 96.27,115.53 95.99,115.03 95.83,114.49 95.81,113.92 95.92,113.36 96.73,111.35 98.04,108.06 99.05,105.21 99.91,102.63 100.85,99.87 101.84,96.57 102.93,92.71 104.11,88.48 105.31,84.06 106.55,79.24 107.84,73.97 109.20,68.35 110.67,62.13 111.98,56.06 113.07,50.80 114.11,45.77 115.03,40.88 115.90,36.08 116.74,31.89 117.43,28.43 118.05,25.10 118.66,21.88 119.22,18.59 119.74,15.44 120.24,12.47 120.97,8.35 122.06,4.07 120.72,2.82 117.49,3.49 114.66,4.11 111.42,4.90 107.92,5.93 104.18,7.20 100.03,8.67 95.29,10.48 89.96,12.52 84.62,14.52 79.51,16.38 74.31,18.25 68.92,20.30 63.46,22.51 57.64,24.85 51.18,27.41 44.38,30.06 37.93,32.56 31.54,35.03 24.93,37.50 18.76,39.65 12.79,41.47 7.87,42.68 4.49,43.01 1.59,42.95 -0.03,42.88 -0.43,42.78 -0.80,42.59 -1.11,42.31 -1.35,41.97 -1.50,41.58 -1.55,41.17 -1.50,40.75 -1.35,40.36 -1.11,40.02 -0.80,39.74 -0.43,39.55 -0.03,39.45 Z"
          fill="#1d1d1d"
          stroke="#1d1d1d"
          stroke-width="1"
          stroke-linejoin="round"
          stroke-linecap="round"
          pointer-events="none"
        />
      </g>
    </g>
    <g
      id="d1777852-1667-448b-2598-7e3de4b92201_svg"
      class="tl-centered-g"
      transform="translate(55.17, 110.16) rotate(0.00, 38.61, 46.26)"
    >
      <g opacity="1">
        <path
          d="M-0.71,36.89 Q1.59,36.24 3.24,35.46 T6.80,33.70 9.88,32.14 12.37,31.01 14.95,29.89 17.73,28.78 20.60,27.66 23.54,26.47 27.12,25.08 30.49,23.68 33.78,21.96 37.77,19.73 42.11,17.33 46.66,14.82 51.14,12.31 54.60,10.34 57.37,8.78 60.40,7.07 63.34,5.40 66.09,3.84 68.59,2.38 71.50,0.58 74.40,-1.26 75.70,-2.05 76.09,-2.17 76.68,-2.27 77.28,-2.22 77.85,-2.03 78.36,-1.71 78.78,-1.28 79.08,-0.76 79.25,-0.19 79.28,0.42 79.16,1.01 78.91,1.55 78.53,2.02 78.05,2.38 76.66,4.06 73.88,7.26 71.07,10.05 68.66,12.35 65.69,15.03 62.45,17.85 59.55,20.47 56.64,23.18 53.48,25.97 50.30,28.76 47.34,31.50 44.45,34.11 41.61,36.65 38.93,39.13 36.35,41.50 34.09,43.67 31.58,46.35 28.83,49.33 26.71,51.84 25.91,51.65 27.43,51.32 30.41,54.22 32.85,57.16 34.66,59.43 36.66,62.09 38.77,64.94 40.81,67.61 42.70,70.02 44.46,72.41 46.13,74.88 47.76,77.22 49.35,79.57 51.44,82.56 53.71,85.67 56.23,89.15 57.92,91.75 58.04,92.58 57.89,93.40 57.48,94.13 56.86,94.69 56.09,95.02 55.26,95.09 54.45,94.89 53.74,94.45 53.22,93.80 52.93,93.02 52.90,92.18 53.14,91.38 53.63,90.70 54.30,90.21 55.10,89.96 55.94,89.98 56.72,90.27 57.37,90.79 57.83,91.49 58.03,92.30 57.97,93.13 57.64,93.90 57.08,94.53 56.36,94.94 55.54,95.10 54.71,94.99 53.96,94.62 53.37,94.03 53.12,93.69 51.86,91.70 49.81,88.35 47.79,85.01 45.85,81.91 44.32,79.60 42.68,77.19 41.12,74.85 39.48,72.58 37.58,70.23 35.41,67.72 33.02,65.14 30.78,62.74 28.04,59.73 25.00,56.34 22.85,53.81 22.22,51.14 23.55,48.49 26.05,46.39 29.22,43.84 32.11,41.46 34.53,39.45 37.18,37.20 39.92,34.76 42.75,32.24 45.57,29.64 48.50,26.79 51.52,23.89 54.44,20.96 57.16,18.06 59.81,15.18 62.58,12.05 65.13,9.04 67.25,6.49 69.91,3.52 72.99,1.01 75.10,-0.88 76.09,-2.17 76.68,-2.27 77.28,-2.22 77.85,-2.03 78.36,-1.71 78.78,-1.28 79.08,-0.76 79.25,-0.19 79.28,0.42 79.16,1.01 78.91,1.55 78.53,2.02 78.05,2.38 76.57,2.97 73.57,4.29 70.56,5.84 68.04,7.25 65.37,8.79 62.57,10.56 59.65,12.54 56.92,14.34 53.40,16.36 50.01,18.23 47.69,19.48 44.24,21.32 39.74,23.64 35.48,25.60 32.06,27.10 28.77,28.75 25.35,30.53 22.41,31.95 19.67,33.21 17.04,34.45 13.46,36.25 9.19,38.41 5.10,40.31 1.86,41.54 0.40,41.92 -0.22,41.94 -0.82,41.82 -1.38,41.55 -1.86,41.16 -2.23,40.66 -2.47,40.09 -2.57,39.47 -2.52,38.86 -2.32,38.27 -1.99,37.75 -1.54,37.32 -1.00,37.01 Z"
          fill="#1d1d1d"
          stroke="#1d1d1d"
          stroke-width="1"
          stroke-linejoin="round"
          stroke-linecap="round"
          pointer-events="none"
        />
      </g>
    </g>
    <g
      id="a594e4e1-e15b-4303-17b7-9092452aec98_svg"
      class="tl-centered-g"
      transform="translate(24.42, 136.72) rotate(0.00, 14.86, 6.97)"
    >
      <g opacity="1">
        <path
          d="M28.75,16.52 Q26.58,15.67 24.31,14.66 T19.91,12.46 16.03,10.32 12.47,8.53 8.81,6.88 5.20,5.34 1.18,3.62 -1.50,2.39 -2.18,1.78 -2.64,0.99 -2.82,0.10 -2.70,-0.80 -2.30,-1.62 -1.66,-2.27 -0.85,-2.69 0.05,-2.82 0.95,-2.65 1.75,-2.21 2.36,-1.54 2.73,-0.70 2.81,0.20 2.60,1.09 2.11,1.86 1.41,2.44 0.55,2.76 -0.36,2.79 -1.23,2.53 -1.98,2.01 -2.51,1.27 -2.79,0.40 -2.77,-0.51 -2.46,-1.37 -1.90,-2.08 -1.13,-2.58 -0.25,-2.81 0.66,-2.74 1.11,-2.63 3.32,-1.57 7.30,0.27 10.99,1.92 14.86,3.70 18.58,5.65 22.33,7.74 26.41,9.70 29.61,10.98 30.99,11.53 31.53,11.91 31.97,12.40 32.27,12.98 32.43,13.62 32.43,14.28 32.27,14.92 31.96,15.50 31.53,15.99 30.99,16.37 30.37,16.60 29.72,16.68 29.07,16.60 Z"
          fill="#1d1d1d"
          stroke="#1d1d1d"
          stroke-width="1"
          stroke-linejoin="round"
          stroke-linecap="round"
          pointer-events="none"
        />
      </g>
    </g>
    <g
      id="81816764-3e73-4700-0a94-2a15dbbf4605_svg"
      class="tl-centered-g"
      transform="translate(61.90, 151.94) rotate(0.00, 11.89, 20.71)"
    >
      <g opacity="1">
        <path
          d="M2.57,0.00 Q2.61,2.02 2.78,4.17 T3.44,9.01 4.22,13.08 4.75,15.88 5.40,19.76 6.29,24.34 7.07,28.27 7.84,31.64 8.66,34.52 9.38,37.51 8.39,38.68 8.90,36.74 11.87,34.43 14.05,32.66 16.73,30.10 20.03,26.38 22.04,24.05 22.77,23.60 23.62,23.40 24.48,23.49 25.27,23.84 25.90,24.43 26.31,25.19 26.46,26.04 26.33,26.90 25.94,27.66 25.32,28.27 24.53,28.64 23.67,28.74 22.83,28.57 22.08,28.13 21.51,27.47 21.18,26.67 21.13,25.81 21.35,24.97 21.83,24.25 22.51,23.72 23.33,23.44 24.19,23.43 25.02,23.69 25.71,24.21 26.20,24.92 26.45,25.75 26.41,26.62 26.10,27.42 25.87,27.80 24.16,29.81 20.64,33.82 17.82,36.85 15.80,38.86 12.84,41.55 9.06,43.82 5.71,43.22 3.88,40.63 3.41,37.80 2.96,34.93 2.46,32.13 2.07,29.11 1.50,25.19 0.73,20.56 0.10,16.84 -0.50,14.12 -1.20,11.27 -1.85,8.47 -2.37,4.57 -2.59,1.01 -2.54,-0.31 -2.39,-0.91 -2.10,-1.45 -1.69,-1.91 -1.19,-2.26 -0.61,-2.48 0.00,-2.55 0.61,-2.48 1.19,-2.26 1.69,-1.91 2.10,-1.45 2.39,-0.91 2.54,-0.31 Z"
          fill="#1d1d1d"
          stroke="#1d1d1d"
          stroke-width="1"
          stroke-linejoin="round"
          stroke-linecap="round"
          pointer-events="none"
        />
      </g>
    </g>
    <g
      id="305ff5a1-6f5d-4855-29f7-b6a1748635bc_svg"
      class="tl-centered-g"
      transform="translate(166.01, 56.21) rotate(0.00, 86.91, 22.01)"
    >
      <g opacity="1">
        <path
          d="M0.17,44.02 Q2.38,44.02 3.38,44.02 T5.25,43.96 6.98,43.75 8.72,43.37 10.47,42.83 12.22,42.14 13.97,41.36 15.83,40.46 17.84,39.40 19.84,38.28 21.83,37.11 23.82,35.93 25.92,34.53 28.19,32.99 30.36,31.51 32.50,29.96 34.70,28.45 36.93,26.97 39.00,25.53 40.84,24.23 42.55,23.07 44.20,22.00 45.90,20.94 47.62,19.90 49.66,18.72 51.86,17.52 53.97,16.53 56.02,15.64 57.94,14.82 59.78,14.05 61.59,13.29 63.37,12.55 65.14,11.81 66.90,11.14 68.76,10.56 70.78,10.03 72.89,9.45 75.44,8.77 78.34,8.02 81.03,7.40 83.61,6.91 86.13,6.49 88.51,6.11 90.81,5.76 92.97,5.50 95.05,5.29 97.19,5.11 99.46,4.94 102.11,4.69 104.86,4.48 107.27,4.30 109.38,4.13 111.24,4.04 112.90,3.99 114.51,3.96 116.10,3.95 117.68,3.94 119.34,3.94 121.14,3.93 123.23,3.93 125.57,3.93 128.06,3.93 130.75,3.93 133.84,3.93 137.04,3.93 139.89,3.93 142.56,3.93 145.12,3.93 147.63,3.93 150.11,3.93 152.36,3.93 154.60,3.93 156.92,3.87 159.20,3.70 161.35,3.41 163.42,2.98 165.45,2.47 167.47,1.94 169.40,1.40 170.93,0.93 172.03,0.61 173.15,0.25 173.81,0.00 "
          fill="none"
          stroke="none"
          stroke-width="4"
          stroke-linejoin="round"
          stroke-linecap="round"
          pointer-events="none"
        />
        <path
          d="M0.17,44.02 Q2.38,44.02 3.38,44.02 T5.25,43.96 6.98,43.75 8.72,43.37 10.47,42.83 12.22,42.14 13.97,41.36 15.83,40.46 17.84,39.40 19.84,38.28 21.83,37.11 23.82,35.93 25.92,34.53 28.19,32.99 30.36,31.51 32.50,29.96 34.70,28.45 36.93,26.97 39.00,25.53 40.84,24.23 42.55,23.07 44.20,22.00 45.90,20.94 47.62,19.90 49.66,18.72 51.86,17.52 53.97,16.53 56.02,15.64 57.94,14.82 59.78,14.05 61.59,13.29 63.37,12.55 65.14,11.81 66.90,11.14 68.76,10.56 70.78,10.03 72.89,9.45 75.44,8.77 78.34,8.02 81.03,7.40 83.61,6.91 86.13,6.49 88.51,6.11 90.81,5.76 92.97,5.50 95.05,5.29 97.19,5.11 99.46,4.94 102.11,4.69 104.86,4.48 107.27,4.30 109.38,4.13 111.24,4.04 112.90,3.99 114.51,3.96 116.10,3.95 117.68,3.94 119.34,3.94 121.14,3.93 123.23,3.93 125.57,3.93 128.06,3.93 130.75,3.93 133.84,3.93 137.04,3.93 139.89,3.93 142.56,3.93 145.12,3.93 147.63,3.93 150.11,3.93 152.36,3.93 154.60,3.93 156.92,3.87 159.20,3.70 161.35,3.41 163.42,2.98 165.45,2.47 167.47,1.94 169.40,1.40 170.93,0.93 172.03,0.61 173.15,0.25 173.81,0.00 "
          fill="none"
          stroke="#1d1d1d"
          stroke-width="4"
          stroke-dasharray="8 8"
          stroke-dashoffset="0"
          stroke-linejoin="round"
          stroke-linecap="round"
          pointer-events="none"
        />
      </g>
    </g>
    <g
      id="ed7de39c-a3e6-4d7e-0b3f-bd7696314d89_svg"
      class="tl-centered-g"
      transform="translate(358.80, 16.00) rotate(0.00, 42.40, 42.80)"
    >
      <g opacity="1">
        <path
          d="M42.05,33.29 Q40.03,33.28 38.25,33.29 T34.81,33.37 31.76,33.71 28.88,34.39 26.05,35.41 24.05,37.69 23.36,40.80 23.30,43.77 24.03,46.64 25.74,48.84 28.17,50.51 31.28,51.47 34.48,51.50 36.87,50.37 38.31,47.60 39.36,44.50 40.41,41.22 41.49,37.87 42.36,35.67 43.00,34.59 43.58,34.03 44.27,33.64 45.04,33.42 45.84,33.39 46.63,33.55 47.35,33.89 47.97,34.40 48.44,35.04 48.76,35.78 48.88,36.57 48.82,37.37 48.56,38.13 48.27,36.54 48.99,36.00 50.38,38.61 51.58,41.12 53.26,43.93 55.49,46.81 57.78,49.11 60.16,50.76 62.78,51.87 65.41,52.32 68.44,52.04 71.48,50.64 74.62,47.78 77.21,44.84 78.81,42.46 80.55,39.18 81.70,35.45 82.03,31.57 81.87,27.33 80.86,23.50 79.03,20.29 76.40,17.41 73.00,14.77 69.36,12.53 65.88,10.65 62.56,9.14 58.53,7.67 54.76,6.42 51.96,5.61 49.11,4.83 45.98,4.01 42.90,3.32 39.34,2.84 35.56,2.60 31.90,2.58 27.47,2.80 23.66,3.28 20.82,3.98 18.04,4.86 15.45,5.88 12.59,7.40 9.79,9.89 7.74,12.94 5.93,16.67 4.24,21.22 3.24,24.98 2.78,28.65 2.54,32.23 2.48,35.94 2.70,40.68 3.44,45.46 4.70,50.23 5.97,53.99 7.05,56.66 8.21,59.08 10.11,62.51 13.04,66.89 15.72,70.23 17.94,72.59 20.43,74.91 23.02,76.97 25.58,78.67 28.01,80.08 31.36,81.49 36.04,82.69 40.10,83.22 43.26,83.41 46.32,83.50 49.15,83.45 52.46,83.07 55.93,82.40 57.82,82.01 58.56,82.07 59.24,82.37 59.78,82.87 60.14,83.52 60.28,84.25 60.17,84.98 59.84,85.64 59.31,86.16 58.65,86.48 57.91,86.58 57.18,86.43 56.54,86.06 56.05,85.51 55.77,84.83 55.71,84.09 55.89,83.37 56.30,82.75 56.88,82.29 57.58,82.04 58.32,82.03 59.02,82.25 59.62,82.68 60.05,83.29 60.26,84.00 60.23,84.74 59.97,85.43 59.50,86.01 58.88,86.40 58.53,86.54 56.76,86.87 52.83,87.32 49.20,87.48 46.22,87.49 43.08,87.42 39.78,87.33 36.30,87.12 32.11,86.12 28.50,84.67 26.04,83.35 23.51,81.75 20.79,79.92 17.90,77.82 15.05,75.50 12.48,73.10 10.21,70.65 8.33,68.28 6.78,65.91 5.39,63.49 4.13,61.06 2.86,58.47 1.57,55.63 0.49,52.89 -0.62,49.05 -1.58,45.09 -2.06,42.33 -2.33,39.61 -2.34,35.84 -2.26,32.03 -1.99,28.14 -1.55,24.02 -1.01,21.00 -0.26,18.24 0.66,15.64 2.22,12.18 4.50,8.34 7.16,5.49 10.49,3.35 13.79,1.77 16.58,0.62 19.58,-0.48 22.78,-1.48 25.85,-2.13 28.64,-2.44 32.06,-2.43 36.04,-2.13 40.07,-1.53 43.71,-0.89 46.94,-0.36 50.24,0.22 53.17,0.86 56.10,1.51 60.19,2.61 64.75,4.21 68.40,6.00 72.00,8.08 76.07,10.64 80.16,13.83 83.38,17.47 85.62,21.79 86.89,25.66 87.18,29.58 86.91,34.40 85.84,38.94 84.43,42.37 83.07,45.07 81.47,47.93 79.65,50.63 77.66,53.07 74.60,55.71 70.27,57.93 66.27,58.51 62.73,58.08 58.78,56.85 55.14,54.87 52.19,52.40 49.25,49.22 46.65,45.73 44.94,42.78 43.73,40.27 42.95,36.96 43.00,34.59 43.58,34.03 44.27,33.64 45.04,33.42 45.84,33.39 46.62,33.55 47.35,33.89 47.97,34.40 48.44,35.04 48.76,35.78 48.88,36.57 48.82,37.37 48.56,38.13 48.15,38.94 47.32,41.03 46.36,44.02 45.57,46.68 44.66,49.59 43.40,52.61 41.61,55.12 39.08,57.01 35.93,58.03 32.76,58.23 29.78,57.99 26.89,57.21 24.04,55.78 21.40,53.90 18.91,51.34 17.19,48.57 16.71,45.83 16.71,42.53 16.96,39.01 17.75,35.48 19.24,32.63 21.66,30.77 24.57,29.46 27.51,28.59 30.89,27.89 34.60,27.52 38.25,27.47 41.04,27.47 42.40,27.51 43.08,27.68 43.69,28.00 44.21,28.46 44.61,29.04 44.86,29.69 44.94,30.38 44.86,31.07 44.61,31.72 44.21,32.30 43.69,32.76 43.08,33.08 42.40,33.25 Z"
          fill="#1d1d1d"
          stroke="#1d1d1d"
          stroke-width="1"
          stroke-linejoin="round"
          stroke-linecap="round"
          pointer-events="none"
        />
      </g>
    </g>
    <g
      id="69d2394e-f1b2-4bc8-1cc1-a7c23f7b6cc8_svg"
      class="tl-centered-g"
      transform="translate(312.50, 42.37) rotate(0.00, 16.36, 18.89)"
    >
      <g opacity="1">
        <path
          d="M0.00,0.00 Q2.14,0.13 3.04,0.29 T4.74,0.72 6.30,1.27 7.97,1.94 9.90,2.75 11.85,3.54 13.81,4.25 15.78,4.91 17.56,5.52 19.17,6.11 20.52,6.61 21.59,6.99 22.44,7.24 23.04,7.39 23.46,7.46 23.77,7.51 24.09,7.53 24.58,7.60 25.31,7.69 26.24,7.75 27.37,7.83 28.53,7.99 29.55,8.18 30.44,8.33 31.18,8.47 31.73,8.59 32.09,8.70 32.33,8.80 32.51,8.89 32.61,9.03 32.66,9.24 32.65,9.55 32.59,9.91 32.56,10.30 32.49,10.70 32.36,11.15 32.25,11.64 32.12,12.17 31.95,12.84 31.79,13.66 31.65,14.57 31.46,15.52 31.23,16.57 30.92,17.69 30.58,18.85 30.21,20.02 29.79,21.11 29.26,22.25 28.62,23.41 27.85,24.70 27.02,26.00 26.30,26.98 25.76,27.67 25.41,28.13 25.17,28.44 24.95,28.60 24.75,28.70 24.55,28.75 24.35,28.82 23.89,29.09 22.93,29.67 21.27,30.85 19.04,32.58 16.95,34.25 15.25,35.53 14.00,36.44 13.17,37.04 12.63,37.37 12.29,37.52 12.11,37.44 12.01,37.06 11.93,36.19 11.88,35.59 "
          fill="none"
          stroke="none"
          stroke-width="4"
          stroke-linejoin="round"
          stroke-linecap="round"
          pointer-events="none"
        />
        <path
          d="M0.00,0.00 Q2.14,0.13 3.04,0.29 T4.74,0.72 6.30,1.27 7.97,1.94 9.90,2.75 11.85,3.54 13.81,4.25 15.78,4.91 17.56,5.52 19.17,6.11 20.52,6.61 21.59,6.99 22.44,7.24 23.04,7.39 23.46,7.46 23.77,7.51 24.09,7.53 24.58,7.60 25.31,7.69 26.24,7.75 27.37,7.83 28.53,7.99 29.55,8.18 30.44,8.33 31.18,8.47 31.73,8.59 32.09,8.70 32.33,8.80 32.51,8.89 32.61,9.03 32.66,9.24 32.65,9.55 32.59,9.91 32.56,10.30 32.49,10.70 32.36,11.15 32.25,11.64 32.12,12.17 31.95,12.84 31.79,13.66 31.65,14.57 31.46,15.52 31.23,16.57 30.92,17.69 30.58,18.85 30.21,20.02 29.79,21.11 29.26,22.25 28.62,23.41 27.85,24.70 27.02,26.00 26.30,26.98 25.76,27.67 25.41,28.13 25.17,28.44 24.95,28.60 24.75,28.70 24.55,28.75 24.35,28.82 23.89,29.09 22.93,29.67 21.27,30.85 19.04,32.58 16.95,34.25 15.25,35.53 14.00,36.44 13.17,37.04 12.63,37.37 12.29,37.52 12.11,37.44 12.01,37.06 11.93,36.19 11.88,35.59 "
          fill="none"
          stroke="#1d1d1d"
          stroke-width="4"
          stroke-dasharray="8 8"
          stroke-dashoffset="0"
          stroke-linejoin="round"
          stroke-linecap="round"
          pointer-events="none"
        />
      </g>
    </g>
  </g>
</svg>
