<svg
  xmlns="http://www.w3.org/2000/svg"
  viewBox="0 0 297 140"
  style="background-color: transparent"
>
  <g
    id="578aaa04-f5e9-45e3-3690-4ce6689046d8_svg"
    class="tl-centered-g"
    transform="translate(16.00, 16.00) rotate(0.00, 132.87, 54.42)"
  >
    <path
      d="M266.77,74.04 Q267.14,83.76 267.30,89.99 T264.33,101.26 253.67,107.75 238.03,109.45 221.65,109.73 205.08,109.74 188.46,109.69 171.82,109.62 155.17,109.54 138.53,109.55 121.89,109.70 105.24,109.93 88.60,110.16 71.95,110.39 55.31,110.61 38.66,110.84 21.93,111.05 7.93,108.05 0.84,98.74 -0.81,85.99 -0.86,72.91 -0.75,59.80 -0.90,46.67 -1.19,33.53 -1.44,20.28 1.60,8.44 12.25,1.81 27.86,0.11 44.19,-0.15 60.71,-0.12 77.29,-0.03 93.87,0.08 110.47,0.19 127.06,0.22 143.65,0.11 160.25,-0.08 176.84,-0.27 193.43,-0.46 210.03,-0.65 226.62,-0.84 243.30,-1.01 257.26,2.00 264.38,11.28 266.13,23.96 266.28,36.96 266.28,49.99 266.54,63.04 266.95,78.33 267.09,87.50 266.84,88.28 266.34,88.93 265.67,89.40 264.88,89.62 264.06,89.58 263.30,89.28 262.68,88.76 262.25,88.06 262.07,87.26 262.15,86.44 262.49,85.70 263.05,85.10 263.77,84.72 264.58,84.58 265.39,84.71 266.11,85.09 266.68,85.68 267.03,86.42 267.12,87.23 266.95,88.03 266.53,88.74 265.91,89.27 265.15,89.58 264.33,89.62 263.54,89.41 262.86,88.95 262.37,88.30 262.10,87.53 262.03,87.12 262.15,78.36 262.39,63.07 262.46,50.04 262.13,37.11 261.39,24.63 260.00,13.71 255.22,6.73 243.14,4.57 226.63,4.48 210.04,4.37 193.44,4.25 176.85,4.14 160.26,4.03 143.66,3.91 127.07,3.88 110.48,3.99 93.89,4.18 77.30,4.38 60.75,4.59 44.32,4.87 28.39,5.39 14.45,6.49 6.19,10.64 3.95,20.51 3.61,33.54 3.25,46.68 3.07,59.79 3.29,72.80 3.93,85.36 5.23,96.35 9.98,103.35 22.08,105.47 38.64,105.52 55.28,105.60 71.93,105.67 88.58,105.75 105.22,105.82 121.87,105.90 138.51,105.89 155.16,105.74 171.80,105.51 188.43,105.28 205.04,105.03 221.52,104.71 237.50,104.16 251.48,103.07 259.75,99.05 261.92,89.78 262.15,78.93 262.32,73.79 262.45,73.27 262.69,72.80 263.05,72.39 263.49,72.09 263.99,71.89 264.52,71.83 265.05,71.89 265.55,72.08 265.99,72.38 266.35,72.78 266.60,73.25 266.73,73.77 Z"
      fill="#1d1d1d"
      stroke="#1d1d1d"
      stroke-width="3.5"
      pointer-events="none"
    />
  </g>
  <g>
    <g
      id="a79752d9-e97d-44be-22e1-d0a63e72ca2b_svg"
      class="tl-centered-g"
      transform="translate(226.90, 39.67) rotate(0.00, 3.96, 4.67)"
    >
      <g opacity="1">
        <path
          d="M4.81,2.95 Q3.38,3.22 3.34,4.67 T4.72,5.90 5.07,5.64 3.69,5.13 3.22,4.11 3.10,2.99 3.34,1.89 3.92,0.93 4.77,0.20 5.82,-0.22 6.94,-0.28 8.03,0.02 8.96,0.65 9.64,1.55 10.00,2.62 10.00,3.74 9.64,4.81 8.96,5.70 8.03,6.34 6.95,6.64 5.82,6.58 4.78,6.16 3.92,5.43 3.34,4.47 3.10,3.37 3.22,2.25 3.69,1.23 4.46,0.41 5.46,-0.12 6.57,-0.30 7.68,-0.12 8.67,0.41 9.13,0.75 10.17,4.82 10.17,10.31 7.75,12.16 4.39,12.61 1.00,12.08 -1.42,10.43 -2.87,7.94 -3.25,5.18 -2.92,2.47 -1.95,-0.05 0.55,-1.98 3.07,-2.83 4.15,-2.97 4.86,-2.92 5.54,-2.70 6.15,-2.32 6.65,-1.81 7.02,-1.19 7.23,-0.51 7.26,0.21 7.13,0.91 6.83,1.56 6.38,2.12 5.81,2.56 5.16,2.84 Z"
          fill="#1d1d1d"
          stroke="#1d1d1d"
          stroke-width="1"
          stroke-linejoin="round"
          stroke-linecap="round"
          pointer-events="none"
        />
      </g>
    </g>
    <g
      id="198fca5f-a38d-406d-2474-e22e220736cf_svg"
      class="tl-centered-g"
      transform="translate(218.89, 56.05) rotate(0.00, 20.30, 7.18)"
    >
      <g opacity="1">
        <path
          d="M0.00,-3.00 Q1.49,-3.01 3.06,-3.06 T6.02,-3.16 8.87,-3.25 11.84,-3.32 14.92,-3.37 17.81,-3.29 20.66,-3.06 24.14,-2.43 26.90,-0.46 27.99,2.49 28.74,5.17 29.82,7.70 31.15,10.36 33.53,11.26 37.90,10.83 41.16,10.95 42.22,11.30 43.12,11.98 43.74,12.91 44.04,13.99 43.98,15.11 43.56,16.15 42.84,17.00 41.88,17.58 40.78,17.82 39.67,17.69 38.65,17.22 37.84,16.45 37.32,15.46 37.14,14.36 37.32,13.25 37.85,12.26 38.66,11.49 39.68,11.02 40.79,10.90 41.89,11.15 42.84,11.73 43.57,12.58 43.98,13.62 44.04,14.74 43.74,15.82 43.11,16.74 42.22,17.42 41.15,17.78 40.60,17.87 37.85,17.88 33.45,17.85 29.94,17.46 26.98,16.27 25.17,14.17 23.86,11.69 22.68,9.01 21.67,6.14 20.99,3.42 21.73,3.06 21.10,3.85 17.99,3.53 14.92,3.37 11.84,3.32 8.87,3.25 6.02,3.16 3.06,3.06 0.75,3.01 -0.36,2.95 -1.05,2.78 -1.69,2.45 -2.23,1.97 -2.63,1.38 -2.89,0.71 -2.97,-0.00 -2.89,-0.71 -2.63,-1.38 -2.23,-1.97 -1.69,-2.45 -1.05,-2.78 -0.36,-2.95 Z"
          fill="#1d1d1d"
          stroke="#1d1d1d"
          stroke-width="1"
          stroke-linejoin="round"
          stroke-linecap="round"
          pointer-events="none"
        />
      </g>
    </g>
    <g
      id="88281015-8eed-448f-2be4-dbe9907db302_svg"
      class="tl-centered-g"
      transform="translate(209.41, 57.04) rotate(0.00, 4.34, 6.51)"
    >
      <g opacity="1">
        <path
          d="M11.13,1.73 Q10.11,3.17 9.33,4.39 T7.88,6.87 6.52,9.25 4.10,12.81 1.96,15.56 1.05,16.05 0.02,16.23 -1.00,16.07 -1.92,15.59 -2.64,14.84 -3.09,13.90 -3.21,12.87 -2.99,11.85 -2.46,10.96 -1.68,10.28 -0.71,9.89 0.32,9.83 1.33,10.10 2.19,10.67 2.82,11.49 3.16,12.48 3.17,13.52 2.85,14.50 2.23,15.33 1.37,15.92 0.37,16.21 -0.67,16.16 -1.63,15.78 -2.43,15.12 -2.97,14.23 -3.20,13.22 -3.10,12.18 -2.67,11.24 -2.38,10.80 -1.16,9.08 0.93,6.20 2.70,3.56 4.41,0.90 5.72,-1.00 6.47,-2.00 7.02,-2.47 7.65,-2.79 8.35,-2.96 9.07,-2.95 9.76,-2.77 10.40,-2.43 10.93,-1.95 11.33,-1.35 11.58,-0.68 11.65,0.03 11.56,0.74 11.30,1.41 Z"
          fill="#1d1d1d"
          stroke="#1d1d1d"
          stroke-width="1"
          stroke-linejoin="round"
          stroke-linecap="round"
          pointer-events="none"
        />
      </g>
    </g>
    <g
      id="1fd0f5aa-1f45-4c49-0f6d-01f17e40d8a9_svg"
      class="tl-centered-g"
      transform="translate(221.44, 60.94) rotate(0.00, 2.29, 7.29)"
    >
      <g opacity="1">
        <path
          d="M7.59,0.00 Q7.59,1.35 7.23,2.99 T6.45,5.91 5.65,8.51 4.20,12.80 2.85,16.24 2.17,17.07 1.26,17.63 0.22,17.87 -0.84,17.77 -1.81,17.34 -2.60,16.61 -3.11,15.68 -3.30,14.62 -3.14,13.57 -2.65,12.62 -1.89,11.87 -0.93,11.41 0.13,11.28 1.18,11.50 2.10,12.04 2.80,12.84 3.21,13.83 3.29,14.89 3.01,15.93 2.43,16.82 1.59,17.47 0.58,17.83 -0.49,17.84 -1.51,17.52 -2.37,16.88 -2.98,16.01 -3.28,14.98 -3.23,13.91 -3.12,13.38 -2.49,11.66 -1.25,8.31 -0.18,5.47 0.93,2.70 1.57,0.57 1.62,-0.36 1.79,-1.06 2.12,-1.70 2.60,-2.23 3.19,-2.64 3.87,-2.90 4.58,-2.99 5.29,-2.90 5.97,-2.64 6.56,-2.23 7.04,-1.70 7.37,-1.06 7.54,-0.36 Z"
          fill="#1d1d1d"
          stroke="#1d1d1d"
          stroke-width="1"
          stroke-linejoin="round"
          stroke-linecap="round"
          pointer-events="none"
        />
      </g>
    </g>
    <g
      id="763627a8-59fb-40d0-2a36-ed468afbfcea_svg"
      class="tl-centered-g"
      transform="translate(206.01, 75.52) rotate(0.00, 7.71, 9.01)"
    >
      <g opacity="1">
        <path
          d="M18.41,0.00 Q18.40,1.96 18.42,3.33 T18.49,6.13 18.58,9.34 18.65,12.62 18.14,16.30 15.65,19.34 11.42,20.43 7.64,20.85 3.08,21.14 -0.51,21.17 -1.49,20.84 -2.31,20.22 -2.90,19.36 -3.18,18.37 -3.12,17.33 -2.74,16.37 -2.08,15.58 -1.19,15.04 -0.18,14.82 0.85,14.93 1.79,15.36 2.54,16.07 3.03,16.98 3.20,18.00 3.03,19.02 2.55,19.94 1.80,20.65 0.86,21.09 -0.16,21.20 -1.17,20.98 -2.06,20.45 -2.73,19.67 -3.12,18.71 -3.18,17.67 -2.91,16.68 -2.33,15.82 -1.51,15.19 -0.53,14.86 -0.01,14.77 2.38,14.76 6.44,14.62 10.14,14.29 12.19,12.62 12.26,9.34 12.35,6.13 12.42,3.33 12.43,0.98 12.47,-0.36 12.64,-1.05 12.97,-1.69 13.45,-2.23 14.04,-2.63 14.71,-2.89 15.42,-2.97 16.13,-2.89 16.80,-2.63 17.39,-2.23 17.87,-1.69 18.20,-1.05 18.37,-0.36 Z"
          fill="#1d1d1d"
          stroke="#1d1d1d"
          stroke-width="1"
          stroke-linejoin="round"
          stroke-linecap="round"
          pointer-events="none"
        />
      </g>
    </g>
    <g
      id="4b21b76c-e793-4205-3ad1-6512c5da6895_svg"
      class="tl-centered-g"
      transform="translate(227.91, 73.00) rotate(0.00, 7.58, 8.88)"
    >
      <g opacity="1">
        <path
          d="M2.25,-1.97 Q3.49,-0.55 4.52,0.54 T6.58,2.67 8.51,4.68 10.62,7.00 12.69,9.36 14.60,11.64 16.72,14.33 18.04,16.22 18.38,17.22 18.39,18.27 18.06,19.27 17.42,20.11 16.55,20.71 15.54,21.00 14.49,20.94 13.51,20.56 12.70,19.88 12.15,18.98 11.92,17.95 12.03,16.90 12.46,15.95 13.19,15.18 14.11,14.68 15.15,14.50 16.19,14.67 17.13,15.16 17.86,15.92 18.30,16.87 18.42,17.92 18.20,18.95 17.66,19.86 16.86,20.54 15.89,20.94 14.83,21.00 13.82,20.72 12.94,20.14 12.55,19.77 11.28,18.11 8.90,15.03 6.49,12.14 4.31,9.64 2.37,7.33 0.15,4.72 -1.63,2.68 -2.45,1.68 -2.78,1.04 -2.95,0.34 -2.95,-0.37 -2.77,-1.07 -2.44,-1.70 -1.96,-2.24 -1.37,-2.64 -0.70,-2.89 0.02,-2.97 0.73,-2.88 1.39,-2.63 1.98,-2.21 Z"
          fill="#1d1d1d"
          stroke="#1d1d1d"
          stroke-width="1"
          stroke-linejoin="round"
          stroke-linecap="round"
          pointer-events="none"
        />
      </g>
    </g>
  </g>
  <g
    id="5df1e386-35ed-4242-0f92-f448ddeeec24_svg"
    class="tl-centered-g"
    transform="translate(47.87, 46.88) rotate(0.00, 12.60, 24.22)"
  >
    <g opacity="1">
      <path
        d="M25.20,2.86 Q23.34,2.87 21.69,2.89 T18.25,2.92 14.54,2.92 10.57,2.90 7.22,2.92 4.30,3.08 3.01,4.86 3.33,7.95 3.29,10.96 3.30,13.88 3.48,16.74 3.83,19.74 4.10,22.73 4.28,25.94 4.59,29.07 5.02,32.20 5.43,35.22 5.82,38.17 6.19,41.19 7.46,43.53 10.04,44.66 13.38,44.91 16.89,44.99 19.84,44.98 22.88,44.59 25.16,44.22 26.25,44.42 27.23,44.96 27.98,45.79 28.43,46.81 28.52,47.92 28.26,49.00 27.67,49.95 26.80,50.65 25.76,51.04 24.65,51.08 23.58,50.76 22.67,50.12 22.01,49.22 21.68,48.15 21.70,47.04 22.08,45.99 22.77,45.11 23.71,44.51 24.79,44.23 25.90,44.31 26.93,44.75 27.76,45.49 28.32,46.45 28.53,47.55 28.39,48.65 27.90,49.66 27.12,50.45 26.12,50.95 25.58,51.12 23.76,51.52 20.62,51.90 17.89,51.87 15.16,51.87 12.47,51.86 9.67,51.73 6.43,51.15 3.09,49.95 0.73,47.84 -0.39,44.95 -0.79,41.74 -1.10,38.73 -1.41,35.99 -1.73,33.13 -2.05,30.32 -2.31,27.25 -2.49,23.79 -2.72,20.62 -3.02,17.39 -3.22,14.07 -3.28,10.96 -3.31,7.92 -3.27,4.78 -2.82,1.51 -1.56,-1.09 0.93,-2.55 4.25,-2.98 7.22,-2.92 10.57,-2.90 14.54,-2.92 18.25,-2.92 21.69,-2.89 24.27,-2.87 25.55,-2.82 26.21,-2.66 26.82,-2.34 27.33,-1.88 27.72,-1.32 27.96,-0.68 28.05,0.00 27.96,0.68 27.72,1.32 27.33,1.88 26.82,2.34 26.21,2.66 25.55,2.82 Z"
        fill="#1d1d1d"
        stroke="#1d1d1d"
        stroke-width="1"
        stroke-linejoin="round"
        stroke-linecap="round"
        pointer-events="none"
      />
    </g>
  </g>
  <g
    id="a5a765ec-da49-4e1a-07b4-3c273f7ca718_svg"
    class="tl-centered-g"
    transform="translate(50.37, 68.75) rotate(0.00, 7.35, 0.50)"
  >
    <g opacity="1">
      <path
        d="M0.00,-2.99 Q1.84,-2.99 3.45,-2.89 T6.42,-2.78 9.22,-2.80 13.20,-2.64 16.20,-2.20 17.03,-1.57 17.61,-0.71 17.89,0.29 17.84,1.33 17.45,2.29 16.78,3.09 15.89,3.62 14.88,3.85 13.84,3.74 12.90,3.30 12.15,2.59 11.66,1.67 11.49,0.64 11.66,-0.38 12.14,-1.30 12.90,-2.01 13.84,-2.45 14.87,-2.56 15.89,-2.34 16.78,-1.81 17.45,-1.01 17.84,-0.05 17.89,0.99 17.61,1.99 17.03,2.85 16.21,3.48 15.22,3.81 14.18,3.81 13.66,3.72 12.15,3.66 9.13,3.53 6.05,3.35 3.16,3.11 0.92,2.99 -0.36,2.95 -1.05,2.78 -1.69,2.45 -2.22,1.97 -2.63,1.38 -2.89,0.71 -2.97,-0.00 -2.89,-0.71 -2.63,-1.38 -2.22,-1.97 -1.69,-2.45 -1.05,-2.78 -0.36,-2.95 Z"
        fill="#1d1d1d"
        stroke="#1d1d1d"
        stroke-width="1"
        stroke-linejoin="round"
        stroke-linecap="round"
        pointer-events="none"
      />
    </g>
  </g>
  <g
    id="b07a045a-32e5-4277-1291-5a5f2efd09fb_svg"
    class="tl-centered-g"
    transform="translate(90.21, 44.28) rotate(0.00, 11.23, 26.56)"
  >
    <g opacity="1">
      <path
        d="M25.39,0.00 Q25.42,1.48 25.25,3.10 T24.64,6.29 23.41,9.59 21.83,12.95 20.29,16.17 18.58,19.64 16.89,23.19 15.49,26.39 14.21,29.29 12.90,31.94 11.55,34.50 10.27,37.07 9.07,39.76 7.96,42.42 6.84,45.24 5.75,48.10 3.91,52.31 2.16,55.59 1.25,56.15 0.22,56.39 -0.84,56.29 -1.81,55.86 -2.59,55.14 -3.10,54.21 -3.28,53.16 -3.12,52.11 -2.64,51.17 -1.88,50.43 -0.92,49.97 0.14,49.84 1.18,50.06 2.09,50.59 2.79,51.39 3.20,52.37 3.27,53.43 2.99,54.46 2.41,55.35 1.57,56.00 0.57,56.35 -0.49,56.36 -1.50,56.04 -2.35,55.40 -2.96,54.53 -3.26,53.51 -3.21,52.45 -2.83,51.46 -2.56,51.00 -1.65,48.95 -0.21,45.67 1.03,42.76 2.27,39.87 3.43,37.19 4.71,34.39 6.12,31.66 7.82,28.56 9.42,25.44 10.78,22.44 12.35,18.96 14.03,15.32 15.59,11.96 17.08,8.78 18.34,5.96 19.17,3.10 19.51,0.74 19.56,-0.35 19.73,-1.03 20.06,-1.66 20.52,-2.18 21.10,-2.58 21.76,-2.83 22.46,-2.91 23.15,-2.83 23.81,-2.58 24.39,-2.18 24.85,-1.65 25.18,-1.03 25.35,-0.35 Z"
        fill="#1d1d1d"
        stroke="#1d1d1d"
        stroke-width="1"
        stroke-linejoin="round"
        stroke-linecap="round"
        pointer-events="none"
      />
    </g>
  </g>
  <g
    id="7d0c5bd7-5b36-4c8e-34a6-1984eebe8b66_svg"
    class="tl-centered-g"
    transform="translate(86.44, 45.98) rotate(0.00, 17.28, 23.49)"
  >
    <g opacity="1">
      <path
        d="M2.22,-1.84 Q3.63,-0.09 4.74,1.22 T6.91,3.66 9.09,6.15 11.41,9.13 13.69,12.38 15.62,15.11 17.34,17.24 19.32,19.51 21.26,22.01 22.91,24.68 24.61,27.16 26.59,29.34 28.60,31.61 30.46,34.01 32.30,36.39 34.06,38.67 35.78,40.98 36.89,43.34 37.50,44.99 37.98,46.03 38.10,47.17 37.85,48.29 37.26,49.27 36.39,50.01 35.33,50.43 34.19,50.49 33.08,50.19 32.14,49.55 31.44,48.64 31.08,47.55 31.08,46.41 31.44,45.32 32.14,44.41 33.08,43.77 34.19,43.46 35.33,43.52 36.39,43.95 37.26,44.69 37.85,45.67 38.10,46.79 37.98,47.93 37.50,48.96 36.71,49.79 35.70,50.33 34.57,50.52 33.44,50.33 32.43,49.79 31.97,49.44 31.20,47.59 29.59,44.56 27.93,42.31 26.25,40.01 24.60,37.75 22.93,35.52 21.05,33.30 19.29,31.19 17.80,28.87 16.15,26.02 14.32,23.29 12.54,20.94 10.80,18.52 8.90,15.77 6.77,12.77 4.63,9.99 2.50,7.47 0.34,4.90 -1.49,2.70 -2.41,1.55 -2.71,0.93 -2.85,0.25 -2.83,-0.44 -2.65,-1.10 -2.30,-1.70 -1.83,-2.21 -1.25,-2.58 -0.59,-2.80 0.09,-2.86 0.78,-2.76 1.41,-2.49 1.97,-2.08 Z"
        fill="#1d1d1d"
        stroke="#1d1d1d"
        stroke-width="1"
        stroke-linejoin="round"
        stroke-linecap="round"
        pointer-events="none"
      />
    </g>
  </g>
  <g
    id="79e73030-39dd-4ec2-3772-8bd5767193ad_svg"
    class="tl-centered-g"
    transform="translate(137.02, 43.95) rotate(0.00, 2.40, 25.07)"
  >
    <g opacity="1">
      <path
        d="M2.97,0.00 Q2.95,1.94 2.97,3.41 T3.02,6.20 3.22,9.23 3.64,12.34 4.26,15.22 5.00,18.12 5.67,20.97 6.24,23.70 6.71,26.34 7.17,29.06 7.65,31.75 7.99,34.62 8.12,37.72 8.17,40.63 8.22,43.57 8.26,47.64 8.19,50.69 7.83,51.75 7.16,52.63 6.24,53.26 5.17,53.56 4.05,53.50 3.02,53.08 2.17,52.36 1.60,51.41 1.36,50.32 1.48,49.21 1.95,48.20 2.71,47.40 3.70,46.88 4.79,46.70 5.89,46.88 6.88,47.40 7.64,48.21 8.11,49.22 8.23,50.32 7.99,51.41 7.42,52.36 6.57,53.08 5.53,53.50 4.42,53.56 3.35,53.26 2.43,52.63 1.75,51.75 1.40,50.69 1.31,50.13 1.32,47.99 1.35,44.46 1.40,41.59 1.43,38.78 1.42,36.11 1.22,33.18 0.80,29.97 0.32,26.64 -0.33,22.94 -1.07,19.57 -1.80,16.61 -2.47,13.44 -2.89,9.69 -3.02,6.20 -2.97,3.41 -2.96,0.97 -2.92,-0.35 -2.75,-1.04 -2.42,-1.67 -1.95,-2.20 -1.37,-2.61 -0.70,-2.86 0.00,-2.94 0.70,-2.86 1.37,-2.61 1.95,-2.20 2.42,-1.67 2.75,-1.04 2.92,-0.35 Z"
        fill="#1d1d1d"
        stroke="#1d1d1d"
        stroke-width="1"
        stroke-linejoin="round"
        stroke-linecap="round"
        pointer-events="none"
      />
    </g>
  </g>
  <g
    id="00bc41a3-2c73-46b2-1975-c399e31fd1e6_svg"
    class="tl-centered-g"
    transform="translate(153.48, 42.22) rotate(0.00, 15.86, 0.50)"
  >
    <g opacity="1">
      <path
        d="M0.00,-2.98 Q1.83,-2.98 3.37,-2.99 T6.24,-3.03 9.38,-3.09 12.98,-3.11 16.11,-3.01 19.14,-2.94 22.23,-2.90 25.07,-2.77 29.11,-2.60 32.26,-2.42 33.29,-2.08 34.15,-1.42 34.76,-0.52 35.05,0.53 34.99,1.61 34.58,2.62 33.88,3.44 32.95,4.00 31.89,4.23 30.81,4.11 29.83,3.66 29.04,2.91 28.54,1.95 28.36,0.88 28.54,-0.19 29.05,-1.15 29.84,-1.89 30.82,-2.35 31.90,-2.46 32.96,-2.23 33.89,-1.67 34.59,-0.84 34.99,0.17 35.05,1.25 34.75,2.30 34.14,3.19 33.28,3.85 32.25,4.19 31.71,4.28 28.99,4.16 24.78,3.93 21.63,3.73 18.57,3.60 15.71,3.41 12.72,3.19 9.38,3.09 6.24,3.03 3.37,2.99 0.91,2.98 -0.36,2.94 -1.05,2.77 -1.68,2.44 -2.22,1.96 -2.62,1.38 -2.87,0.71 -2.96,-0.00 -2.87,-0.71 -2.62,-1.38 -2.22,-1.96 -1.68,-2.44 -1.05,-2.77 -0.36,-2.94 Z"
        fill="#1d1d1d"
        stroke="#1d1d1d"
        stroke-width="1"
        stroke-linejoin="round"
        stroke-linecap="round"
        pointer-events="none"
      />
    </g>
  </g>
  <g
    id="a5b6ee52-df6e-464f-1a26-51c12d3953e8_svg"
    class="tl-centered-g"
    transform="translate(168.90, 46.47) rotate(0.00, 0.62, 24.57)"
  >
    <g opacity="1">
      <path
        d="M2.93,0.11 Q2.89,2.36 2.89,4.31 T2.91,7.80 2.96,10.74 3.03,14.08 3.09,18.08 3.12,21.46 3.17,24.36 3.37,27.63 3.67,30.93 3.90,34.01 4.12,37.05 4.32,40.01 4.44,42.76 4.60,46.37 4.73,49.13 4.54,50.24 4.02,51.24 3.20,52.02 2.18,52.49 1.06,52.61 -0.04,52.37 -1.00,51.79 -1.73,50.94 -2.15,49.89 -2.22,48.77 -1.92,47.68 -1.28,46.75 -0.39,46.07 0.68,45.70 1.80,45.70 2.87,46.06 3.77,46.74 4.40,47.67 4.70,48.76 4.64,49.88 4.23,50.93 3.50,51.79 2.54,52.37 1.44,52.61 0.32,52.49 -0.70,52.02 -1.52,51.25 -2.05,50.25 -2.23,49.71 -2.38,46.97 -2.55,42.77 -2.56,39.97 -2.67,37.01 -2.82,33.76 -2.94,30.58 -3.11,27.51 -3.17,24.36 -3.12,21.46 -3.09,18.08 -3.03,14.08 -2.96,10.74 -2.91,7.80 -2.89,4.31 -2.91,1.23 -2.89,-0.24 -2.72,-0.92 -2.39,-1.54 -1.93,-2.06 -1.35,-2.46 -0.70,-2.71 0.00,-2.80 0.70,-2.71 1.35,-2.46 1.93,-2.06 2.39,-1.54 2.72,-0.92 2.89,-0.24 Z"
        fill="#1d1d1d"
        stroke="#1d1d1d"
        stroke-width="1"
        stroke-linejoin="round"
        stroke-linecap="round"
        pointer-events="none"
      />
    </g>
  </g>
</svg>
