<svg viewBox="130 88 140 60">
  <g transform="matrix(0.971974, 0, 0, 0.930171, 4.668686, 8.269636)">
    <path class="path" d="M 265.46 92.357 C 244.571 92.357 221.628 89.405 200.965 92.357 C 192.922 93.506 185.157 95.494 177.479 97.805 C 169.304 100.265 161.228 103.09 153.019 105.657 C 148.836 106.964 143.44 109.74 140.554 113.038 C 131.013 123.943 125.373 130.076 139.63 137.852 C 142.468 139.4 145.724 140.036 148.737 141.202 C 154.627 143.48 161.402 144.948 167.739 145.491 C 186.597 147.109 212.864 148.727 230.95 142.853 C 237.185 140.828 243.715 138.092 249.575 135.162 C 253.878 133.01 260.568 130.591 263.545 126.621 C 274.11 112.534 263.526 100.229 249.644 94.463 C 236.647 89.066 217.987 88.941 203.748 88.941"></path>
  </g>
</svg>