<svg
  xmlns="http://www.w3.org/2000/svg"
  viewBox="0 0 195 231"
  style="background-color: transparent"
>
  <g>
    <g
      id="f2d625ce-a751-4afd-2c48-79612d6a8741_svg"
      class="tl-centered-g"
      transform="translate(48.29, 16.00) rotate(0.00, 60.75, 15.33)"
    >
      <g opacity="1">
        <path
          d="M1.57,30.38 Q1.60,28.04 1.48,26.51 T0.98,23.41 0.12,19.53 -0.79,14.80 -1.66,10.54 -1.89,6.37 -0.08,3.42 3.24,3.38 6.09,4.68 8.33,6.10 10.61,7.64 13.39,9.52 16.24,11.47 18.63,13.18 20.80,14.95 22.71,16.98 24.46,19.19 26.39,21.48 28.44,23.82 30.77,25.35 33.49,26.21 36.45,26.93 39.71,27.20 42.91,27.26 46.30,27.34 49.96,27.42 53.29,27.37 56.25,27.14 59.31,26.89 62.70,26.62 65.89,26.34 68.64,26.17 71.45,25.93 74.35,25.74 77.09,25.72 79.94,25.75 83.00,25.79 85.95,25.77 88.96,25.58 92.10,24.75 94.70,23.36 96.95,21.69 99.32,19.67 101.53,17.61 103.57,15.54 105.75,13.10 108.03,10.28 110.08,7.73 112.04,5.50 113.98,3.33 115.76,1.33 117.63,-0.72 120.29,-2.16 123.07,-1.56 124.26,0.76 123.91,3.41 122.98,6.00 122.10,8.61 121.31,11.40 120.64,14.44 120.08,17.38 119.51,20.26 118.94,23.29 118.31,27.13 117.76,30.01 117.23,30.98 116.41,31.73 115.40,32.18 114.30,32.29 113.22,32.03 112.28,31.45 111.57,30.60 111.18,29.56 111.13,28.45 111.44,27.39 112.07,26.48 112.97,25.82 114.02,25.48 115.13,25.50 116.17,25.87 117.05,26.55 117.66,27.47 117.94,28.54 117.86,29.65 117.44,30.67 116.71,31.51 115.75,32.07 114.67,32.29 113.57,32.16 112.57,31.68 111.78,30.90 111.27,29.92 111.11,28.82 111.11,28.26 111.37,26.83 111.92,23.79 112.58,20.39 113.27,16.89 113.91,13.69 114.62,10.73 115.38,7.95 116.21,5.14 117.69,2.34 120.75,2.16 121.65,4.48 119.63,6.68 117.38,9.19 115.07,11.84 113.01,14.37 110.63,17.21 108.15,19.97 105.94,22.25 103.64,24.44 100.93,26.87 98.29,28.89 95.78,30.39 92.47,31.56 89.12,32.17 86.19,32.33 83.01,32.42 79.94,32.46 77.12,32.50 74.06,32.53 70.99,32.68 68.20,32.79 65.28,32.85 62.51,33.03 59.84,33.20 56.79,33.46 53.42,33.76 49.95,33.90 46.30,33.98 42.40,34.05 38.94,34.02 35.87,33.72 32.81,33.08 30.01,32.28 26.93,31.19 24.31,29.52 22.54,27.50 20.71,25.21 18.92,22.79 17.30,20.55 15.16,18.41 12.67,16.54 9.97,14.73 7.12,12.86 4.34,10.94 1.60,9.23 1.81,8.05 3.68,9.52 4.57,13.76 5.57,18.23 6.52,22.38 7.01,26.18 7.09,29.21 7.07,30.72 6.91,31.36 6.60,31.95 6.16,32.44 5.62,32.82 5.00,33.05 4.34,33.13 3.68,33.05 3.06,32.82 2.51,32.44 2.08,31.95 1.77,31.36 1.61,30.71 Z"
          fill="#1d1d1d"
          stroke="#1d1d1d"
          stroke-width="1"
          stroke-linejoin="round"
          stroke-linecap="round"
          pointer-events="none"
        />
      </g>
    </g>
    <g
      id="0b2fcee9-f233-41bd-2b6f-0a369a297364_svg"
      class="tl-centered-g"
      transform="translate(155.77, 44.87) rotate(0.00, 11.99, 48.51)"
    >
      <g opacity="1">
        <path
          d="M10.06,0.00 Q10.07,1.56 10.46,2.93 T11.73,5.33 13.63,7.23 15.81,8.96 18.06,10.73 20.25,12.81 21.93,15.28 23.00,17.95 23.92,20.65 24.74,23.42 25.50,26.38 26.27,29.72 26.90,33.21 27.25,36.33 27.39,39.36 27.42,42.45 27.42,45.45 27.30,48.23 26.91,50.84 26.25,53.72 25.31,57.09 24.17,60.58 22.99,63.80 21.93,66.87 20.96,69.72 19.78,72.80 18.50,76.25 17.39,79.46 16.56,82.33 15.80,84.98 14.71,87.94 13.35,91.07 11.64,94.03 9.64,96.39 7.45,98.04 3.41,99.65 -0.02,100.51 -1.13,100.32 -2.12,99.78 -2.89,98.96 -3.36,97.94 -3.47,96.82 -3.22,95.72 -2.64,94.76 -1.77,94.03 -0.73,93.62 0.40,93.57 1.48,93.88 2.41,94.52 3.08,95.42 3.44,96.49 3.43,97.61 3.06,98.68 2.38,99.57 1.44,100.19 0.35,100.49 -0.77,100.42 -1.81,100.00 -2.67,99.26 -3.24,98.29 -3.48,97.19 -3.35,96.07 -2.87,95.05 -2.09,94.24 -1.09,93.72 -0.55,93.54 1.70,92.78 4.94,91.10 6.66,88.90 7.95,86.34 9.13,83.40 10.11,80.35 11.04,77.28 12.20,73.93 13.27,71.02 14.34,68.12 15.31,65.19 16.24,62.47 17.35,59.52 18.42,56.34 19.34,53.14 20.05,50.18 20.46,47.36 20.55,44.42 20.55,41.45 20.52,38.60 20.35,35.57 19.88,32.41 19.19,29.48 18.42,26.72 17.45,23.53 16.66,20.25 15.40,17.62 13.37,15.58 11.14,13.72 8.73,11.56 6.56,9.08 4.95,6.60 4.16,3.46 4.03,0.78 4.08,-0.36 4.26,-1.06 4.59,-1.70 5.07,-2.24 5.66,-2.65 6.34,-2.90 7.05,-2.99 7.77,-2.90 8.44,-2.65 9.03,-2.24 9.51,-1.70 9.85,-1.06 10.02,-0.36 Z"
          fill="#1d1d1d"
          stroke="#1d1d1d"
          stroke-width="1"
          stroke-linejoin="round"
          stroke-linecap="round"
          pointer-events="none"
        />
      </g>
    </g>
    <g
      id="4c4f17b7-3684-42df-34a1-374bedec557f_svg"
      class="tl-centered-g"
      transform="translate(37.44, 47.58) rotate(0.00, 17.05, 49.40)"
    >
      <g opacity="1">
        <path
          d="M16.14,2.14 Q14.82,3.43 13.54,4.65 T10.96,7.04 8.57,8.93 6.57,10.87 5.21,13.54 4.44,16.44 4.02,19.30 3.90,22.51 3.85,25.96 3.74,29.76 3.66,33.59 3.67,36.80 3.70,40.14 3.70,43.31 3.57,45.96 3.38,48.69 3.31,51.48 3.32,54.20 3.37,57.06 3.58,60.47 3.88,63.94 4.17,67.13 4.45,70.23 4.75,73.38 5.21,76.76 6.05,79.80 7.21,82.23 8.77,84.63 11.25,87.49 13.95,90.00 16.40,91.55 19.18,92.79 22.36,93.90 25.44,94.73 28.12,95.22 31.81,95.51 34.70,95.72 35.66,96.07 36.45,96.71 37.00,97.57 37.24,98.56 37.16,99.57 36.75,100.50 36.07,101.26 35.19,101.76 34.19,101.95 33.18,101.81 32.27,101.36 31.55,100.64 31.10,99.73 30.96,98.72 31.16,97.72 31.66,96.83 32.42,96.16 33.35,95.75 34.37,95.67 35.35,95.92 36.21,96.47 36.85,97.26 37.20,98.22 37.22,99.24 36.92,100.21 36.33,101.03 35.50,101.63 34.53,101.92 34.02,101.99 32.04,101.90 28.53,101.61 25.51,101.12 22.50,100.44 19.67,99.60 16.76,98.49 13.19,96.86 9.95,94.88 7.12,92.44 4.65,89.90 2.96,87.57 1.49,85.13 0.25,82.52 -0.59,79.79 -1.11,77.03 -1.51,73.91 -1.82,70.77 -2.09,67.80 -2.43,64.52 -2.86,60.85 -3.21,57.21 -3.32,53.63 -3.23,50.09 -2.98,46.98 -2.70,43.74 -2.55,40.14 -2.52,36.80 -2.51,33.59 -2.59,29.75 -2.68,25.93 -2.70,22.90 -2.58,19.80 -2.22,16.59 -1.56,13.33 -0.69,10.09 0.42,7.48 2.24,5.41 4.63,3.79 6.90,2.29 9.28,0.33 11.28,-1.49 12.23,-2.36 12.84,-2.73 13.53,-2.93 14.25,-2.97 14.95,-2.83 15.61,-2.53 16.17,-2.08 16.60,-1.52 16.89,-0.86 17.01,-0.15 16.96,0.56 16.74,1.25 16.37,1.86 Z"
          fill="#1d1d1d"
          stroke="#1d1d1d"
          stroke-width="1"
          stroke-linejoin="round"
          stroke-linecap="round"
          pointer-events="none"
        />
      </g>
    </g>
    <g
      id="e798c847-f50f-42a0-3d68-f0518fd03685_svg"
      class="tl-centered-g"
      transform="translate(133.93, 142.69) rotate(0.00, 11.11, 3.23)"
    >
      <g opacity="1">
        <path
          d="M23.75,2.57 Q22.33,3.42 20.93,4.35 T18.37,5.88 15.80,6.99 13.09,7.84 10.51,8.43 7.79,8.89 4.95,9.43 1.80,9.86 -0.52,9.90 -1.59,9.56 -2.49,8.89 -3.13,7.97 -3.45,6.89 -3.40,5.76 -3.00,4.72 -2.28,3.85 -1.33,3.26 -0.23,3.00 0.88,3.11 1.91,3.57 2.74,4.33 3.28,5.31 3.47,6.42 3.30,7.53 2.79,8.53 1.99,9.31 0.97,9.80 -0.14,9.94 -1.24,9.71 -2.21,9.14 -2.95,8.30 -3.38,7.26 -3.46,6.14 -3.17,5.05 -2.55,4.11 -1.67,3.42 -0.61,3.05 -0.05,2.95 1.50,2.85 4.49,2.50 7.48,2.01 10.37,1.58 12.98,1.04 15.50,0.24 18.02,-0.98 19.99,-2.15 21.03,-2.71 21.72,-2.92 22.43,-2.96 23.13,-2.82 23.78,-2.52 24.34,-2.08 24.78,-1.51 25.06,-0.86 25.19,-0.16 25.14,0.56 24.92,1.24 24.55,1.85 24.04,2.35 Z"
          fill="#1d1d1d"
          stroke="#1d1d1d"
          stroke-width="1"
          stroke-linejoin="round"
          stroke-linecap="round"
          pointer-events="none"
        />
      </g>
    </g>
    <g
      id="e5f21f44-069b-499b-2909-4260f2949fb0_svg"
      class="tl-centered-g"
      transform="translate(72.00, 145.84) rotate(0.00, 4.94, 0.62)"
    >
      <g opacity="1">
        <path
          d="M0.00,-3.00 Q1.75,-3.00 3.12,-2.90 T7.97,-2.15 11.85,-1.17 12.52,-0.41 12.91,0.52 12.98,1.53 12.72,2.51 12.17,3.35 11.38,3.97 10.42,4.31 9.41,4.33 8.45,4.02 7.64,3.42 7.06,2.59 6.78,1.62 6.81,0.62 7.17,-0.33 7.82,-1.11 8.67,-1.64 9.66,-1.87 10.66,-1.78 11.58,-1.37 12.33,-0.69 12.81,0.20 12.99,1.19 12.84,2.19 12.38,3.09 11.66,3.80 10.75,4.23 9.75,4.36 8.76,4.16 8.28,3.97 6.61,3.79 3.35,3.30 0.88,3.00 -0.36,2.96 -1.06,2.78 -1.69,2.45 -2.23,1.97 -2.64,1.38 -2.89,0.71 -2.98,-0.00 -2.89,-0.71 -2.64,-1.38 -2.23,-1.97 -1.69,-2.45 -1.06,-2.78 -0.36,-2.96 Z"
          fill="#1d1d1d"
          stroke="#1d1d1d"
          stroke-width="1"
          stroke-linejoin="round"
          stroke-linecap="round"
          pointer-events="none"
        />
      </g>
    </g>
    <g
      id="f586d084-6ff9-44df-0ad4-21e8b8bebd51_svg"
      class="tl-centered-g"
      transform="translate(70.04, 147.09) rotate(0.00, 8.30, 12.50)"
    >
      <g opacity="1">
        <path
          d="M17.61,2.82 Q16.27,3.32 14.92,4.11 T12.47,6.12 10.51,8.45 8.69,10.80 6.74,13.32 5.12,15.76 4.01,18.26 3.54,22.30 3.45,25.57 3.09,26.64 2.41,27.54 1.47,28.17 0.38,28.48 -0.75,28.42 -1.80,28.00 -2.67,27.26 -3.25,26.29 -3.49,25.19 -3.37,24.06 -2.90,23.04 -2.12,22.21 -1.12,21.68 0.00,21.50 1.12,21.68 2.12,22.21 2.90,23.04 3.37,24.06 3.49,25.19 3.25,26.30 2.67,27.27 1.80,28.00 0.75,28.42 -0.38,28.48 -1.47,28.17 -2.41,27.54 -3.09,26.64 -3.45,25.56 -3.55,25.00 -3.52,22.13 -3.16,17.83 -2.29,15.10 -1.02,12.55 0.50,10.19 2.23,7.96 4.19,5.55 6.23,3.21 8.21,1.27 10.32,-0.39 12.87,-1.75 14.92,-2.59 15.95,-2.90 16.66,-2.97 17.37,-2.87 18.03,-2.60 18.61,-2.19 19.08,-1.64 19.40,-1.00 19.56,-0.30 19.54,0.42 19.36,1.11 19.01,1.73 18.53,2.26 17.93,2.66 Z"
          fill="#1d1d1d"
          stroke="#1d1d1d"
          stroke-width="1"
          stroke-linejoin="round"
          stroke-linecap="round"
          pointer-events="none"
        />
      </g>
    </g>
    <g
      id="73a26274-ab1f-4f7c-2c75-1e5b4cedaf57_svg"
      class="tl-centered-g"
      transform="translate(134.18, 150.64) rotate(0.00, 13.10, 28.69)"
    >
      <g opacity="1">
        <path
          d="M1.02,-2.82 Q2.71,-2.21 3.96,-1.70 T6.48,-0.56 8.83,0.81 11.04,2.52 13.12,4.73 14.50,7.18 15.25,10.25 15.76,13.79 16.11,17.15 16.36,20.51 16.47,23.97 16.57,27.21 16.68,30.07 16.71,33.03 16.70,36.23 16.65,39.80 16.62,43.45 16.83,47.02 18.13,50.13 20.88,52.25 24.64,53.68 27.20,54.42 28.09,54.89 28.79,55.62 29.22,56.54 29.33,57.55 29.11,58.53 28.59,59.40 27.82,60.06 26.88,60.43 25.87,60.49 24.89,60.22 24.06,59.65 23.44,58.85 23.12,57.89 23.12,56.88 23.44,55.92 24.05,55.11 24.89,54.54 25.86,54.27 26.87,54.33 27.81,54.70 28.59,55.35 29.11,56.22 29.33,57.21 29.22,58.21 28.79,59.13 28.10,59.87 27.21,60.34 26.21,60.51 25.69,60.51 22.88,59.68 18.23,58.00 15.05,56.02 12.67,53.42 11.15,50.22 10.57,46.83 10.47,43.45 10.43,39.81 10.38,36.24 10.34,32.46 10.28,28.93 10.16,25.86 9.99,22.58 9.76,19.42 9.42,16.44 8.86,12.91 7.96,9.43 6.48,7.13 4.41,5.45 1.99,4.08 -0.18,3.12 -1.34,2.66 -1.94,2.26 -2.42,1.73 -2.77,1.10 -2.95,0.40 -2.96,-0.31 -2.80,-1.01 -2.48,-1.65 -2.01,-2.20 -1.42,-2.62 -0.76,-2.88 -0.05,-2.98 0.67,-2.90 Z"
          fill="#1d1d1d"
          stroke="#1d1d1d"
          stroke-width="1"
          stroke-linejoin="round"
          stroke-linecap="round"
          pointer-events="none"
        />
      </g>
    </g>
    <g
      id="77ccfb87-2284-4152-1f8f-4c14ed3f85d2_svg"
      class="tl-centered-g"
      transform="translate(70.52, 169.87) rotate(0.00, 0.50, 3.73)"
    >
      <g opacity="1">
        <path
          d="M3.00,0.00 Q3.03,1.24 3.09,2.84 T3.16,5.95 3.09,7.97 2.76,8.93 2.15,9.74 1.31,10.30 0.34,10.57 -0.67,10.52 -1.61,10.15 -2.38,9.49 -2.91,8.62 -3.12,7.63 -3.01,6.63 -2.59,5.71 -1.89,4.97 -1.00,4.50 0.00,4.34 1.00,4.50 1.89,4.97 2.59,5.71 3.01,6.63 3.12,7.63 2.91,8.62 2.38,9.49 1.61,10.15 0.67,10.52 -0.34,10.57 -1.31,10.30 -2.15,9.74 -2.76,8.93 -3.09,7.97 -3.17,7.46 -3.16,5.95 -3.09,2.84 -3.01,0.62 -2.95,-0.36 -2.78,-1.06 -2.45,-1.69 -1.97,-2.23 -1.38,-2.64 -0.71,-2.89 0.00,-2.98 0.71,-2.89 1.38,-2.64 1.97,-2.23 2.45,-1.69 2.78,-1.06 2.95,-0.36 Z"
          fill="#1d1d1d"
          stroke="#1d1d1d"
          stroke-width="1"
          stroke-linejoin="round"
          stroke-linecap="round"
          pointer-events="none"
        />
      </g>
    </g>
    <g
      id="f557278c-5b48-4384-38f0-5ff62f86a909_svg"
      class="tl-centered-g"
      transform="translate(16.00, 159.85) rotate(0.00, 28.36, 13.79)"
    >
      <g opacity="1">
        <path
          d="M56.72,23.00 Q55.13,23.01 53.82,22.96 T51.10,22.78 48.27,22.32 45.35,21.65 42.48,20.88 39.65,19.90 36.91,18.71 34.35,17.24 31.87,15.54 29.57,13.75 27.29,11.77 24.85,9.82 22.45,8.21 19.88,6.82 16.99,5.77 14.20,5.15 11.17,4.60 7.90,4.10 5.02,3.80 2.25,3.66 -1.01,2.27 -2.61,-0.38 -1.05,-2.51 1.67,-3.38 4.64,-3.27 8.21,-2.57 11.64,-1.34 14.40,0.17 16.71,1.99 18.66,4.10 20.31,6.29 21.87,8.45 23.56,10.76 25.22,13.11 26.90,15.34 28.70,17.49 30.75,19.50 33.01,21.28 35.43,22.62 38.35,23.49 41.32,23.93 44.04,24.02 46.75,24.04 50.48,23.87 53.45,23.79 54.53,24.14 55.44,24.82 56.08,25.75 56.39,26.84 56.34,27.97 55.93,29.03 55.20,29.90 54.24,30.49 53.13,30.74 52.00,30.63 50.97,30.16 50.14,29.39 49.61,28.39 49.41,27.27 49.59,26.15 50.11,25.15 50.93,24.36 51.95,23.88 53.08,23.75 54.19,23.98 55.16,24.56 55.90,25.42 56.33,26.47 56.40,27.60 56.10,28.69 55.48,29.63 54.58,30.33 53.51,30.70 52.94,30.79 51.41,30.91 48.14,31.07 44.92,31.12 42.05,31.09 39.25,30.89 36.19,30.34 33.11,29.44 30.27,28.06 27.85,26.38 25.75,24.65 23.50,22.40 21.45,19.96 19.79,17.75 18.21,15.51 16.62,13.32 15.07,11.07 13.50,8.84 11.73,6.82 9.26,5.12 6.43,4.02 3.85,2.73 2.85,-0.54 4.97,-2.75 8.63,-2.43 12.20,-2.04 15.46,-1.58 18.33,-1.03 21.05,-0.24 23.66,0.87 26.16,2.17 28.74,3.75 31.15,5.60 33.17,7.44 35.40,9.31 37.66,11.07 40.01,12.52 42.55,13.71 45.24,14.70 48.04,15.64 50.71,16.38 53.58,16.82 55.92,16.98 57.08,17.03 57.77,17.20 58.41,17.53 58.95,18.01 59.36,18.60 59.61,19.28 59.70,19.99 59.61,20.70 59.36,21.38 58.95,21.97 58.41,22.45 57.77,22.78 57.08,22.95 Z"
          fill="#1d1d1d"
          stroke="#1d1d1d"
          stroke-width="1"
          stroke-linejoin="round"
          stroke-linecap="round"
          pointer-events="none"
        />
      </g>
    </g>
    <g
      id="71755ae7-3d6a-4ed0-3ede-208aec5aefb1_svg"
      class="tl-centered-g"
      transform="translate(68.21, 187.56) rotate(0.00, 1.88, 14.16)"
    >
      <g opacity="1">
        <path
          d="M5.78,0.00 Q5.81,1.32 5.88,2.81 T6.07,5.66 6.41,8.40 6.83,11.08 7.09,13.80 7.17,16.80 7.09,19.88 6.62,22.81 4.57,27.27 2.47,30.72 1.58,31.38 0.52,31.73 -0.59,31.71 -1.64,31.35 -2.52,30.67 -3.13,29.74 -3.42,28.67 -3.35,27.56 -2.93,26.53 -2.20,25.69 -1.24,25.12 -0.15,24.89 0.95,25.03 1.96,25.50 2.76,26.27 3.27,27.26 3.44,28.36 3.25,29.46 2.72,30.43 1.90,31.19 0.89,31.65 -0.22,31.76 -1.30,31.51 -2.25,30.93 -2.96,30.07 -3.36,29.03 -3.41,27.92 -3.11,26.85 -2.86,26.35 -1.59,24.19 -0.00,20.57 0.32,17.76 0.35,14.92 0.23,12.10 -0.10,9.03 -0.32,5.80 -0.28,2.81 -0.20,0.66 -0.14,-0.36 0.03,-1.05 0.36,-1.68 0.83,-2.22 1.42,-2.62 2.09,-2.87 2.80,-2.96 3.51,-2.87 4.17,-2.62 4.76,-2.22 5.23,-1.68 5.57,-1.05 5.74,-0.36 Z"
          fill="#1d1d1d"
          stroke="#1d1d1d"
          stroke-width="1"
          stroke-linejoin="round"
          stroke-linecap="round"
          pointer-events="none"
        />
      </g>
    </g>
  </g>
</svg>
