<?xml version="1.0" encoding="utf-8"?>
<svg version="1.1" viewBox="0 0 414 414" id="svg2" xmlns="http://www.w3.org/2000/svg">
  <g id="g3157" transform="translate(-0.03124253,0.09375)">
    <path style="fill-opacity: 1; fill-rule: nonzero;  stroke-width: 5.50476; stroke-miterlimit: 4; stroke-opacity: 1; stroke-dasharray: none; stroke-dashoffset: 0; fill: none;" id="path3784" d="m 411.58408,207.11529 a 204.39317,204.40301 0 1 1 -408.786325,0 204.39317,204.40301 0 1 1 408.786325,0 z"/>
    <path style="fill-opacity:1;fill-rule:nonzero;stroke:#ff0000;stroke-width:0;stroke-miterlimit:4;stroke-opacity:1;stroke-dasharray:none;stroke-dashoffset:0" id="path2996" d="m 177.19838,127.16158 a 22.499931,60.714315 0.42666475 1 1 -44.99863,-0.33188 22.499931,60.714315 0.42666475 1 1 44.99863,0.33188 z"/>
    <path style="fill-opacity:1;fill-rule:nonzero;stroke:#ff0000;stroke-width:0;stroke-miterlimit:4;stroke-opacity:1;stroke-dasharray:none;stroke-dashoffset:0" id="path2996-2" d="m 288.9841,126.44729 a 22.499931,60.714315 0.42666475 1 1 -44.99863,-0.33188 22.499931,60.714315 0.42666475 1 1 44.99863,0.33188 z"/>
    <path style="fill:none;stroke-width:10.71558666;stroke-miterlimit:4;stroke-opacity:1;stroke-dasharray:none;stroke-dashoffset:0" id="path3898" d="M 352.69835,210.89185 A 143.83067,138.94077 0 0 1 65.118215,215.55994"/>
    <path id="path3081-0" d="m 57.915926,222.57384 c -0.3908,0 -1.5841,0.66069 -2.6518,1.4682 -3.182,2.40673 -8.1349,1.92877 -10.0331,-0.9682 -1.4838,-2.2646 -1.4926,-2.72189 -0.094,-4.85652 3.6414,-5.55741 17.9079,-9.312 29.26949,-7.70301 8.79424,1.24542 11.65006,4.62273 8.06025,9.5321 -1.04314,1.42656 -2.5043,1.81417 -6.32862,1.67883 l -4.97233,-0.176 z" style="fill-opacity:1"/>
    <path id="path3081-0-8" d="m 357.0207,220.9327 c 0.3908,0 1.5841,0.66069 2.6518,1.4682 3.182,2.40673 8.1349,1.92877 10.0331,-0.9682 1.4838,-2.2646 1.4926,-2.72189 0.094,-4.85652 -3.6414,-5.55741 -17.9079,-9.312 -29.26949,-7.70301 -8.79424,1.24542 -11.65006,4.62273 -8.06025,9.5321 1.04314,1.42656 2.5043,1.81417 6.32862,1.67883 l 4.97233,-0.176 z" style="fill-opacity:1"/>
  </g>
</svg>