<svg
  xmlns="http://www.w3.org/2000/svg"
  viewBox="0 0 185.01 221.95"
  style="background-color: transparent"
>
  <g>
    <g
      id="bcdbf756-5d82-42af-2fe9-1e61e1b3fa01_svg"
      class="tl-centered-g"
      transform="translate(16.00, 63.10) rotate(0.00, 47.08, 41.80)"
    >
      <g opacity="1">
        <path
          d="M-1.62,61.56 Q-1.76,59.59 -1.96,57.96 T-2.34,54.83 -2.64,51.92 -2.88,48.80 -3.06,45.60 -3.19,42.66 -3.27,39.81 -3.14,36.68 -2.65,33.07 -1.99,29.82 -1.24,27.20 0.03,24.16 1.71,21.21 3.37,18.97 5.26,16.71 7.56,14.20 9.97,11.75 12.22,9.69 14.81,7.56 17.60,5.49 20.43,3.73 23.45,2.10 26.44,0.69 29.97,-0.58 33.29,-1.59 36.27,-2.26 39.58,-2.73 43.21,-2.97 47.02,-3.03 50.45,-3.03 53.45,-2.89 56.25,-2.50 59.39,-1.73 62.42,-0.75 65.29,0.42 68.25,1.80 71.05,3.25 73.90,5.03 76.64,7.24 79.22,9.70 81.41,12.01 83.66,14.68 85.89,17.60 87.97,21.05 90.10,25.61 91.48,29.28 92.51,33.01 93.56,37.62 94.34,41.79 95.03,45.51 95.61,49.22 96.09,53.09 96.53,56.96 96.83,61.14 96.94,65.28 97.01,68.95 97.08,71.98 97.12,74.63 96.89,77.33 96.08,80.19 94.86,82.83 93.34,83.45 92.20,83.18 91.63,83.70 90.94,84.06 90.19,84.25 89.41,84.25 88.66,84.07 87.97,83.71 87.39,83.20 86.95,82.56 86.67,81.84 86.57,81.07 86.67,80.30 86.94,79.58 86.83,80.17 86.63,80.59 86.95,79.60 87.56,78.77 88.41,78.18 89.40,77.89 90.43,77.93 91.40,78.30 92.20,78.96 92.74,79.84 92.98,80.84 92.88,81.87 92.46,82.82 91.76,83.58 90.85,84.08 89.83,84.26 88.81,84.10 87.89,83.63 87.17,82.89 86.72,81.96 86.60,80.93 86.80,79.92 87.33,79.02 88.11,78.34 89.06,77.95 90.09,77.88 91.09,78.14 91.96,78.71 92.59,79.52 92.65,81.44 92.20,83.18 91.63,83.70 90.94,84.06 90.19,84.25 89.41,84.25 88.66,84.07 87.97,83.71 87.39,83.20 86.95,82.56 86.67,81.84 86.57,81.07 86.67,80.30 86.94,79.58 88.24,79.26 90.11,77.81 91.03,74.83 91.24,72.00 91.29,68.99 91.28,65.39 91.18,61.50 90.87,57.57 90.45,53.79 90.01,50.04 89.51,46.47 88.93,42.86 88.18,38.83 87.12,34.62 85.57,30.28 83.63,26.26 81.56,22.93 79.72,20.39 77.71,17.94 75.28,15.29 72.96,12.98 70.46,10.83 67.87,9.06 65.37,7.69 62.71,6.36 59.73,5.11 56.67,4.05 53.51,3.37 50.38,3.10 47.13,3.11 43.60,3.23 40.38,3.48 37.55,3.87 34.94,4.43 32.06,5.32 29.09,6.47 26.44,7.74 23.85,9.17 21.38,10.76 18.80,12.66 15.97,14.98 13.47,17.37 11.30,19.82 9.06,22.57 7.06,25.23 5.65,27.80 4.66,30.75 4.00,33.64 3.57,36.27 3.32,38.94 3.26,41.58 3.26,44.37 3.30,47.47 3.40,50.91 3.60,54.16 3.92,57.36 4.20,60.12 4.27,61.46 4.15,62.16 3.87,62.81 3.44,63.37 2.89,63.82 2.25,64.12 1.56,64.26 0.85,64.23 0.17,64.03 -0.45,63.68 -0.95,63.18 -1.33,62.58 -1.55,61.91 Z"
          fill="#1d1d1d"
          stroke="#1d1d1d"
          stroke-width="1"
          stroke-linejoin="round"
          stroke-linecap="round"
          pointer-events="none"
        />
      </g>
    </g>
    <g
      id="a88da415-7c2b-4b3b-08d6-836665e12918_svg"
      class="tl-centered-g"
      transform="translate(17.08, 126.82) rotate(0.00, 49.52, 7.25)"
    >
      <g opacity="1">
        <path
          d="M0.00,-1.92 Q3.00,-1.94 4.81,-1.88 T8.42,-1.78 12.04,-1.70 15.75,-1.58 19.52,-1.34 23.26,-0.98 26.96,-0.51 30.56,-0.02 34.07,0.53 37.52,1.14 40.87,1.77 44.18,2.46 47.90,3.42 51.91,4.62 55.68,5.74 59.21,6.74 62.61,7.67 65.86,8.53 68.92,9.24 71.74,9.80 75.49,10.31 79.98,10.78 83.94,11.13 87.63,11.37 90.83,11.41 93.81,11.33 96.93,11.34 98.09,10.69 98.07,10.08 98.72,10.36 99.29,10.79 99.75,11.34 100.05,11.98 100.20,12.68 100.17,13.39 99.97,14.07 99.62,14.69 99.12,15.21 98.52,15.59 97.85,15.82 97.14,15.87 95.73,15.14 94.51,13.97 94.31,13.04 94.43,12.10 94.84,11.24 95.50,10.56 96.35,10.12 97.29,9.98 98.23,10.15 99.06,10.60 99.70,11.30 100.09,12.17 100.18,13.12 99.96,14.04 99.46,14.85 98.73,15.46 97.84,15.80 96.89,15.84 95.98,15.57 95.20,15.03 94.64,14.26 94.34,13.36 94.36,12.41 94.67,11.51 95.26,10.76 96.05,10.24 96.97,9.99 97.92,10.06 98.80,10.42 98.47,10.33 98.07,10.08 98.72,10.36 99.29,10.78 99.75,11.34 100.05,11.98 100.20,12.68 100.17,13.39 99.97,14.07 99.62,14.69 99.12,15.21 98.52,15.59 97.85,15.82 97.14,15.87 97.00,16.56 95.78,17.06 92.52,16.72 88.99,16.44 85.32,15.98 81.44,15.29 77.23,14.46 73.63,13.70 70.98,13.05 68.12,12.26 65.06,11.36 61.83,10.38 58.46,9.36 54.95,8.34 51.18,7.34 47.18,6.40 43.50,5.56 40.26,4.82 36.97,4.13 33.59,3.48 30.16,2.91 26.61,2.43 23.00,2.03 19.38,1.76 15.71,1.66 12.04,1.70 8.42,1.78 4.81,1.88 1.50,1.93 -0.23,1.89 -0.67,1.78 -1.08,1.57 -1.42,1.26 -1.68,0.88 -1.85,0.46 -1.90,-0.00 -1.85,-0.46 -1.68,-0.88 -1.42,-1.26 -1.08,-1.57 -0.67,-1.78 -0.23,-1.89 Z"
          fill="#1d1d1d"
          stroke="#1d1d1d"
          stroke-width="1"
          stroke-linejoin="round"
          stroke-linecap="round"
          pointer-events="none"
        />
      </g>
    </g>
    <g
      id="f1d26ec9-4426-4cbc-0f0f-d2c0b12b820e_svg"
      class="tl-centered-g"
      transform="translate(65.35, 57.68) rotate(0.00, 37.84, 1.55)"
    >
      <g opacity="1">
        <path
          d="M0.00,0.21 Q2.23,0.24 4.27,0.25 T8.12,0.25 11.52,0.21 14.46,0.15 17.32,0.10 20.72,-0.00 24.50,-0.30 27.85,-0.62 30.75,-0.82 33.99,-0.97 37.64,-1.10 41.39,-1.26 45.39,-1.41 49.34,-1.59 52.93,-1.77 56.06,-1.92 59.33,-2.06 62.92,-2.33 66.18,-2.76 69.24,-3.08 73.21,-3.25 76.19,-3.24 77.19,-2.90 78.04,-2.27 78.64,-1.40 78.93,-0.38 78.88,0.68 78.50,1.67 77.82,2.48 76.91,3.03 75.88,3.27 74.83,3.16 73.86,2.72 73.09,2.00 72.58,1.07 72.41,0.02 72.57,-1.02 73.06,-1.96 73.82,-2.70 74.78,-3.15 75.83,-3.27 76.87,-3.05 77.78,-2.51 78.47,-1.71 78.87,-0.73 78.94,0.33 78.66,1.35 78.07,2.23 77.23,2.88 76.23,3.23 75.70,3.32 73.77,3.36 70.54,3.42 67.88,3.54 64.97,3.83 61.74,4.03 58.22,4.05 54.79,4.08 51.39,4.23 47.62,4.46 43.66,4.73 39.80,4.98 36.00,5.21 32.53,5.41 29.03,5.61 25.66,5.86 22.93,6.07 20.21,6.13 17.32,6.12 14.46,6.07 11.52,6.01 8.12,5.97 4.27,5.97 1.11,5.99 -0.35,5.97 -1.02,5.80 -1.64,5.48 -2.16,5.02 -2.55,4.45 -2.80,3.80 -2.88,3.11 -2.80,2.42 -2.55,1.77 -2.16,1.20 -1.64,0.74 -1.02,0.42 -0.35,0.25 Z"
          fill="#1d1d1d"
          stroke="#1d1d1d"
          stroke-width="1"
          stroke-linejoin="round"
          stroke-linecap="round"
          pointer-events="none"
        />
      </g>
    </g>
    <g
      id="2ceffa35-0572-4a11-3706-70557cb4b8a5_svg"
      class="tl-centered-g"
      transform="translate(145.16, 59.17) rotate(0.00, 10.65, 27.23)"
    >
      <g opacity="1">
        <path
          d="M1.65,-2.51 Q2.90,-1.71 4.23,-0.77 T6.67,1.15 8.91,3.28 11.05,5.57 13.06,8.26 14.68,11.00 15.88,13.53 16.97,16.21 17.91,18.85 18.74,21.50 19.47,24.24 20.14,26.96 20.83,29.92 21.55,32.98 22.15,36.06 22.59,39.31 22.98,42.56 23.44,45.92 23.93,48.95 24.41,51.76 24.36,52.20 24.03,51.51 23.94,52.32 23.65,53.07 23.20,53.73 22.59,54.27 21.88,54.64 21.10,54.84 20.29,54.84 19.51,54.65 18.79,54.27 18.19,53.74 17.73,53.08 17.44,52.32 17.34,51.63 17.44,50.80 17.84,49.80 18.54,48.99 19.46,48.43 20.51,48.20 21.58,48.32 22.56,48.77 23.34,49.51 23.84,50.46 24.01,51.52 23.84,52.58 23.33,53.53 22.55,54.27 21.58,54.72 20.51,54.84 19.46,54.61 18.54,54.05 17.84,53.23 17.44,52.23 17.39,51.16 17.67,50.12 18.28,49.23 19.14,48.58 20.16,48.24 21.23,48.24 22.25,48.58 23.11,49.24 23.71,50.13 23.98,50.87 24.03,51.51 23.94,52.31 23.65,53.07 23.20,53.73 22.59,54.27 21.88,54.64 21.10,54.84 20.29,54.84 19.51,54.65 18.79,54.27 18.19,53.74 17.73,53.08 17.44,52.33 17.50,52.55 17.42,51.83 16.97,49.11 16.47,46.03 16.03,42.87 15.74,40.09 15.37,37.36 14.80,34.45 14.07,31.43 13.37,28.53 12.62,25.51 11.71,22.24 10.67,19.08 9.46,15.99 8.05,13.07 6.49,10.56 4.79,8.43 2.94,6.38 0.78,4.34 -1.03,2.92 -1.93,2.28 -2.41,1.75 -2.76,1.12 -2.95,0.43 -2.97,-0.29 -2.81,-0.99 -2.49,-1.64 -2.03,-2.19 -1.44,-2.61 -0.78,-2.88 -0.07,-2.98 0.65,-2.91 1.32,-2.67 Z"
          fill="#1d1d1d"
          stroke="#1d1d1d"
          stroke-width="1"
          stroke-linejoin="round"
          stroke-linecap="round"
          pointer-events="none"
        />
      </g>
    </g>
    <g
      id="767a393d-9364-4815-1f06-b311b7c77ebe_svg"
      class="tl-centered-g"
      transform="translate(111.66, 116.19) rotate(0.00, 28.68, 11.32)"
    >
      <g opacity="1">
        <path
          d="M0.00,19.91 Q2.18,19.92 3.90,19.62 T7.68,18.73 11.69,17.42 15.85,15.86 19.78,14.18 23.01,12.46 26.22,10.57 29.52,8.59 32.55,6.80 35.59,5.21 38.63,3.83 41.36,2.73 44.00,1.72 46.69,0.57 49.31,-0.77 51.83,-1.92 54.73,-2.87 56.78,-3.38 57.60,-3.34 58.39,-3.11 59.09,-2.70 59.68,-2.12 60.11,-1.43 60.36,-0.65 60.42,0.16 60.28,0.97 59.95,1.72 59.46,2.37 58.82,2.88 58.08,3.23 56.32,3.03 54.57,2.30 53.96,1.40 53.67,0.34 53.74,-0.75 54.15,-1.76 54.86,-2.58 55.80,-3.14 56.87,-3.37 57.95,-3.24 58.94,-2.78 59.73,-2.02 60.23,-1.06 60.40,0.02 60.22,1.10 59.70,2.06 58.91,2.80 57.91,3.26 56.83,3.37 55.76,3.13 54.83,2.56 54.13,1.72 53.73,0.70 53.68,-0.39 53.98,-1.44 54.60,-2.34 55.47,-2.99 56.51,-3.33 57.60,-3.33 57.26,-3.29 56.78,-3.38 57.60,-3.34 58.39,-3.11 59.09,-2.70 59.68,-2.12 60.11,-1.43 60.36,-0.65 60.42,0.16 60.28,0.97 59.95,1.72 59.46,2.37 58.82,2.88 58.08,3.23 55.71,3.91 52.49,5.04 50.02,6.11 47.22,7.13 43.92,8.20 40.82,9.29 38.07,10.44 35.33,11.76 32.30,13.45 28.99,15.36 25.62,17.24 21.97,19.07 17.80,20.86 13.45,22.54 9.03,24.02 4.46,25.05 1.09,25.38 -0.33,25.35 -0.96,25.19 -1.54,24.89 -2.03,24.45 -2.41,23.91 -2.64,23.30 -2.72,22.65 -2.64,22.00 -2.41,21.39 -2.03,20.85 -1.54,20.41 -0.96,20.11 -0.33,19.95 Z"
          fill="#1d1d1d"
          stroke="#1d1d1d"
          stroke-width="1"
          stroke-linejoin="round"
          stroke-linecap="round"
          pointer-events="none"
        />
      </g>
    </g>
    <g
      id="fd5cb78b-62a5-435e-3821-a48a596dc6fb_svg"
      class="tl-centered-g"
      transform="translate(79.59, 138.50) rotate(0.00, 2.67, 30.35)"
    >
      <g opacity="1">
        <path
          d="M1.95,0.00 Q1.99,2.86 2.01,4.29 T2.06,7.18 2.18,10.35 2.36,13.96 2.63,17.72 2.96,21.44 3.29,25.06 3.61,28.78 3.96,32.44 4.37,35.66 4.75,38.65 5.11,41.51 5.45,44.18 5.92,47.72 6.56,51.71 7.16,54.81 7.65,57.97 7.86,60.09 7.79,60.70 7.58,61.27 7.23,61.77 6.78,62.18 6.24,62.47 5.65,62.62 5.04,62.62 4.45,62.48 3.91,62.20 3.45,61.80 3.10,61.30 2.88,60.73 2.91,59.74 3.25,58.71 3.80,58.12 4.52,57.73 5.32,57.60 6.12,57.73 6.84,58.11 7.40,58.69 7.75,59.43 7.84,60.24 7.67,61.03 7.25,61.73 6.63,62.26 5.88,62.56 5.07,62.61 4.28,62.39 3.61,61.94 3.11,61.29 2.85,60.52 2.85,59.71 3.11,58.94 3.60,58.29 4.27,57.83 5.05,57.61 5.86,57.66 6.62,57.95 7.24,58.48 7.66,59.17 7.84,59.97 7.86,60.08 7.86,60.09 7.79,60.70 7.58,61.27 7.23,61.77 6.78,62.18 6.24,62.47 5.65,62.62 5.04,62.62 4.45,62.48 3.91,62.20 3.45,61.80 3.10,61.30 2.88,60.73 2.59,58.01 2.25,53.94 2.04,50.29 1.83,45.75 1.63,41.82 1.48,38.96 1.29,35.98 1.03,32.74 0.62,29.09 0.19,25.38 -0.22,21.79 -0.72,18.09 -1.27,14.29 -1.76,10.54 -1.99,7.23 -2.01,4.29 -1.97,1.43 -1.92,-0.23 -1.81,-0.69 -1.59,-1.10 -1.29,-1.45 -0.90,-1.72 -0.46,-1.88 0.00,-1.94 0.46,-1.88 0.90,-1.72 1.29,-1.45 1.60,-1.10 1.81,-0.69 1.92,-0.23 Z"
          fill="#1d1d1d"
          stroke="#1d1d1d"
          stroke-width="1"
          stroke-linejoin="round"
          stroke-linecap="round"
          pointer-events="none"
        />
      </g>
    </g>
    <g
      id="a2941a78-9994-4f51-3df7-f14f15d3746f_svg"
      class="tl-centered-g"
      transform="translate(114.06, 144.25) rotate(0.00, 0.79, 30.85)"
    >
      <g opacity="1">
        <path
          d="M2.22,0.00 Q2.11,3.32 2.11,4.76 T2.13,7.58 2.18,11.51 2.22,15.48 2.18,18.45 2.06,21.85 1.87,25.62 1.71,29.45 1.67,33.11 1.76,36.49 1.94,39.51 2.14,42.41 2.44,46.24 2.83,50.56 3.22,54.18 3.62,57.20 3.95,59.50 4.06,60.73 3.97,61.36 3.72,61.95 3.34,62.47 2.85,62.88 2.28,63.16 1.65,63.29 1.01,63.27 0.40,63.10 -0.16,62.79 -0.63,62.35 -0.97,61.81 -1.18,61.21 -1.25,60.60 -1.12,59.89 -0.74,59.13 -0.14,58.52 0.62,58.13 1.46,58.01 2.30,58.17 3.05,58.58 3.62,59.21 3.96,60.00 4.04,60.85 3.84,61.67 3.39,62.40 2.72,62.94 1.93,63.24 1.07,63.27 0.26,63.02 -0.44,62.53 -0.94,61.84 -1.20,61.02 -1.18,60.17 -0.90,59.37 -0.37,58.70 0.35,58.23 1.18,58.02 2.03,58.09 2.81,58.42 3.45,58.98 3.88,59.72 4.05,60.27 4.06,60.73 3.97,61.36 3.72,61.95 3.34,62.47 2.85,62.88 2.28,63.16 1.65,63.29 1.01,63.27 0.40,63.10 -0.16,62.79 -0.63,62.35 -0.97,61.81 -1.18,61.21 -1.31,59.98 -1.42,57.66 -1.49,54.46 -1.49,50.68 -1.43,46.37 -1.44,42.55 -1.48,39.63 -1.52,36.57 -1.60,33.14 -1.71,29.45 -1.87,25.62 -2.06,21.85 -2.18,18.45 -2.22,15.48 -2.18,11.51 -2.13,7.58 -2.11,4.76 -2.16,1.66 -2.19,-0.27 -2.06,-0.78 -1.81,-1.25 -1.46,-1.65 -1.02,-1.95 -0.53,-2.14 0.00,-2.20 0.53,-2.14 1.02,-1.95 1.46,-1.65 1.81,-1.25 2.06,-0.78 2.19,-0.27 Z"
          fill="#1d1d1d"
          stroke="#1d1d1d"
          stroke-width="1"
          stroke-linejoin="round"
          stroke-linecap="round"
          pointer-events="none"
        />
      </g>
    </g>
    <g
      id="e2479fc1-6c35-4e76-3188-0f335b8b7060_svg"
      class="tl-centered-g"
      transform="translate(39.98, 68.44) rotate(0.00, 22.16, 27.45)"
    >
      <g opacity="1">
        <path
          d="M-2.90,54.90 Q-2.90,52.97 -2.91,51.23 T-2.95,47.95 -2.98,44.75 -2.97,41.18 -2.97,37.60 -3.00,34.47 -2.89,31.32 -2.52,28.00 -1.80,24.44 -0.38,20.30 1.24,16.94 2.65,14.68 4.21,12.54 6.73,9.67 10.23,6.27 14.13,3.28 18.40,0.76 22.92,-1.06 26.83,-1.94 29.77,-2.19 33.30,-2.37 37.41,-2.25 40.79,-1.65 44.11,-0.28 46.32,1.03 46.85,1.77 47.11,2.64 47.08,3.55 46.77,4.40 46.20,5.10 45.43,5.59 44.55,5.81 43.65,5.73 42.81,5.37 42.14,4.76 41.69,3.97 41.53,3.08 41.65,2.18 42.06,1.37 42.70,0.73 43.51,0.33 44.41,0.21 45.30,0.38 46.09,0.83 46.70,1.51 47.05,2.34 47.13,3.25 46.90,4.13 46.41,4.89 45.70,5.46 44.85,5.77 43.94,5.79 43.08,5.52 42.67,5.31 41.45,4.65 38.61,3.46 35.29,2.81 31.31,2.83 26.82,3.40 22.76,4.55 19.06,6.42 15.52,8.86 12.33,11.66 9.46,14.89 7.00,18.58 5.22,22.33 4.14,25.77 3.53,28.85 3.16,31.64 3.00,34.47 2.97,37.60 2.97,41.18 2.98,44.75 2.95,47.95 2.91,51.23 2.90,53.93 2.86,55.25 2.69,55.92 2.37,56.54 1.91,57.05 1.34,57.45 0.69,57.69 -0.00,57.78 -0.69,57.69 -1.34,57.45 -1.91,57.05 -2.37,56.53 -2.69,55.92 -2.86,55.25 Z"
          fill="#1d1d1d"
          stroke="#1d1d1d"
          stroke-width="1"
          stroke-linejoin="round"
          stroke-linecap="round"
          pointer-events="none"
        />
      </g>
    </g>
    <g
      id="ca707636-87b8-4cdd-181e-e1a8d9f455a9_svg"
      class="tl-centered-g"
      transform="translate(84.31, 71.45) rotate(0.00, 1.99, 33.37)"
    >
      <g opacity="1">
        <path
          d="M2.71,0.00 Q2.71,2.13 2.74,3.91 T2.94,7.34 3.34,11.23 3.70,14.88 3.97,17.65 4.25,20.50 4.50,23.55 4.71,26.81 4.90,30.24 5.11,33.69 5.33,37.05 5.52,40.20 5.68,43.20 5.80,46.24 5.87,49.32 5.90,52.39 6.02,56.19 6.24,59.88 6.32,63.70 6.25,66.41 6.10,67.02 5.81,67.57 5.40,68.04 4.89,68.39 4.30,68.62 3.68,68.69 3.06,68.62 2.48,68.40 1.96,68.04 1.55,67.57 1.26,67.02 1.11,66.41 1.13,65.72 1.37,64.96 1.86,64.28 2.53,63.79 3.33,63.55 4.16,63.57 4.95,63.86 5.60,64.38 6.05,65.08 6.25,65.89 6.18,66.72 5.85,67.49 5.30,68.11 4.57,68.52 3.75,68.68 2.93,68.56 2.18,68.19 1.59,67.60 1.22,66.86 1.10,66.03 1.26,65.21 1.67,64.49 2.29,63.93 3.06,63.60 3.89,63.53 4.70,63.73 5.40,64.18 5.92,64.83 6.21,65.61 6.29,66.06 6.25,66.41 6.10,67.02 5.81,67.57 5.40,68.04 4.89,68.39 4.30,68.62 3.68,68.69 3.06,68.62 2.48,68.40 1.96,68.04 1.55,67.57 1.26,67.02 1.11,66.41 1.32,63.71 1.69,59.90 1.88,56.22 1.95,52.43 1.92,49.40 1.86,46.39 1.76,43.39 1.64,40.44 1.45,37.38 1.09,34.07 0.64,30.65 0.17,27.29 -0.29,24.11 -0.73,21.15 -1.19,18.32 -1.63,15.57 -2.18,11.88 -2.65,7.62 -2.74,3.91 -2.71,1.06 -2.67,-0.32 -2.51,-0.95 -2.21,-1.53 -1.78,-2.01 -1.25,-2.38 -0.64,-2.61 0.00,-2.69 0.64,-2.61 1.25,-2.38 1.78,-2.01 2.21,-1.53 2.51,-0.95 2.67,-0.32 Z"
          fill="#1d1d1d"
          stroke="#1d1d1d"
          stroke-width="1"
          stroke-linejoin="round"
          stroke-linecap="round"
          pointer-events="none"
        />
      </g>
    </g>
    <g
      id="e48b8ba0-a028-430c-0770-e948bf7d18e4_svg"
      class="tl-centered-g"
      transform="translate(42.20, 100.18) rotate(0.00, 3.22, 0.50)"
    >
      <g opacity="1">
        <path
          d="M0.00,-2.98 Q1.52,-2.99 4.06,-3.00 T7.08,-2.91 7.99,-2.55 8.75,-1.91 9.25,-1.07 9.47,-0.12 9.37,0.86 8.96,1.75 8.29,2.47 7.42,2.93 6.45,3.09 5.48,2.94 4.61,2.48 3.93,1.77 3.52,0.88 3.41,-0.09 3.62,-1.05 4.12,-1.90 4.87,-2.53 5.78,-2.90 6.76,-2.96 7.70,-2.70 8.52,-2.15 9.12,-1.37 9.43,-0.44 9.44,0.54 9.13,1.47 8.53,2.26 7.72,2.81 6.78,3.08 6.28,3.13 3.90,3.06 0.76,2.98 -0.36,2.93 -1.05,2.76 -1.68,2.43 -2.21,1.96 -2.62,1.37 -2.87,0.71 -2.95,-0.00 -2.87,-0.71 -2.62,-1.37 -2.21,-1.96 -1.68,-2.43 -1.05,-2.76 -0.36,-2.93 Z"
          fill="#1d1d1d"
          stroke="#1d1d1d"
          stroke-width="1"
          stroke-linejoin="round"
          stroke-linecap="round"
          pointer-events="none"
        />
      </g>
    </g>
    <g
      id="3eed752a-dafc-4e79-14b0-a79b7d5e6e20_svg"
      class="tl-centered-g"
      transform="translate(117.94, 21.26) rotate(0.00, 0.50, 16.84)"
    >
      <g opacity="1">
        <path
          d="M-2.80,33.67 Q-2.81,31.75 -2.78,29.45 T-2.76,25.13 -2.78,21.10 -2.79,17.06 -2.82,13.30 -2.88,10.18 -2.97,7.30 -3.02,4.50 -2.87,1.46 -2.61,-0.76 -2.21,-1.68 -1.53,-2.42 -0.66,-2.91 0.33,-3.10 1.32,-2.96 2.22,-2.51 2.92,-1.80 3.37,-0.90 3.50,0.09 3.31,1.08 2.81,1.95 2.06,2.62 1.14,3.01 0.14,3.09 -0.83,2.84 -1.68,2.30 -2.30,1.52 -2.65,0.57 -2.67,-0.43 -2.37,-1.39 -1.78,-2.20 -0.97,-2.78 -0.01,-3.07 1.00,-3.04 1.94,-2.69 2.71,-2.06 3.25,-1.21 3.49,-0.24 3.53,0.27 3.28,3.04 2.97,7.30 2.88,10.18 2.82,13.30 2.79,17.06 2.78,21.10 2.76,25.13 2.78,29.45 2.81,32.71 2.76,34.01 2.60,34.66 2.29,35.25 1.84,35.75 1.29,36.13 0.67,36.37 -0.00,36.45 -0.67,36.37 -1.29,36.13 -1.85,35.75 -2.29,35.25 -2.60,34.66 -2.76,34.01 Z"
          fill="#1d1d1d"
          stroke="#1d1d1d"
          stroke-width="1"
          stroke-linejoin="round"
          stroke-linecap="round"
          pointer-events="none"
        />
      </g>
    </g>
    <g
      id="bba1ff56-85d0-4419-1202-15573df9cea5_svg"
      class="tl-centered-g"
      transform="translate(118.33, 16.00) rotate(0.00, 23.80, 18.66)"
    >
      <g opacity="1">
        <path
          d="M0.00,3.10 Q3.02,3.13 4.54,3.15 T7.69,3.16 10.92,3.08 14.52,2.89 18.28,2.57 21.63,2.04 24.66,1.40 27.43,0.74 31.13,-0.22 35.95,-1.27 40.40,-1.96 43.80,-2.36 47.13,-2.01 49.68,-0.18 50.42,2.55 50.09,5.65 48.76,8.57 46.96,10.73 44.30,12.85 41.35,14.67 38.67,15.95 35.34,17.33 31.61,18.66 28.06,19.69 24.76,20.43 21.63,20.94 18.28,21.29 15.17,21.51 12.17,21.47 11.90,20.05 13.58,20.03 13.96,23.45 14.17,26.98 14.36,30.04 14.49,33.04 14.53,34.98 14.49,35.97 14.30,36.76 13.92,37.49 13.39,38.10 12.72,38.56 11.96,38.85 11.15,38.95 10.35,38.86 9.58,38.57 8.91,38.11 8.37,37.51 7.99,36.79 7.79,36.00 7.83,35.04 8.18,34.01 8.83,33.15 9.73,32.54 10.78,32.25 11.86,32.30 12.87,32.71 13.70,33.41 14.26,34.34 14.49,35.40 14.37,36.48 13.92,37.46 13.17,38.25 12.21,38.76 11.14,38.93 10.07,38.76 9.11,38.25 8.36,37.46 7.91,36.48 7.79,35.40 8.02,34.34 8.58,33.41 9.41,32.71 10.42,32.30 11.50,32.25 12.55,32.54 13.45,33.15 14.10,34.01 14.45,35.04 14.54,35.57 14.49,35.97 14.30,36.76 13.92,37.49 13.39,38.10 12.72,38.56 11.96,38.85 11.15,38.95 10.35,38.86 9.58,38.57 8.91,38.11 8.37,37.51 7.99,36.79 7.79,36.00 7.74,35.34 7.73,33.53 7.66,30.44 7.46,27.45 7.15,23.92 6.89,20.19 7.52,17.06 9.93,15.10 12.96,14.83 15.76,15.06 18.95,14.95 22.09,14.62 25.02,14.06 27.94,13.28 31.09,12.18 34.38,10.78 37.58,9.27 40.77,7.40 43.25,5.40 45.16,3.56 44.46,2.58 40.83,2.60 36.62,2.93 31.93,3.60 28.17,4.26 25.32,4.77 22.17,5.33 18.69,5.93 14.85,6.55 11.12,7.05 7.74,7.28 4.54,7.37 1.51,7.40 -0.26,7.39 -0.76,7.26 -1.22,7.02 -1.61,6.68 -1.90,6.26 -2.08,5.77 -2.14,5.26 -2.08,4.75 -1.90,4.26 -1.60,3.84 -1.22,3.50 -0.76,3.26 -0.26,3.13 Z"
          fill="#1d1d1d"
          stroke="#1d1d1d"
          stroke-width="1"
          stroke-linejoin="round"
          stroke-linecap="round"
          pointer-events="none"
        />
      </g>
    </g>
  </g>
</svg>
