<svg
  xmlns="http://www.w3.org/2000/svg"
  viewBox="0 0 482 259"
  style="background-color: transparent"
>
  <g>
    <g
      id="1e699ad5-3f80-48b7-1d0f-effca3cf6e1e_svg"
      class="tl-centered-g"
      transform="translate(35.76, 59.28) rotate(0.00, 18.14, 30.34)"
    >
      <g opacity="1">
        <path
          d="M17.59,2.94 Q15.74,3.09 14.07,3.67 T10.80,4.97 7.93,6.46 5.16,8.47 3.51,11.30 4.88,14.48 8.31,17.23 11.51,18.99 15.05,20.53 19.71,22.54 23.31,24.20 26.73,25.87 30.14,27.72 33.11,29.96 35.63,32.54 37.29,36.05 38.35,39.83 38.58,42.59 38.66,45.37 38.38,48.41 37.54,51.52 36.33,54.31 34.66,56.88 31.83,59.14 28.23,60.74 24.80,61.64 21.60,62.15 16.34,61.95 12.36,61.33 11.88,60.77 11.61,60.10 11.56,59.37 11.76,58.66 12.16,58.06 12.74,57.61 13.43,57.37 14.16,57.37 14.86,57.60 15.44,58.04 15.85,58.64 16.05,59.34 16.02,60.07 15.75,60.75 15.28,61.31 14.66,61.69 13.94,61.85 13.22,61.78 12.55,61.48 12.02,60.98 11.67,60.33 11.55,59.61 11.67,58.89 12.01,58.24 12.53,57.74 13.20,57.43 13.92,57.34 14.64,57.50 14.98,57.63 17.27,57.92 20.95,58.05 23.70,57.61 27.57,56.16 31.27,53.15 33.08,49.10 33.52,44.36 33.06,39.96 32.04,36.59 30.02,33.88 26.65,31.47 22.32,29.26 18.81,27.74 15.40,26.34 11.94,24.99 9.27,23.98 6.49,22.84 3.87,21.50 1.43,19.81 -0.72,17.77 -2.32,15.15 -3.09,11.86 -2.64,8.45 -1.13,5.77 0.89,3.93 3.43,2.07 6.95,0.11 10.23,-1.32 13.37,-2.31 16.20,-2.87 17.48,-2.93 18.18,-2.82 18.83,-2.54 19.39,-2.11 19.84,-1.56 20.14,-0.93 20.28,-0.23 20.25,0.47 20.06,1.15 19.70,1.76 19.21,2.27 18.61,2.65 17.94,2.87 Z"
          fill="#1d1d1d"
          stroke="#1d1d1d"
          stroke-width="1"
          stroke-linejoin="round"
          stroke-linecap="round"
          pointer-events="none"
        />
      </g>
    </g>
    <g
      id="c125deac-9ca6-4a03-08b7-156900c1629e_svg"
      class="tl-centered-g"
      transform="translate(83.51, 57.96) rotate(0.00, 12.59, 29.63)"
    >
      <g opacity="1">
        <path
          d="M2.96,0.00 Q2.93,2.07 2.94,3.78 T3.00,7.36 3.06,10.61 3.11,13.81 3.16,17.55 3.19,20.83 3.19,23.61 3.35,26.65 3.68,30.43 4.20,34.12 4.94,37.15 5.90,40.02 7.12,43.16 8.41,46.25 9.66,49.26 11.38,52.12 14.01,54.32 16.72,54.08 18.69,51.34 19.91,48.04 20.67,43.69 21.26,38.69 21.71,34.42 22.05,30.95 22.22,27.84 22.26,24.38 22.28,20.64 22.25,17.26 22.18,14.12 22.09,10.46 22.06,6.63 22.06,2.68 22.13,-0.06 22.45,-1.01 23.05,-1.81 23.88,-2.37 24.85,-2.63 25.84,-2.58 26.77,-2.21 27.54,-1.56 28.05,-0.70 28.27,0.27 28.16,1.27 27.74,2.18 27.05,2.90 26.17,3.37 25.18,3.53 24.19,3.37 23.31,2.90 22.62,2.18 22.20,1.27 22.09,0.27 22.31,-0.71 22.82,-1.56 23.59,-2.21 24.52,-2.58 25.52,-2.63 26.48,-2.37 27.31,-1.80 27.91,-1.01 28.23,-0.06 28.31,0.44 28.30,2.68 28.30,6.63 28.30,10.00 28.22,12.99 28.13,15.83 28.08,18.99 28.04,22.46 27.99,26.21 27.82,29.90 27.44,33.34 26.96,37.09 26.57,41.71 26.38,45.70 25.86,49.58 24.51,54.00 22.77,57.41 20.60,60.38 17.25,62.00 13.69,61.37 10.77,59.75 7.67,57.62 5.29,54.69 4.06,51.60 2.84,48.62 1.48,45.36 0.17,42.02 -0.91,38.69 -1.78,35.00 -2.46,31.01 -2.96,27.01 -3.19,23.61 -3.19,20.83 -3.16,17.55 -3.11,13.81 -3.06,10.61 -3.00,7.36 -2.94,3.78 -2.95,1.04 -2.92,-0.35 -2.75,-1.04 -2.42,-1.67 -1.95,-2.20 -1.37,-2.60 -0.70,-2.85 0.00,-2.94 0.70,-2.85 1.37,-2.60 1.95,-2.20 2.42,-1.67 2.75,-1.04 2.92,-0.35 Z"
          fill="#1d1d1d"
          stroke="#1d1d1d"
          stroke-width="1"
          stroke-linejoin="round"
          stroke-linecap="round"
          pointer-events="none"
        />
      </g>
    </g>
    <g
      id="e8588bf8-022d-4181-2bd2-bbb2d187f0a2_svg"
      class="tl-centered-g"
      transform="translate(119.83, 44.76) rotate(0.00, 17.38, 34.91)"
    >
      <g opacity="1">
        <path
          d="M0.48,69.83 Q0.55,67.28 0.53,65.28 T0.50,61.34 0.47,57.45 0.58,53.07 0.89,49.19 1.29,45.27 1.72,40.75 2.11,36.71 2.46,32.69 2.68,28.73 2.71,24.95 2.83,20.74 3.11,16.46 3.60,12.82 4.63,9.23 6.78,5.42 9.67,2.07 13.25,-0.39 16.71,-1.78 20.13,-2.36 23.78,-2.74 27.13,-2.60 30.38,-1.58 32.91,0.23 34.71,3.09 35.59,6.94 34.91,11.94 33.51,16.14 32.08,18.73 29.82,22.03 26.63,25.73 23.25,28.83 20.58,31.27 18.28,30.63 18.60,29.06 22.36,30.00 26.56,31.94 29.98,34.32 32.47,36.85 34.35,39.70 35.84,43.58 36.87,47.69 37.43,51.10 37.61,54.32 37.11,57.22 35.15,60.69 32.73,63.90 30.83,65.89 28.70,67.70 25.12,69.71 21.30,71.06 18.34,71.34 15.19,71.39 12.07,71.38 9.09,71.36 6.30,71.36 2.49,71.47 -0.38,71.49 -1.13,71.25 -1.76,70.77 -2.21,70.12 -2.42,69.36 -2.38,68.58 -2.09,67.84 -1.58,67.24 -0.91,66.83 -0.14,66.66 0.64,66.74 1.36,67.07 1.93,67.61 2.31,68.30 2.44,69.08 2.31,69.86 1.94,70.56 1.37,71.10 0.66,71.43 -0.12,71.52 -0.89,71.36 -1.57,70.95 -2.08,70.35 -2.38,69.62 -2.42,68.84 -2.21,68.08 -1.77,67.42 -1.15,66.94 -0.40,66.69 -0.01,66.62 2.47,66.69 6.25,66.75 9.01,66.71 11.94,66.59 14.93,66.40 18.77,66.00 22.66,65.01 25.85,62.81 28.84,59.44 30.87,56.42 31.54,53.61 31.33,50.49 30.63,47.18 29.63,43.99 28.19,41.22 26.27,38.85 23.80,37.09 20.59,35.68 17.02,34.65 14.57,31.82 15.53,28.27 18.38,26.06 21.27,23.60 24.25,20.64 26.79,17.18 28.77,12.93 29.51,9.13 28.96,5.95 27.01,3.62 24.16,3.01 21.06,3.24 17.71,3.91 14.90,5.23 12.59,7.24 10.70,9.80 9.50,12.44 8.85,15.25 8.45,18.83 8.25,22.92 8.19,26.94 8.00,31.01 7.66,35.15 7.20,39.23 6.69,43.45 6.36,46.93 6.23,49.63 6.10,53.26 6.05,57.45 6.02,61.34 5.99,65.28 6.00,68.55 6.00,70.16 5.84,70.81 5.53,71.40 5.09,71.89 4.54,72.27 3.92,72.51 3.26,72.59 2.60,72.51 1.98,72.27 1.43,71.89 0.99,71.40 0.68,70.81 0.52,70.16 Z"
          fill="#1d1d1d"
          stroke="#1d1d1d"
          stroke-width="1"
          stroke-linejoin="round"
          stroke-linecap="round"
          pointer-events="none"
        />
      </g>
    </g>
    <g
      id="43ace99b-04dd-4212-39c8-de81422493ff_svg"
      class="tl-centered-g"
      transform="translate(170.64, 51.73) rotate(0.00, 8.47, 31.33)"
    >
      <g opacity="1">
        <path
          d="M15.18,3.14 Q13.03,3.46 11.34,4.23 T8.49,6.18 6.44,8.72 4.74,11.52 3.60,14.42 3.28,17.62 3.92,20.55 5.38,22.92 7.20,25.28 9.20,27.57 11.23,29.83 13.23,32.12 15.20,34.76 17.02,37.79 18.50,40.65 19.53,43.66 19.98,47.04 20.05,50.65 19.72,54.62 18.48,58.51 16.18,61.67 13.28,63.90 9.72,65.30 7.17,65.78 6.17,65.59 5.29,65.10 4.62,64.34 4.22,63.41 4.13,62.41 4.38,61.42 4.92,60.57 5.71,59.94 6.66,59.59 7.67,59.56 8.64,59.86 9.46,60.45 10.05,61.27 10.35,62.24 10.32,63.25 9.97,64.20 9.34,64.99 8.49,65.53 7.50,65.78 6.50,65.69 5.57,65.29 4.81,64.62 4.32,63.74 4.13,62.74 4.26,61.74 4.71,60.84 5.43,60.12 6.33,59.67 6.82,59.52 7.96,59.31 10.38,58.31 12.53,56.37 13.61,53.92 13.77,50.77 13.66,47.55 13.29,44.86 12.29,42.23 10.92,39.72 9.37,37.40 7.52,35.14 5.56,32.90 3.49,30.52 1.21,27.81 -0.76,25.05 -2.24,21.81 -2.97,18.20 -2.80,15.01 -2.08,11.93 -0.59,8.61 1.43,5.19 4.08,2.01 6.89,-0.20 10.09,-1.59 13.14,-2.48 14.56,-2.69 15.26,-2.64 15.93,-2.42 16.53,-2.05 17.02,-1.54 17.38,-0.93 17.58,-0.25 17.61,0.45 17.47,1.14 17.17,1.78 16.73,2.33 16.16,2.76 15.52,3.04 Z"
          fill="#1d1d1d"
          stroke="#1d1d1d"
          stroke-width="1"
          stroke-linejoin="round"
          stroke-linecap="round"
          pointer-events="none"
        />
      </g>
    </g>
    <g
      id="b27673d4-ab8d-4dd4-3f86-cdc63ab6a815_svg"
      class="tl-centered-g"
      transform="translate(203.09, 54.06) rotate(0.00, 13.69, 29.63)"
    >
      <g opacity="1">
        <path
          d="M23.13,2.89 Q20.53,2.80 18.57,2.81 T15.20,2.91 12.31,3.67 9.67,5.27 7.37,7.36 5.37,10.06 3.98,13.41 3.29,17.44 3.07,21.58 3.01,25.31 2.98,29.07 2.93,33.12 3.02,37.10 3.52,40.56 4.51,43.74 5.85,46.58 7.37,48.94 9.43,51.35 12.21,53.50 15.05,55.06 17.95,55.88 21.19,56.01 23.99,55.55 25.51,54.81 26.39,54.34 27.37,54.18 28.35,54.34 29.23,54.81 29.91,55.53 30.33,56.43 30.43,57.42 30.22,58.39 29.71,59.24 28.95,59.88 28.03,60.25 27.04,60.30 26.08,60.03 25.26,59.48 24.66,58.69 24.34,57.75 24.34,56.75 24.66,55.81 25.26,55.02 26.08,54.46 27.04,54.20 28.03,54.25 28.95,54.62 29.71,55.26 30.22,56.12 30.43,57.09 30.33,58.07 29.91,58.97 29.63,59.39 27.43,60.55 23.18,61.99 19.21,62.19 15.35,61.65 12.19,60.53 9.40,58.99 6.62,57.01 4.24,54.57 2.30,51.99 0.64,49.16 -0.93,45.66 -2.08,41.81 -2.71,37.54 -2.93,33.12 -2.97,29.06 -2.98,25.26 -2.96,21.46 -2.87,17.43 -2.42,13.70 -1.53,10.56 -0.15,7.57 1.94,4.57 4.66,1.75 7.94,-0.68 11.47,-2.24 14.91,-2.77 18.57,-2.81 21.83,-2.84 23.48,-2.85 24.15,-2.68 24.76,-2.36 25.28,-1.90 25.67,-1.33 25.91,-0.69 26.00,0.00 25.91,0.69 25.67,1.33 25.28,1.90 24.76,2.36 24.15,2.68 23.48,2.85 Z"
          fill="#1d1d1d"
          stroke="#1d1d1d"
          stroke-width="1"
          stroke-linejoin="round"
          stroke-linecap="round"
          pointer-events="none"
        />
      </g>
    </g>
    <g
      id="729aba09-5d90-4810-0fc6-b4d0779cfaf8_svg"
      class="tl-centered-g"
      transform="translate(244.31, 47.95) rotate(0.00, 14.87, 32.82)"
    >
      <g opacity="1">
        <path
          d="M-2.92,63.04 Q-2.92,61.13 -2.92,59.32 T-2.95,56.05 -2.99,52.98 -3.01,49.64 -3.01,46.27 -3.03,43.05 -3.06,40.05 -3.10,36.81 -3.17,33.48 -3.20,30.66 -3.23,27.70 -3.27,24.44 -3.29,21.10 -3.31,17.68 -3.24,14.31 -2.82,10.93 -1.81,7.58 -0.58,4.72 1.47,2.18 4.36,-0.03 7.04,-1.60 9.86,-2.71 12.98,-3.24 16.08,-3.40 19.31,-2.95 22.53,-1.32 25.15,1.32 26.98,4.16 28.09,7.37 28.53,11.06 28.38,14.85 27.03,18.88 23.94,22.80 20.88,25.41 18.59,26.92 15.37,28.76 12.05,30.64 10.69,29.94 11.89,29.53 14.50,31.70 16.99,33.93 19.25,36.29 21.27,38.84 23.27,41.82 24.98,44.75 26.20,47.31 27.32,49.84 28.43,52.54 29.54,55.38 30.78,58.51 32.21,62.48 33.01,65.26 32.96,66.32 32.57,67.31 31.89,68.13 30.98,68.69 29.95,68.92 28.89,68.82 27.92,68.38 27.14,67.65 26.63,66.72 26.45,65.67 26.61,64.62 27.10,63.67 27.87,62.93 28.83,62.48 29.89,62.35 30.93,62.57 31.85,63.11 32.55,63.92 32.95,64.91 33.01,65.97 32.74,67.00 32.15,67.88 31.31,68.53 30.30,68.88 29.23,68.89 28.22,68.56 27.37,67.92 26.76,67.05 26.53,66.56 25.80,64.41 24.65,60.74 23.66,57.98 22.52,55.15 21.41,52.32 20.31,49.79 19.01,47.08 17.30,44.09 15.10,41.02 12.79,38.45 10.48,36.38 7.81,34.08 5.84,30.87 6.54,27.73 9.25,25.71 12.53,23.87 16.18,21.42 19.29,18.76 21.31,16.03 22.02,13.01 21.83,9.97 20.85,7.02 18.82,4.50 16.20,3.44 13.30,3.53 10.58,4.25 8.01,5.69 5.72,7.87 4.20,10.98 3.48,14.36 3.31,17.68 3.29,21.10 3.27,24.44 3.23,27.70 3.20,30.66 3.17,33.48 3.10,36.81 3.06,40.05 3.03,43.05 3.01,46.27 3.01,49.64 2.99,52.98 2.95,56.05 2.92,59.32 2.92,62.09 2.88,63.39 2.71,64.07 2.39,64.69 1.92,65.21 1.35,65.61 0.69,65.85 -0.00,65.94 -0.69,65.85 -1.35,65.61 -1.92,65.21 -2.39,64.69 -2.71,64.07 -2.88,63.39 Z"
          fill="#1d1d1d"
          stroke="#1d1d1d"
          stroke-width="1"
          stroke-linejoin="round"
          stroke-linecap="round"
          pointer-events="none"
        />
      </g>
    </g>
    <g
      id="b605b316-918c-4dea-1de5-e98d6116cf71_svg"
      class="tl-centered-g"
      transform="translate(287.90, 48.01) rotate(0.00, 2.92, 34.80)"
    >
      <g opacity="1">
        <path
          d="M2.66,0.00 Q2.67,2.09 2.72,3.73 T2.76,7.44 2.69,12.12 2.57,16.23 2.66,20.46 2.94,24.49 3.45,28.17 4.20,32.67 4.97,36.99 5.74,41.27 6.50,45.41 7.18,49.74 7.74,54.43 8.09,58.19 8.28,61.65 8.47,66.69 8.48,70.03 8.21,70.85 7.69,71.54 6.98,72.03 6.15,72.26 5.28,72.22 4.48,71.91 3.81,71.35 3.36,70.61 3.17,69.77 3.26,68.91 3.62,68.12 4.21,67.49 4.97,67.08 5.82,66.94 6.68,67.07 7.44,67.47 8.04,68.10 8.41,68.88 8.51,69.74 8.33,70.58 7.89,71.33 7.23,71.89 6.43,72.22 5.57,72.27 4.73,72.04 4.01,71.56 3.49,70.88 3.21,70.06 3.13,69.63 3.13,67.61 3.14,63.78 3.01,59.73 2.54,54.97 1.94,50.43 1.35,46.29 0.68,42.11 0.01,37.80 -0.64,33.42 -1.28,28.80 -1.78,24.97 -2.12,22.08 -2.41,19.15 -2.57,16.23 -2.69,12.12 -2.76,7.44 -2.72,3.73 -2.66,1.05 -2.62,-0.32 -2.47,-0.93 -2.17,-1.50 -1.75,-1.97 -1.23,-2.33 -0.63,-2.56 0.00,-2.64 0.63,-2.56 1.23,-2.33 1.75,-1.97 2.17,-1.50 2.47,-0.93 2.62,-0.32 Z"
          fill="#1d1d1d"
          stroke="#1d1d1d"
          stroke-width="1"
          stroke-linejoin="round"
          stroke-linecap="round"
          pointer-events="none"
        />
      </g>
    </g>
    <g
      id="6896c849-865d-4408-053a-7fd6cc1650e1_svg"
      class="tl-centered-g"
      transform="translate(307.59, 49.86) rotate(0.00, 13.93, 33.72)"
    >
      <g opacity="1">
        <path
          d="M-2.55,63.30 Q-2.57,61.11 -2.59,58.98 T-2.65,55.07 -2.64,50.73 -2.52,46.61 -2.35,43.28 -1.97,39.65 -1.46,36.18 -1.04,33.16 -0.68,29.59 -0.50,25.53 -0.55,22.00 -0.65,18.63 -0.71,14.87 -0.81,10.93 -1.01,7.15 -1.21,3.53 -0.62,0.04 1.84,-2.32 5.41,-3.00 8.87,-3.04 12.00,-2.99 14.99,-2.43 18.03,-0.81 20.66,1.67 22.89,4.85 24.26,8.10 24.58,11.15 23.77,15.19 20.90,19.89 17.62,23.13 15.33,24.92 12.56,27.11 9.64,29.65 8.65,29.28 10.74,29.08 14.31,31.55 17.57,33.75 20.47,35.70 23.07,37.68 25.30,39.79 27.13,41.84 29.01,44.45 30.44,47.41 30.95,50.77 31.06,54.25 30.47,57.66 28.76,61.19 26.09,64.14 22.67,66.42 18.63,68.18 13.69,69.41 9.60,69.93 5.06,70.07 1.41,70.09 0.58,69.84 -0.12,69.33 -0.63,68.63 -0.88,67.80 -0.86,66.93 -0.56,66.12 -0.02,65.45 0.71,64.98 1.55,64.77 2.42,64.84 3.21,65.18 3.86,65.76 4.28,66.52 4.45,67.37 4.33,68.23 3.94,69.00 3.33,69.62 2.56,70.00 1.70,70.12 0.85,69.95 0.09,69.53 -0.49,68.88 -0.83,68.09 -0.90,67.22 -0.69,66.38 -0.22,65.65 0.45,65.11 1.27,64.81 1.70,64.73 4.79,64.58 10.18,64.14 14.42,63.17 17.93,61.76 20.69,60.27 22.88,58.31 24.25,55.66 24.57,52.83 24.35,49.90 23.29,47.04 21.35,44.46 18.78,41.85 15.84,39.55 12.74,37.49 9.22,35.18 5.98,32.87 4.34,29.52 5.15,26.26 7.61,24.22 10.90,21.54 13.78,18.99 16.01,16.41 17.70,13.07 17.76,9.58 16.40,6.43 14.35,4.28 11.93,3.28 8.93,3.08 5.92,2.41 4.50,3.42 4.49,6.85 4.61,10.72 4.66,14.88 4.58,18.67 4.41,22.10 4.14,25.82 3.59,30.09 3.01,33.70 2.63,36.66 2.35,39.88 2.35,43.29 2.52,46.61 2.64,50.73 2.65,55.07 2.59,58.98 2.56,62.20 2.51,63.60 2.36,64.20 2.08,64.74 1.68,65.19 1.17,65.54 0.60,65.75 -0.00,65.83 -0.60,65.75 -1.17,65.54 -1.68,65.19 -2.08,64.74 -2.36,64.20 -2.51,63.60 Z"
          fill="#1d1d1d"
          stroke="#1d1d1d"
          stroke-width="1"
          stroke-linejoin="round"
          stroke-linecap="round"
          pointer-events="none"
        />
      </g>
    </g>
    <g
      id="aee89c2a-452b-43be-2ea3-97031c403bf0_svg"
      class="tl-centered-g"
      transform="translate(344.15, 48.35) rotate(0.00, 14.05, 33.53)"
    >
      <g opacity="1">
        <path
          d="M19.45,2.90 Q16.87,2.82 14.59,2.79 T10.95,2.81 7.89,2.93 4.46,3.06 2.94,4.55 3.03,7.55 2.83,10.61 2.68,13.57 2.57,16.47 2.51,19.22 2.48,21.87 2.54,25.59 2.81,29.95 3.25,33.65 3.79,37.10 4.41,40.42 5.07,43.79 5.67,46.97 6.33,49.67 7.21,52.67 8.26,56.04 9.20,59.13 11.42,61.05 14.88,61.87 18.12,62.36 21.18,62.71 25.78,63.38 29.43,64.14 30.29,64.71 30.93,65.53 31.28,66.51 31.29,67.55 30.97,68.54 30.35,69.38 29.49,69.97 28.49,70.26 27.45,70.22 26.48,69.84 25.68,69.18 25.14,68.29 24.90,67.28 25.00,66.25 25.43,65.30 26.13,64.53 27.05,64.03 28.07,63.85 29.10,64.01 30.03,64.49 30.75,65.23 31.20,66.17 31.32,67.21 31.11,68.23 30.58,69.12 29.80,69.81 28.84,70.20 27.80,70.27 27.27,70.22 25.82,69.90 22.55,69.27 19.10,68.83 15.59,68.49 11.79,67.90 8.08,66.90 5.20,65.40 3.65,62.97 2.87,59.99 2.09,56.80 1.25,53.55 0.56,50.79 0.04,48.13 -0.45,44.95 -1.03,41.43 -1.57,37.76 -1.95,34.12 -2.19,30.38 -2.37,25.76 -2.48,21.87 -2.51,19.22 -2.57,16.47 -2.68,13.56 -2.82,10.60 -3.03,6.55 -3.03,1.79 -1.99,-1.45 0.82,-2.79 4.46,-3.06 7.89,-2.93 10.95,-2.81 14.59,-2.79 18.16,-2.86 19.80,-2.86 20.47,-2.70 21.09,-2.37 21.61,-1.91 22.00,-1.34 22.25,-0.69 22.33,0.00 22.25,0.69 22.00,1.34 21.61,1.91 21.09,2.37 20.47,2.70 19.80,2.86 Z"
          fill="#1d1d1d"
          stroke="#1d1d1d"
          stroke-width="1"
          stroke-linejoin="round"
          stroke-linecap="round"
          pointer-events="none"
        />
      </g>
    </g>
    <g
      id="709baba7-eb09-43ec-366b-33218c59c0c2_svg"
      class="tl-centered-g"
      transform="translate(347.22, 77.21) rotate(0.00, 8.11, 1.24)"
    >
      <g opacity="1">
        <path
          d="M0.00,-2.90 Q2.79,-2.78 4.99,-2.57 T9.10,-2.13 12.47,-1.65 15.81,-0.83 18.09,0.05 18.76,0.78 19.17,1.68 19.28,2.66 19.06,3.63 18.54,4.47 17.78,5.11 16.86,5.47 15.87,5.52 14.92,5.25 14.10,4.69 13.51,3.90 13.20,2.96 13.20,1.97 13.52,1.03 14.13,0.25 14.95,-0.31 15.91,-0.57 16.89,-0.51 17.81,-0.13 18.56,0.51 19.07,1.36 19.28,2.33 19.17,3.32 18.74,4.21 18.06,4.93 17.18,5.39 16.20,5.54 15.23,5.38 14.75,5.21 13.61,4.89 10.85,4.05 7.86,3.35 4.65,2.97 1.39,2.84 -0.35,2.86 -1.02,2.69 -1.64,2.37 -2.16,1.91 -2.55,1.34 -2.80,0.69 -2.88,-0.00 -2.80,-0.69 -2.55,-1.34 -2.16,-1.91 -1.64,-2.37 -1.02,-2.69 -0.35,-2.86 Z"
          fill="#1d1d1d"
          stroke="#1d1d1d"
          stroke-width="1"
          stroke-linejoin="round"
          stroke-linecap="round"
          pointer-events="none"
        />
      </g>
    </g>
    <g
      id="6ca4c617-6c7f-4d96-3e64-68b2bbea84c0_svg"
      class="tl-centered-g"
      transform="translate(392.39, 92.98) rotate(0.00, 10.95, 27.39)"
    >
      <g opacity="1">
        <path
          d="M-0.90,41.34 Q-0.91,39.60 -0.91,37.85 T-1.00,34.46 -1.28,31.34 -1.68,28.48 -2.05,25.58 -2.36,22.64 -2.71,19.79 -3.04,16.75 -3.20,13.68 -3.21,10.25 -2.82,6.02 -2.14,2.45 -0.74,-0.17 1.99,-1.99 5.09,-2.75 7.97,-3.15 10.82,-2.92 13.58,-1.33 15.92,0.94 17.69,3.19 19.10,6.33 20.04,9.76 20.66,13.18 21.20,16.76 21.81,20.26 22.44,23.83 22.98,27.53 23.37,31.21 23.65,34.88 23.86,39.42 24.14,44.29 24.45,48.74 24.65,52.78 24.66,55.17 24.39,56.04 23.86,56.77 23.12,57.30 22.25,57.56 21.35,57.53 20.50,57.21 19.79,56.64 19.31,55.87 19.10,54.99 19.17,54.09 19.54,53.26 20.15,52.59 20.94,52.14 21.83,51.98 22.73,52.11 23.54,52.51 24.17,53.16 24.57,53.97 24.69,54.87 24.52,55.76 24.06,56.55 23.39,57.15 22.55,57.50 21.65,57.57 20.77,57.35 20.01,56.86 19.44,56.15 19.14,55.29 19.05,54.84 19.00,52.16 18.68,47.14 18.15,42.31 17.62,37.59 17.16,33.62 16.69,29.75 16.21,26.01 15.69,22.54 15.17,19.31 14.61,16.16 13.91,12.82 13.11,9.53 11.90,6.65 10.25,4.41 7.87,3.42 4.98,4.28 3.37,6.67 3.22,10.24 3.23,13.57 3.24,16.33 3.45,19.08 3.76,21.99 4.05,25.06 4.35,27.93 4.66,30.78 4.91,34.18 4.99,37.85 4.98,40.47 4.94,41.69 4.77,42.37 4.44,43.00 3.97,43.52 3.40,43.92 2.74,44.17 2.04,44.26 1.34,44.17 0.68,43.92 0.11,43.52 -0.36,43.00 -0.69,42.37 -0.86,41.69 Z"
          fill="#1d1d1d"
          stroke="#1d1d1d"
          stroke-width="1"
          stroke-linejoin="round"
          stroke-linecap="round"
          pointer-events="none"
        />
      </g>
    </g>
    <g
      id="25a3768d-6163-435f-116e-8ac03153013d_svg"
      class="tl-centered-g"
      transform="translate(414.28, 143.13) rotate(0.00, 21.14, 8.90)"
    >
      <g opacity="1">
        <path
          d="M-1.44,2.04 Q0.41,1.05 1.78,0.30 T4.42,-1.07 7.24,-2.18 10.86,-2.80 14.50,-1.46 16.74,1.28 18.08,3.83 19.39,6.56 20.70,9.46 19.99,10.41 20.22,8.49 23.02,6.09 25.41,4.17 29.13,3.47 32.94,5.02 35.28,7.43 37.69,7.99 41.20,7.77 44.17,9.71 45.35,14.40 45.67,17.98 45.44,19.05 44.88,19.99 44.05,20.71 43.03,21.11 41.94,21.18 40.88,20.89 39.97,20.28 39.30,19.41 38.95,18.37 38.95,17.27 39.29,16.23 39.95,15.36 40.86,14.74 41.91,14.44 43.01,14.50 44.03,14.90 44.86,15.61 45.43,16.55 45.67,17.62 45.56,18.71 45.10,19.70 44.35,20.50 43.38,21.02 42.30,21.20 41.22,21.02 40.25,20.51 39.49,19.72 39.03,18.73 38.88,18.19 38.56,15.04 39.88,12.87 39.99,14.58 37.01,15.48 34.18,14.95 31.78,13.22 30.25,10.61 28.54,9.98 26.10,12.06 23.60,14.34 20.29,15.87 16.97,15.23 15.13,12.97 14.01,10.52 12.85,8.03 11.69,5.05 9.89,3.61 7.28,4.36 4.59,5.51 2.34,6.72 1.10,7.37 0.42,7.56 -0.29,7.57 -0.99,7.42 -1.62,7.10 -2.16,6.64 -2.58,6.07 -2.85,5.41 -2.95,4.70 -2.88,4.00 -2.64,3.33 -2.25,2.73 -1.73,2.25 Z"
          fill="#1d1d1d"
          stroke="#1d1d1d"
          stroke-width="1"
          stroke-linejoin="round"
          stroke-linecap="round"
          pointer-events="none"
        />
      </g>
    </g>
    <g
      id="55f29d2e-fb2e-420c-1382-69e74fe2bb6b_svg"
      class="tl-centered-g"
      transform="translate(385.59, 130.12) rotate(0.00, 4.63, 42.52)"
    >
      <g opacity="1">
        <path
          d="M11.47,0.00 Q11.31,2.98 11.28,4.31 T11.28,7.51 11.36,10.85 11.59,14.25 11.99,17.79 12.29,21.11 12.41,24.24 12.26,27.14 11.36,30.14 9.84,32.92 7.90,35.92 6.01,39.06 4.58,42.15 3.68,45.16 3.34,48.17 3.18,51.60 3.12,55.00 3.17,58.30 3.51,62.13 3.97,66.12 4.33,69.64 4.75,72.94 5.34,75.81 5.96,78.43 6.95,82.09 7.67,84.85 7.60,85.63 7.29,86.35 6.77,86.93 6.09,87.31 5.32,87.45 4.55,87.35 3.85,87.00 3.30,86.44 2.95,85.74 2.85,84.97 3.00,84.20 3.38,83.52 3.97,83.00 4.68,82.70 5.46,82.63 6.22,82.82 6.88,83.25 7.36,83.86 7.63,84.59 7.65,85.37 7.42,86.12 6.96,86.75 6.33,87.21 5.58,87.43 4.80,87.41 4.07,87.14 3.46,86.65 3.04,85.99 2.88,85.62 2.52,84.09 1.72,80.41 0.92,76.83 0.14,73.78 -0.64,70.50 -1.47,67.18 -2.24,64.15 -2.82,60.60 -3.09,56.68 -3.08,53.27 -3.05,49.60 -2.86,45.61 -2.25,42.13 -1.23,39.13 0.05,36.49 1.47,34.16 2.91,31.81 4.56,29.16 5.80,26.22 6.12,23.32 6.15,20.32 6.02,17.13 5.85,13.91 5.86,10.85 5.94,7.51 5.94,4.31 5.83,1.49 5.80,-0.34 5.96,-1.01 6.28,-1.61 6.73,-2.12 7.29,-2.51 7.93,-2.75 8.61,-2.84 9.29,-2.75 9.93,-2.51 10.49,-2.12 10.94,-1.61 11.26,-1.01 11.42,-0.34 Z"
          fill="#1d1d1d"
          stroke="#1d1d1d"
          stroke-width="1"
          stroke-linejoin="round"
          stroke-linecap="round"
          pointer-events="none"
        />
      </g>
    </g>
    <g
      id="ff890049-e961-462c-2fda-5d055e4decb5_svg"
      class="tl-centered-g"
      transform="translate(458.80, 161.34) rotate(0.00, 3.72, 24.65)"
    >
      <g opacity="1">
        <path
          d="M2.95,-0.39 Q3.19,1.81 3.50,3.24 T4.28,6.40 5.21,9.35 6.12,11.87 7.09,14.66 8.20,17.98 9.06,21.25 9.55,24.10 9.97,27.16 10.33,30.14 10.57,32.90 10.65,35.74 10.66,38.68 10.66,41.60 10.61,44.83 10.18,48.42 9.59,50.68 8.99,51.54 8.15,52.17 7.16,52.50 6.11,52.49 5.12,52.15 4.29,51.51 3.71,50.64 3.44,49.63 3.50,48.58 3.90,47.61 4.58,46.82 5.49,46.28 6.51,46.07 7.55,46.19 8.50,46.63 9.25,47.36 9.74,48.29 9.90,49.33 9.72,50.36 9.22,51.28 8.46,51.99 7.50,52.43 6.46,52.53 5.44,52.30 4.54,51.75 3.87,50.95 3.49,49.97 3.44,48.92 3.51,48.40 3.79,47.11 4.15,44.42 4.21,41.61 4.20,38.71 4.17,35.86 4.06,32.75 3.79,29.58 3.25,26.03 2.54,22.08 1.64,18.66 0.67,15.79 -0.14,13.14 -0.97,10.19 -1.71,7.25 -2.31,4.24 -2.78,1.48 -2.95,0.03 -2.87,-0.67 -2.63,-1.34 -2.23,-1.93 -1.70,-2.41 -1.08,-2.75 -0.39,-2.93 0.32,-2.93 1.02,-2.77 1.65,-2.45 2.19,-1.98 2.60,-1.40 2.86,-0.74 Z"
          fill="#1d1d1d"
          stroke="#1d1d1d"
          stroke-width="1"
          stroke-linejoin="round"
          stroke-linecap="round"
          pointer-events="none"
        />
      </g>
    </g>
    <g
      id="59d2d33b-915c-4995-01cd-24829a128bc6_svg"
      class="tl-centered-g"
      transform="translate(453.42, 208.62) rotate(0.00, 5.80, 11.48)"
    >
      <g opacity="1">
        <path
          d="M14.52,0.83 Q14.09,2.79 13.61,4.29 T12.40,7.46 10.93,10.37 9.15,13.14 7.29,15.98 5.78,18.48 4.09,21.90 2.83,24.57 2.17,25.39 1.29,25.96 0.26,26.21 -0.78,26.13 -1.75,25.71 -2.54,25.01 -3.05,24.09 -3.25,23.06 -3.11,22.02 -2.64,21.07 -1.90,20.33 -0.95,19.86 0.09,19.72 1.12,19.92 2.04,20.43 2.74,21.22 3.16,22.19 3.24,23.23 2.99,24.26 2.42,25.14 1.60,25.80 0.61,26.17 -0.44,26.19 -1.45,25.88 -2.30,25.27 -2.91,24.41 -3.22,23.41 -3.19,22.36 -3.09,21.83 -2.30,19.92 -0.69,16.48 0.95,13.72 2.71,11.26 4.64,8.65 6.36,5.98 7.70,3.13 8.50,0.59 8.81,-0.73 9.12,-1.38 9.57,-1.92 10.15,-2.35 10.80,-2.63 11.51,-2.74 12.22,-2.67 12.89,-2.44 13.49,-2.06 13.98,-1.54 14.34,-0.92 14.53,-0.24 14.56,0.48 Z"
          fill="#1d1d1d"
          stroke="#1d1d1d"
          stroke-width="1"
          stroke-linejoin="round"
          stroke-linecap="round"
          pointer-events="none"
        />
      </g>
    </g>
    <g
      id="0adba5cf-6fc4-4e38-08bf-b5efa098b2c9_svg"
      class="tl-centered-g"
      transform="translate(390.52, 214.51) rotate(0.00, 32.76, 8.69)"
    >
      <g opacity="1">
        <path
          d="M1.98,-2.19 Q2.91,-1.40 3.92,-0.25 T5.65,2.30 7.16,5.45 8.57,8.49 9.93,11.49 12.13,13.53 15.37,13.97 19.36,14.22 23.93,14.40 27.65,14.53 31.38,14.63 36.15,14.70 40.87,14.73 45.54,14.75 49.85,14.73 53.27,14.64 56.51,14.52 59.88,14.39 63.50,14.31 66.01,14.36 66.95,14.68 67.73,15.27 68.28,16.09 68.55,17.04 68.50,18.03 68.13,18.94 67.49,19.69 66.65,20.20 65.68,20.41 64.70,20.31 63.81,19.89 63.09,19.21 62.63,18.34 62.47,17.37 62.63,16.40 63.10,15.53 63.81,14.85 64.71,14.43 65.69,14.33 66.65,14.54 67.49,15.05 68.13,15.80 68.50,16.72 68.55,17.70 68.28,18.65 67.73,19.47 66.95,20.06 66.01,20.38 65.52,20.46 63.50,20.43 59.88,20.35 56.51,20.22 53.27,20.10 49.85,20.01 45.54,19.99 40.87,20.01 36.14,20.04 31.38,20.10 27.64,20.20 23.89,20.31 19.21,20.40 14.73,20.37 10.98,20.07 7.84,19.17 5.59,17.18 4.31,14.24 3.02,11.14 1.62,8.16 -0.08,4.84 -1.53,2.61 -2.21,1.92 -2.61,1.34 -2.85,0.68 -2.93,-0.03 -2.84,-0.73 -2.58,-1.38 -2.18,-1.96 -1.64,-2.43 -1.01,-2.75 -0.33,-2.91 0.38,-2.90 1.06,-2.73 1.69,-2.40 Z"
          fill="#1d1d1d"
          stroke="#1d1d1d"
          stroke-width="1"
          stroke-linejoin="round"
          stroke-linecap="round"
          pointer-events="none"
        />
      </g>
    </g>
    <g
      id="ab65a2e4-2655-439e-2b3a-32c35e3f2be3_svg"
      class="tl-centered-g"
      transform="translate(417.57, 163.40) rotate(0.00, 0.50, 0.50)"
    >
      <circle
        r="3"
        fill="#1d1d1d"
        stroke="#1d1d1d"
        pointer-events="all"
        opacity="1"
      />
    </g>
    <g
      id="bef101b0-10f2-4be9-33c9-1a8dcc38cf9b_svg"
      class="tl-centered-g"
      transform="translate(438.33, 163.40) rotate(0.00, 1.40, 0.58)"
    >
      <g opacity="1">
        <path
          d="M0.63,-2.85 Q4.32,-1.36 4.69,-1.05 T5.30,-0.33 5.65,0.55 5.70,1.49 5.44,2.40 4.91,3.19 4.15,3.76 3.26,4.06 2.31,4.05 1.41,3.75 0.66,3.17 0.13,2.39 -0.12,1.48 -0.06,0.53 0.29,-0.34 0.90,-1.06 1.72,-1.55 2.64,-1.75 3.58,-1.64 4.44,-1.24 5.12,-0.59 5.56,0.24 5.71,1.18 5.56,2.11 5.11,2.95 4.42,3.59 3.56,3.99 2.62,4.09 1.70,3.88 1.26,3.70 0.31,3.28 -0.96,2.74 -1.59,2.43 -2.12,1.98 -2.53,1.41 -2.80,0.76 -2.90,0.07 -2.83,-0.62 -2.60,-1.28 -2.22,-1.87 -1.71,-2.35 -1.10,-2.69 -0.42,-2.87 0.28,-2.89 Z"
          fill="#1d1d1d"
          stroke="#1d1d1d"
          stroke-width="1"
          stroke-linejoin="round"
          stroke-linecap="round"
          pointer-events="none"
        />
      </g>
    </g>
    <g
      id="e1de9b2b-cf13-4298-117d-3d9551cc865e_svg"
      class="tl-centered-g"
      transform="translate(450.77, 164.85) rotate(0.00, 0.50, 0.50)"
    >
      <circle
        r="3"
        fill="#1d1d1d"
        stroke="#1d1d1d"
        pointer-events="all"
        opacity="1"
      />
    </g>
    <g
      id="be8b509e-a8d4-4adc-0fc6-b8d834378b06_svg"
      class="tl-centered-g"
      transform="translate(398.16, 234.41) rotate(0.00, 28.75, 4.56)"
    >
      <g opacity="1">
        <path
          d="M4.83,1.12 Q4.40,2.28 4.05,4.06 T3.51,7.15 2.39,7.16 3.03,5.83 6.46,5.86 9.86,5.92 13.10,5.94 16.70,5.99 20.13,6.02 22.98,6.00 26.11,5.96 29.47,5.91 32.32,5.86 35.02,5.82 37.92,5.78 41.21,5.77 44.92,5.78 48.67,5.79 52.00,5.76 55.51,5.73 58.05,5.81 59.08,6.16 59.94,6.82 60.55,7.71 60.84,8.76 60.78,9.84 60.38,10.85 59.68,11.67 58.75,12.23 57.69,12.47 56.61,12.35 55.63,11.89 54.84,11.15 54.33,10.19 54.16,9.12 54.33,8.05 54.84,7.09 55.63,6.35 56.61,5.89 57.69,5.77 58.75,6.01 59.68,6.57 60.38,7.39 60.78,8.40 60.84,9.48 60.55,10.53 59.94,11.43 59.08,12.08 58.05,12.43 57.51,12.52 55.90,12.51 52.81,12.49 49.78,12.46 46.26,12.45 42.42,12.47 38.95,12.46 35.95,12.44 33.25,12.40 30.55,12.34 27.38,12.29 24.29,12.25 21.64,12.22 18.43,12.23 14.81,12.28 11.43,12.31 7.96,12.36 4.65,12.40 1.47,12.29 -1.55,10.94 -2.78,7.81 -2.42,4.56 -1.69,1.61 -0.98,-0.55 -0.56,-1.43 -0.14,-2.02 0.40,-2.48 1.05,-2.80 1.75,-2.96 2.46,-2.95 3.16,-2.76 3.79,-2.42 4.32,-1.93 4.71,-1.33 4.95,-0.66 5.03,0.06 4.93,0.77 Z"
          fill="#1d1d1d"
          stroke="#1d1d1d"
          stroke-width="1"
          stroke-linejoin="round"
          stroke-linecap="round"
          pointer-events="none"
        />
      </g>
    </g>
    <g
      id="f88b8bd4-1ef6-4327-16ba-4a4ee313c6c4_svg"
      class="tl-centered-g"
      transform="translate(457.31, 234.79) rotate(0.00, 0.50, 2.79)"
    >
      <g opacity="1">
        <path
          d="M2.96,0.00 Q2.99,0.99 3.05,3.28 T3.02,6.07 2.70,7.00 2.10,7.79 1.29,8.35 0.33,8.61 -0.66,8.56 -1.58,8.19 -2.33,7.55 -2.84,6.70 -3.06,5.74 -2.95,4.75 -2.53,3.85 -1.85,3.13 -0.98,2.67 0.00,2.51 0.98,2.67 1.85,3.13 2.53,3.85 2.95,4.75 3.06,5.74 2.84,6.70 2.33,7.55 1.58,8.19 0.66,8.56 -0.33,8.61 -1.29,8.35 -2.11,7.79 -2.70,7.00 -3.02,6.06 -3.10,5.57 -3.05,3.28 -2.97,0.50 -2.91,-0.35 -2.74,-1.04 -2.41,-1.67 -1.95,-2.20 -1.36,-2.60 -0.70,-2.85 0.00,-2.93 0.70,-2.85 1.36,-2.60 1.95,-2.20 2.41,-1.67 2.74,-1.04 2.91,-0.35 Z"
          fill="#1d1d1d"
          stroke="#1d1d1d"
          stroke-width="1"
          stroke-linejoin="round"
          stroke-linecap="round"
          pointer-events="none"
        />
      </g>
    </g>
    <g
      id="803c395a-114d-47b1-09ad-fee28bc8fdd7_svg"
      class="tl-centered-g"
      transform="translate(404.24, 237.95) rotate(0.00, 23.14, 0.50)"
    >
      <g opacity="1">
        <path
          d="M46.28,3.23 Q44.60,3.24 43.27,3.26 T40.50,3.33 37.39,3.41 34.35,3.48 31.47,3.54 28.38,3.59 25.40,3.62 22.59,3.64 19.74,3.65 16.90,3.66 13.83,3.68 10.56,3.70 7.56,3.73 4.81,3.76 1.01,3.51 -1.94,2.92 -2.78,2.15 -3.32,1.15 -3.51,0.03 -3.34,-1.09 -2.81,-2.10 -2.00,-2.89 -0.97,-3.37 0.16,-3.51 1.27,-3.27 2.25,-2.70 2.99,-1.84 3.42,-0.79 3.49,0.35 3.20,1.45 2.57,2.39 1.67,3.09 0.60,3.46 -0.54,3.47 -1.62,3.12 -2.53,2.44 -3.17,1.50 -3.49,0.41 -3.44,-0.72 -3.02,-1.78 -2.30,-2.66 -1.33,-3.25 -0.22,-3.50 0.91,-3.39 1.46,-3.24 2.48,-3.28 4.81,-3.30 7.56,-3.27 10.56,-3.24 13.83,-3.22 16.90,-3.20 19.74,-3.19 22.59,-3.18 25.40,-3.16 28.38,-3.13 31.47,-3.08 34.35,-3.02 37.39,-2.95 40.50,-2.87 43.27,-2.80 45.44,-2.78 46.64,-2.73 47.34,-2.56 47.97,-2.22 48.51,-1.75 48.92,-1.16 49.17,-0.48 49.26,0.23 49.17,0.94 48.92,1.62 48.51,2.21 47.97,2.68 47.34,3.02 46.64,3.19 Z"
          fill="#1d1d1d"
          stroke="#1d1d1d"
          stroke-width="1"
          stroke-linejoin="round"
          stroke-linecap="round"
          pointer-events="none"
        />
      </g>
    </g>
    <g
      id="bab3241e-6347-4077-0469-0323e4fbd566_svg"
      class="tl-centered-g"
      transform="translate(16.00, 16.00) rotate(0.00, 208.47, 62.94)"
    >
      <g opacity="1">
        <path
          d="M375.33,119.41 Q372.50,119.48 370.92,119.48 T367.41,119.40 363.62,119.27 359.79,119.16 355.63,119.04 351.34,118.95 347.28,118.90 343.50,118.90 339.88,118.94 336.35,118.99 332.86,119.04 329.15,119.02 325.45,119.01 322.13,119.08 319.03,119.18 316.05,119.28 313.13,119.37 310.24,119.44 306.40,119.58 301.96,119.78 297.89,119.95 293.39,120.01 289.35,119.96 286.29,119.88 283.19,119.81 280.08,119.75 277.09,119.73 274.17,119.72 271.28,119.72 267.19,119.76 262.24,119.86 258.41,119.89 255.28,119.81 252.01,119.72 248.67,119.63 245.43,119.58 242.36,119.58 239.40,119.60 236.48,119.62 233.61,119.64 229.53,119.70 225.25,119.71 220.85,119.69 215.97,119.58 212.04,119.40 208.60,119.36 205.56,119.41 201.66,119.55 197.12,119.76 193.21,119.95 189.28,120.08 185.86,120.11 182.25,120.11 177.72,120.15 173.31,120.19 169.01,120.23 164.63,120.25 160.61,120.46 156.87,120.89 152.70,121.40 148.60,122.06 144.74,122.81 141.04,123.46 137.88,123.95 135.10,124.44 132.23,124.91 129.22,125.30 126.24,125.66 122.96,125.89 119.49,126.08 115.88,126.37 112.03,126.63 107.93,126.99 104.02,127.48 100.50,127.93 96.93,128.33 93.36,128.64 90.01,128.81 86.88,128.88 83.74,128.91 80.47,128.92 77.06,128.92 73.45,128.90 69.39,128.84 65.02,128.77 59.97,128.61 55.76,128.45 52.02,128.42 47.91,128.48 44.84,128.59 41.78,128.72 37.99,128.84 34.65,128.90 31.47,128.73 27.76,127.97 24.62,126.96 21.96,126.07 19.20,125.07 16.59,123.93 14.00,122.39 11.10,120.88 8.41,119.67 6.04,118.18 3.81,116.10 2.04,113.12 0.98,109.79 0.36,106.45 -0.13,102.75 -0.57,99.44 -0.91,96.30 -0.97,92.98 -0.91,89.86 -0.97,86.25 -1.20,82.92 -1.62,79.83 -2.15,76.51 -2.51,73.56 -2.75,70.31 -2.98,67.08 -3.13,64.01 -3.21,60.78 -3.22,57.72 -3.21,54.66 -3.21,51.71 -3.22,48.97 -3.25,46.24 -3.09,42.91 -2.61,39.64 -1.98,36.87 -1.31,33.55 -0.65,30.32 0.25,27.48 1.65,24.22 3.20,21.35 4.91,18.94 6.80,16.53 9.02,14.07 11.53,11.72 14.19,9.69 16.88,8.02 19.34,6.89 22.72,5.89 26.57,5.18 29.67,4.89 32.75,4.72 36.35,4.71 40.47,4.80 45.01,4.92 49.57,5.01 53.98,5.06 58.27,4.97 62.96,4.68 66.86,4.37 69.75,4.10 72.90,3.83 76.35,3.57 80.11,3.33 84.77,3.08 89.88,2.80 94.34,2.40 98.36,1.91 102.17,1.44 105.62,0.85 108.78,0.20 111.87,-0.32 114.85,-0.73 117.64,-1.09 120.31,-1.41 123.06,-1.69 125.92,-1.85 129.15,-1.88 132.72,-1.81 136.09,-1.79 139.35,-1.80 142.56,-1.81 145.73,-1.82 148.89,-1.84 151.90,-1.87 154.70,-1.94 157.46,-1.90 160.26,-1.79 163.07,-1.64 166.02,-1.45 169.23,-1.27 172.59,-1.05 175.60,-0.88 178.28,-0.76 181.65,-0.68 185.27,-0.74 188.39,-0.77 191.51,-0.74 194.97,-0.77 198.24,-0.66 201.98,-0.44 206.79,-0.16 210.56,0.07 214.42,0.18 218.46,0.28 221.41,0.36 224.44,0.45 227.65,0.55 231.11,0.68 234.83,0.86 238.41,0.95 241.66,0.95 244.73,0.91 247.69,0.87 250.60,0.82 254.53,0.59 259.67,0.16 263.67,-0.18 267.51,-0.59 271.47,-0.90 274.23,-0.98 276.89,-1.03 279.63,-1.05 282.42,-1.05 285.36,-1.02 288.52,-0.95 291.95,-0.84 295.69,-0.67 299.44,-0.53 303.04,-0.47 306.44,-0.47 309.70,-0.50 312.90,-0.53 315.86,-0.52 318.70,-0.39 321.42,-0.18 324.92,0.30 329.30,1.12 333.46,2.04 337.52,2.96 341.22,3.77 344.73,4.44 348.10,4.96 350.92,5.31 354.11,5.46 357.51,5.46 360.91,5.47 364.74,5.51 368.62,5.53 372.09,5.42 375.08,5.13 378.40,4.74 382.01,4.49 385.13,4.44 388.04,4.41 391.06,4.40 394.04,4.46 397.13,4.92 400.65,6.04 403.81,7.57 406.40,9.78 408.96,12.73 411.21,15.65 413.14,18.15 415.16,20.80 417.11,23.78 418.52,26.83 419.57,30.18 420.10,33.42 420.11,37.29 419.99,41.84 419.94,45.81 419.88,49.14 419.79,52.07 419.80,55.26 419.83,58.41 419.81,61.51 419.73,65.37 419.64,69.50 419.61,73.29 419.63,76.52 419.58,79.67 419.49,82.66 419.38,85.43 419.18,88.44 418.81,91.50 418.17,95.25 417.39,99.11 416.88,102.11 416.26,105.12 415.24,108.16 413.81,111.01 411.77,113.48 409.56,115.36 407.16,116.87 405.54,118.00 404.80,118.85 403.82,119.42 402.72,119.64 401.60,119.50 400.58,119.01 399.77,118.23 399.26,117.22 399.10,116.11 399.30,115.00 399.84,114.01 400.67,113.25 401.70,112.79 402.82,112.68 403.92,112.94 404.88,113.54 405.59,114.41 405.99,115.46 406.04,116.59 405.72,117.67 405.07,118.60 404.16,119.26 403.09,119.61 401.96,119.59 400.90,119.21 400.01,118.52 399.39,117.57 399.11,116.48 399.19,115.36 399.32,114.80 401.31,112.97 404.48,110.45 406.78,108.97 408.55,106.78 409.73,103.73 410.49,100.67 411.07,97.69 411.63,94.36 412.19,90.78 412.72,87.68 413.07,84.62 413.40,81.26 413.58,78.12 413.60,74.93 413.59,71.36 413.53,67.38 413.45,63.34 413.39,59.83 413.41,56.63 413.50,53.62 413.74,50.68 413.93,47.52 413.92,43.97 413.80,39.70 413.62,35.62 413.21,32.19 412.35,29.01 411.06,26.19 409.34,23.50 407.29,20.76 405.22,18.09 403.04,15.51 400.76,13.37 398.44,11.98 395.50,11.06 392.46,10.65 389.62,10.64 386.66,10.63 383.74,10.63 380.90,10.67 378.23,10.84 375.44,11.10 372.22,11.33 368.62,11.43 364.74,11.45 360.90,11.48 357.45,11.46 354.50,11.37 351.64,11.14 348.68,10.71 345.48,10.08 341.81,9.27 338.00,8.31 334.22,7.28 330.25,6.18 326.21,5.04 321.99,4.00 318.41,3.36 315.75,3.07 312.90,2.91 309.70,2.88 306.44,2.85 303.04,2.85 299.44,2.92 295.69,3.05 291.95,3.22 288.53,3.34 285.37,3.42 282.44,3.46 279.67,3.48 275.69,3.52 270.54,3.65 266.70,3.89 263.97,4.15 261.22,4.32 257.34,4.48 253.41,4.63 250.60,4.66 247.69,4.61 244.73,4.56 241.66,4.53 238.41,4.52 234.83,4.62 231.11,4.79 227.65,4.93 224.44,5.02 221.40,5.10 218.43,5.16 214.34,5.20 210.39,5.20 206.62,5.06 201.74,4.88 197.05,4.76 192.98,4.65 189.55,4.45 186.60,4.14 183.36,3.82 179.12,3.38 175.37,3.02 172.41,2.82 169.10,2.73 165.75,2.69 162.81,2.50 158.74,2.17 154.70,1.94 151.90,1.88 148.89,1.84 145.74,1.83 142.57,1.82 139.37,1.82 136.11,1.84 132.76,1.90 129.23,2.03 126.08,2.14 123.36,2.20 119.34,2.37 115.20,2.61 112.28,2.81 109.29,3.10 106.05,3.58 102.51,4.08 98.74,4.60 94.69,5.27 90.17,5.95 85.13,6.58 80.59,7.26 76.89,7.92 73.49,8.51 70.38,9.02 67.46,9.49 64.69,9.89 61.97,10.22 58.38,10.51 53.98,10.68 49.57,10.73 45.01,10.83 40.49,10.96 36.42,11.07 33.04,11.17 30.12,11.37 27.42,11.64 24.36,12.23 21.37,13.13 18.76,14.45 16.14,16.32 13.88,18.33 11.90,20.61 9.84,23.36 8.04,26.09 6.69,28.94 5.61,32.38 4.96,35.60 4.43,38.33 3.85,40.93 3.42,43.52 3.25,46.24 3.22,48.97 3.21,51.70 3.22,54.65 3.25,57.68 3.30,60.63 3.41,63.54 3.66,67.03 3.94,70.46 4.21,73.49 4.57,76.68 5.02,79.67 5.42,82.48 5.69,85.37 5.83,88.31 5.89,91.40 5.95,94.33 6.11,96.95 6.43,99.91 6.82,103.07 7.36,106.11 8.15,109.44 9.57,112.14 12.17,113.87 15.39,115.54 18.14,117.11 20.68,118.43 23.29,119.48 25.92,120.43 28.58,121.58 31.60,122.53 34.65,122.86 37.99,122.92 41.78,123.04 44.84,123.17 47.91,123.28 52.02,123.34 55.76,123.31 58.72,123.18 62.66,123.04 67.22,122.95 71.49,122.88 75.39,122.84 78.85,122.83 82.13,122.83 85.36,122.84 88.43,122.85 91.36,122.82 94.55,122.63 98.07,122.28 101.57,121.90 105.19,121.45 109.34,120.91 113.46,120.51 117.18,120.22 120.89,119.91 124.17,119.71 127.11,119.49 129.99,119.19 133.45,118.74 136.99,118.30 140.09,117.95 143.70,117.40 147.66,116.70 151.95,116.01 156.20,115.50 160.26,115.15 164.63,114.97 169.01,114.99 173.31,115.03 177.72,115.07 182.25,115.11 185.86,115.11 189.28,115.14 193.21,115.27 197.12,115.46 201.66,115.67 205.56,115.81 208.60,115.86 212.04,115.82 215.97,115.64 220.85,115.53 225.25,115.51 229.53,115.52 233.61,115.58 236.48,115.60 239.40,115.62 242.36,115.64 245.43,115.64 248.67,115.59 252.01,115.50 255.28,115.41 258.41,115.33 262.24,115.36 267.19,115.46 271.28,115.50 274.17,115.50 277.09,115.49 280.08,115.47 283.19,115.41 286.29,115.34 289.35,115.26 293.39,115.21 297.89,115.27 301.96,115.44 306.40,115.64 310.24,115.78 313.13,115.85 316.05,115.94 319.03,116.04 322.13,116.14 325.45,116.21 329.15,116.20 332.86,116.18 336.35,116.23 339.88,116.28 343.50,116.32 347.28,116.32 351.34,116.27 355.63,116.18 359.79,116.06 363.62,115.95 367.41,115.82 370.92,115.74 373.91,115.78 375.54,115.84 375.96,115.94 376.34,116.14 376.66,116.43 376.91,116.78 377.06,117.18 377.11,117.61 377.06,118.04 376.91,118.44 376.66,118.79 376.34,119.08 375.96,119.28 375.54,119.38 Z"
          fill="#1d1d1d"
          stroke="#1d1d1d"
          stroke-width="1"
          stroke-linejoin="round"
          stroke-linecap="round"
          pointer-events="none"
        />
      </g>
    </g>
  </g>
</svg>
