<svg
  xmlns="http://www.w3.org/2000/svg"
  viewBox="0 0 231 204"
  style="background-color: transparent"
>
  <g>
    <g
      id="bf39b306-0299-4602-13c8-6e772c6f5b9e_svg"
      class="tl-centered-g"
      transform="translate(16.00, 22.04) rotate(0.00, 88.39, 83.30)"
    >
      <g opacity="1">
        <path
          d="M107.78,36.16 Q109.13,32.55 110.38,30.49 T113.06,26.63 115.82,23.37 118.57,20.61 121.32,18.24 124.07,16.33 126.96,14.78 129.94,13.56 132.81,12.65 135.48,11.94 137.89,11.44 139.90,11.16 141.69,10.90 143.35,10.65 145.02,10.51 146.81,10.44 148.62,10.40 150.48,10.50 152.32,10.89 154.13,11.74 155.92,12.95 157.58,14.25 159.07,15.58 160.59,16.95 162.10,18.33 163.51,19.82 164.77,21.37 166.04,23.16 167.45,25.38 168.75,27.77 169.88,30.10 170.92,32.39 171.92,34.82 172.89,37.34 173.74,39.89 174.41,42.31 174.98,44.65 175.49,46.95 175.87,49.23 176.08,51.65 176.29,54.37 176.51,57.09 176.63,59.60 176.70,62.15 176.73,64.89 176.75,67.72 176.65,70.62 176.36,73.70 175.88,76.72 175.28,79.72 174.61,82.86 173.79,85.91 172.90,88.93 171.73,92.29 170.34,95.68 168.94,98.72 167.55,101.57 166.14,104.31 164.72,106.99 163.32,109.48 161.83,111.86 160.29,114.19 158.71,116.48 157.02,118.76 155.39,120.86 153.81,122.88 152.24,124.73 150.49,126.72 148.39,128.90 146.29,131.00 144.46,132.88 142.77,134.54 141.16,135.97 139.72,137.26 138.36,138.47 136.94,139.65 135.36,140.94 133.55,142.43 131.62,144.03 129.42,145.68 126.93,147.38 124.62,148.89 122.26,150.30 119.58,151.83 116.72,153.29 113.59,154.75 110.12,156.22 106.47,157.57 102.72,158.84 99.09,160.06 95.71,161.22 92.47,162.36 88.96,163.48 85.12,164.47 81.26,165.28 77.40,165.87 73.53,166.20 69.66,166.38 65.64,166.48 62.05,166.53 58.86,166.56 55.54,166.58 52.33,166.59 49.00,166.60 45.62,166.60 42.37,166.60 38.86,166.35 35.34,165.74 32.17,165.05 29.04,164.29 25.93,163.38 22.84,162.38 19.76,161.34 16.68,160.15 13.90,158.90 11.57,157.79 9.61,156.77 8.06,155.80 6.85,154.83 5.83,153.91 4.86,153.04 3.79,152.28 2.76,151.58 1.86,150.92 1.11,150.38 0.61,149.91 0.41,149.58 0.45,149.39 0.72,149.29 1.31,149.23 2.31,149.20 3.66,148.97 5.48,148.52 8.04,147.87 11.19,146.99 14.49,145.99 17.69,144.94 20.83,143.99 23.93,142.97 26.88,141.80 29.79,140.38 32.52,138.84 34.81,137.46 36.76,136.19 38.39,134.99 39.97,133.60 41.63,131.98 43.34,130.34 44.97,128.69 46.33,127.18 47.41,126.07 48.25,125.29 48.79,124.68 49.08,124.19 49.32,123.76 49.53,123.36 49.72,122.88 49.83,122.44 49.75,122.28 49.56,122.28 49.30,122.36 48.98,122.50 48.65,122.57 48.32,122.69 47.99,122.84 47.67,122.92 47.42,123.04 47.21,123.18 47.03,123.34 46.86,123.51 46.62,123.60 46.34,123.65 46.04,123.68 45.73,123.70 45.40,123.80 44.97,123.94 44.41,124.02 43.77,124.07 42.97,124.09 41.97,124.11 40.66,124.12 39.18,124.12 37.80,124.12 36.36,123.91 34.78,123.37 33.12,122.75 31.41,122.09 29.68,121.30 27.94,120.54 26.18,119.80 24.42,118.97 22.67,118.09 20.83,116.98 18.93,115.75 17.21,114.66 15.71,113.67 14.41,112.62 13.35,111.56 12.32,110.61 11.37,109.58 10.58,108.54 9.90,107.70 9.36,106.97 8.98,106.32 8.76,105.81 8.71,105.46 8.84,105.26 9.15,105.15 9.74,105.09 10.48,105.06 11.22,105.04 12.19,105.03 13.65,105.02 15.70,105.02 18.20,105.02 20.81,105.02 23.49,105.01 26.19,105.01 28.77,105.01 31.47,105.01 34.10,104.91 36.34,104.64 38.25,104.28 39.86,103.87 41.20,103.44 42.19,103.12 42.90,102.86 43.37,102.56 43.70,102.32 43.95,102.12 44.17,101.93 44.30,101.83 44.30,101.68 44.22,101.51 43.93,101.33 43.53,101.05 42.99,100.72 42.27,100.36 41.63,99.98 41.03,99.50 40.37,98.97 39.55,98.40 38.64,97.59 37.56,96.52 36.29,95.30 35.02,93.91 33.62,92.39 32.06,90.92 30.41,89.36 28.83,87.77 27.28,86.17 25.53,84.22 23.78,82.08 22.22,80.16 20.86,78.35 19.74,76.63 18.84,74.95 18.06,73.29 17.36,71.77 16.90,70.33 16.56,69.15 16.29,68.32 16.21,67.78 16.40,67.48 16.83,67.32 17.51,67.23 18.56,67.18 20.13,67.15 21.98,67.14 23.94,67.13 26.11,67.12 28.24,67.12 30.24,67.12 32.16,67.12 33.78,67.12 35.01,67.12 35.86,67.05 36.33,66.76 36.50,66.12 36.41,65.04 36.15,63.43 35.78,61.22 35.36,58.68 35.03,55.94 34.74,52.95 34.46,49.82 34.30,46.39 34.22,43.17 34.17,40.07 34.15,36.47 34.25,32.80 34.66,29.10 35.36,25.38 36.08,22.00 36.79,18.97 37.51,16.13 38.10,13.68 38.59,11.84 38.95,10.47 39.21,9.54 39.43,8.93 39.54,8.43 39.61,8.01 39.65,7.62 39.67,7.14 39.68,6.52 39.77,5.82 39.90,5.18 40.04,4.75 40.26,4.52 40.51,4.38 40.80,4.31 41.11,4.09 41.53,3.70 42.22,3.08 43.07,2.24 43.86,1.51 44.55,0.92 45.08,0.51 45.45,0.36 45.65,0.56 45.77,1.06 45.83,1.81 45.78,2.71 45.67,3.68 45.61,4.70 45.58,5.62 45.56,6.61 45.55,7.97 45.55,9.66 45.63,11.32 45.95,12.96 46.49,14.48 47.03,15.79 47.50,16.99 47.92,18.01 48.40,18.94 48.92,19.80 49.45,20.63 50.07,21.45 50.83,22.34 51.66,23.28 52.45,24.16 53.33,25.02 54.50,25.89 55.93,26.81 57.40,27.72 58.88,28.63 60.37,29.45 61.75,30.20 63.19,31.03 64.66,31.89 66.03,32.67 67.35,33.40 68.63,34.20 70.10,35.04 71.67,35.92 73.09,36.71 74.44,37.33 75.74,37.96 77.02,38.61 78.28,39.17 79.66,39.67 81.21,40.16 83.00,40.65 85.07,41.14 87.15,41.54 89.29,41.76 91.14,41.88 92.84,41.95 94.76,41.99 96.61,42.01 98.43,42.02 100.10,42.03 101.70,42.03 103.26,42.03 104.69,42.03 105.92,42.03 106.84,42.03 107.51,42.03 108.02,42.03 108.45,42.03 108.83,42.03 109.23,41.83 109.45,41.62 "
          fill="none"
          stroke="none"
          stroke-width="4"
          stroke-linejoin="round"
          stroke-linecap="round"
          pointer-events="none"
        />
        <path
          d="M107.78,36.16 Q109.13,32.55 110.38,30.49 T113.06,26.63 115.82,23.37 118.57,20.61 121.32,18.24 124.07,16.33 126.96,14.78 129.94,13.56 132.81,12.65 135.48,11.94 137.89,11.44 139.90,11.16 141.69,10.90 143.35,10.65 145.02,10.51 146.81,10.44 148.62,10.40 150.48,10.50 152.32,10.89 154.13,11.74 155.92,12.95 157.58,14.25 159.07,15.58 160.59,16.95 162.10,18.33 163.51,19.82 164.77,21.37 166.04,23.16 167.45,25.38 168.75,27.77 169.88,30.10 170.92,32.39 171.92,34.82 172.89,37.34 173.74,39.89 174.41,42.31 174.98,44.65 175.49,46.95 175.87,49.23 176.08,51.65 176.29,54.37 176.51,57.09 176.63,59.60 176.70,62.15 176.73,64.89 176.75,67.72 176.65,70.62 176.36,73.70 175.88,76.72 175.28,79.72 174.61,82.86 173.79,85.91 172.90,88.93 171.73,92.29 170.34,95.68 168.94,98.72 167.55,101.57 166.14,104.31 164.72,106.99 163.32,109.48 161.83,111.86 160.29,114.19 158.71,116.48 157.02,118.76 155.39,120.86 153.81,122.88 152.24,124.73 150.49,126.72 148.39,128.90 146.29,131.00 144.46,132.88 142.77,134.54 141.16,135.97 139.72,137.26 138.36,138.47 136.94,139.65 135.36,140.94 133.55,142.43 131.62,144.03 129.42,145.68 126.93,147.38 124.62,148.89 122.26,150.30 119.58,151.83 116.72,153.29 113.59,154.75 110.12,156.22 106.47,157.57 102.72,158.84 99.09,160.06 95.71,161.22 92.47,162.36 88.96,163.48 85.12,164.47 81.26,165.28 77.40,165.87 73.53,166.20 69.66,166.38 65.64,166.48 62.05,166.53 58.86,166.56 55.54,166.58 52.33,166.59 49.00,166.60 45.62,166.60 42.37,166.60 38.86,166.35 35.34,165.74 32.17,165.05 29.04,164.29 25.93,163.38 22.84,162.38 19.76,161.34 16.68,160.15 13.90,158.90 11.57,157.79 9.61,156.77 8.06,155.80 6.85,154.83 5.83,153.91 4.86,153.04 3.79,152.28 2.76,151.58 1.86,150.92 1.11,150.38 0.61,149.91 0.41,149.58 0.45,149.39 0.72,149.29 1.31,149.23 2.31,149.20 3.66,148.97 5.48,148.52 8.04,147.87 11.19,146.99 14.49,145.99 17.69,144.94 20.83,143.99 23.93,142.97 26.88,141.80 29.79,140.38 32.52,138.84 34.81,137.46 36.76,136.19 38.39,134.99 39.97,133.60 41.63,131.98 43.34,130.34 44.97,128.69 46.33,127.18 47.41,126.07 48.25,125.29 48.79,124.68 49.08,124.19 49.32,123.76 49.53,123.36 49.72,122.88 49.83,122.44 49.75,122.28 49.56,122.28 49.30,122.36 48.98,122.50 48.65,122.57 48.32,122.69 47.99,122.84 47.67,122.92 47.42,123.04 47.21,123.18 47.03,123.34 46.86,123.51 46.62,123.60 46.34,123.65 46.04,123.68 45.73,123.70 45.40,123.80 44.97,123.94 44.41,124.02 43.77,124.07 42.97,124.09 41.97,124.11 40.66,124.12 39.18,124.12 37.80,124.12 36.36,123.91 34.78,123.37 33.12,122.75 31.41,122.09 29.68,121.30 27.94,120.54 26.18,119.80 24.42,118.97 22.67,118.09 20.83,116.98 18.93,115.75 17.21,114.66 15.71,113.67 14.41,112.62 13.35,111.56 12.32,110.61 11.37,109.58 10.58,108.54 9.90,107.70 9.36,106.97 8.98,106.32 8.76,105.81 8.71,105.46 8.84,105.26 9.15,105.15 9.74,105.09 10.48,105.06 11.22,105.04 12.19,105.03 13.65,105.02 15.70,105.02 18.20,105.02 20.81,105.02 23.49,105.01 26.19,105.01 28.77,105.01 31.47,105.01 34.10,104.91 36.34,104.64 38.25,104.28 39.86,103.87 41.20,103.44 42.19,103.12 42.90,102.86 43.37,102.56 43.70,102.32 43.95,102.12 44.17,101.93 44.30,101.83 44.30,101.68 44.22,101.51 43.93,101.33 43.53,101.05 42.99,100.72 42.27,100.36 41.63,99.98 41.03,99.50 40.37,98.97 39.55,98.40 38.64,97.59 37.56,96.52 36.29,95.30 35.02,93.91 33.62,92.39 32.06,90.92 30.41,89.36 28.83,87.77 27.28,86.17 25.53,84.22 23.78,82.08 22.22,80.16 20.86,78.35 19.74,76.63 18.84,74.95 18.06,73.29 17.36,71.77 16.90,70.33 16.56,69.15 16.29,68.32 16.21,67.78 16.40,67.48 16.83,67.32 17.51,67.23 18.56,67.18 20.13,67.15 21.98,67.14 23.94,67.13 26.11,67.12 28.24,67.12 30.24,67.12 32.16,67.12 33.78,67.12 35.01,67.12 35.86,67.05 36.33,66.76 36.50,66.12 36.41,65.04 36.15,63.43 35.78,61.22 35.36,58.68 35.03,55.94 34.74,52.95 34.46,49.82 34.30,46.39 34.22,43.17 34.17,40.07 34.15,36.47 34.25,32.80 34.66,29.10 35.36,25.38 36.08,22.00 36.79,18.97 37.51,16.13 38.10,13.68 38.59,11.84 38.95,10.47 39.21,9.54 39.43,8.93 39.54,8.43 39.61,8.01 39.65,7.62 39.67,7.14 39.68,6.52 39.77,5.82 39.90,5.18 40.04,4.75 40.26,4.52 40.51,4.38 40.80,4.31 41.11,4.09 41.53,3.70 42.22,3.08 43.07,2.24 43.86,1.51 44.55,0.92 45.08,0.51 45.45,0.36 45.65,0.56 45.77,1.06 45.83,1.81 45.78,2.71 45.67,3.68 45.61,4.70 45.58,5.62 45.56,6.61 45.55,7.97 45.55,9.66 45.63,11.32 45.95,12.96 46.49,14.48 47.03,15.79 47.50,16.99 47.92,18.01 48.40,18.94 48.92,19.80 49.45,20.63 50.07,21.45 50.83,22.34 51.66,23.28 52.45,24.16 53.33,25.02 54.50,25.89 55.93,26.81 57.40,27.72 58.88,28.63 60.37,29.45 61.75,30.20 63.19,31.03 64.66,31.89 66.03,32.67 67.35,33.40 68.63,34.20 70.10,35.04 71.67,35.92 73.09,36.71 74.44,37.33 75.74,37.96 77.02,38.61 78.28,39.17 79.66,39.67 81.21,40.16 83.00,40.65 85.07,41.14 87.15,41.54 89.29,41.76 91.14,41.88 92.84,41.95 94.76,41.99 96.61,42.01 98.43,42.02 100.10,42.03 101.70,42.03 103.26,42.03 104.69,42.03 105.92,42.03 106.84,42.03 107.51,42.03 108.02,42.03 108.45,42.03 108.83,42.03 109.23,41.83 109.45,41.62 "
          fill="none"
          stroke="#1d1d1d"
          stroke-width="6.25"
          stroke-dasharray="none"
          stroke-dashoffset="none"
          stroke-linejoin="round"
          stroke-linecap="round"
          pointer-events="none"
        />
      </g>
    </g>
    <g
      id="6f2833f4-365f-4d6c-31e7-403c5e1e9d16_svg"
      class="tl-centered-g"
      transform="translate(182.83, 16.00) rotate(0.00, 16.55, 23.75)"
    >
      <g opacity="1">
        <path
          d="M-2.19,25.78 Q-0.41,23.56 1.27,21.52 T4.40,17.77 7.11,14.43 9.35,11.32 11.47,8.46 13.50,5.76 14.88,3.22 15.57,1.03 15.86,-0.29 16.13,-1.00 16.56,-1.63 17.13,-2.13 17.80,-2.49 18.54,-2.67 19.30,-2.67 20.04,-2.49 20.71,-2.14 21.28,-1.64 21.72,-1.01 21.99,-0.30 22.08,0.45 22.17,2.33 22.15,5.52 21.69,9.13 21.09,12.48 20.50,15.71 19.73,19.31 18.90,22.59 17.99,25.56 16.93,28.65 15.75,31.68 14.33,34.62 12.86,37.54 11.44,40.46 9.95,40.36 10.16,37.49 13.04,35.62 16.69,34.31 19.76,33.21 22.88,32.06 26.54,30.59 30.09,29.34 33.62,29.85 35.39,32.94 34.33,36.35 32.46,38.88 30.63,41.11 28.81,43.07 26.24,44.91 22.88,46.64 19.52,48.28 16.49,49.69 14.60,50.51 13.56,50.82 12.48,50.78 11.46,50.40 10.62,49.71 10.05,48.80 9.80,47.74 9.89,46.66 10.33,45.67 11.06,44.87 12.01,44.34 13.08,44.15 14.15,44.30 15.12,44.79 15.88,45.57 16.35,46.54 16.49,47.62 16.27,48.68 15.73,49.62 14.92,50.34 13.92,50.76 12.84,50.84 11.79,50.57 10.88,49.97 10.21,49.12 9.84,48.10 9.82,47.02 10.15,45.98 10.79,45.11 11.18,44.72 14.18,43.33 18.92,41.02 21.89,39.62 24.18,38.09 26.42,35.79 28.64,33.45 30.34,33.88 29.59,35.82 26.70,36.83 23.06,38.35 18.91,40.15 15.11,41.71 11.69,43.06 8.12,43.48 5.81,40.70 6.32,36.53 7.89,33.33 9.24,30.46 10.35,27.92 11.30,25.20 12.15,22.23 12.91,19.39 13.63,16.47 14.31,13.23 14.81,10.02 15.32,7.09 15.66,4.31 15.74,1.50 15.86,-0.29 16.13,-1.00 16.56,-1.63 17.13,-2.13 17.80,-2.49 18.54,-2.67 19.30,-2.67 20.04,-2.49 20.71,-2.14 21.28,-1.64 21.72,-1.01 21.99,-0.30 22.08,0.45 22.06,0.90 21.72,2.28 20.85,4.84 19.40,7.40 17.63,9.73 15.78,11.84 13.63,14.47 11.15,17.70 8.33,21.08 5.32,24.74 3.00,27.87 1.97,29.28 1.46,29.70 0.87,29.98 0.23,30.12 -0.42,30.09 -1.05,29.91 -1.62,29.59 -2.09,29.14 -2.45,28.59 -2.66,27.97 -2.71,27.32 -2.61,26.67 -2.36,26.07 Z"
          fill="#1d1d1d"
          stroke="#1d1d1d"
          stroke-width="1"
          stroke-linejoin="round"
          stroke-linecap="round"
          pointer-events="none"
        />
      </g>
    </g>
    <g
      id="fcd04166-ce0d-465b-1bf3-c62382c627f7_svg"
      class="tl-centered-g"
      transform="translate(157.47, 57.79) rotate(0.00, 4.79, 3.85)"
    >
      <g opacity="1">
        <path
          d="M-2.99,5.74 Q-2.86,4.39 -1.92,2.58 T0.28,-0.23 3.00,-1.90 5.73,-2.84 8.76,-2.94 11.54,-1.62 12.75,1.19 12.46,4.33 11.10,6.95 9.02,9.04 6.53,10.51 3.12,10.47 0.35,8.44 2.09,3.81 5.05,0.72 6.14,0.97 7.09,1.56 7.81,2.42 8.22,3.47 8.26,4.59 7.95,5.66 7.32,6.58 6.42,7.25 5.35,7.60 4.23,7.59 3.17,7.22 2.29,6.53 1.67,5.60 1.38,4.52 1.45,3.40 1.88,2.36 2.61,1.51 3.58,0.95 4.67,0.72 5.79,0.85 6.80,1.33 7.60,2.11 8.12,3.10 8.29,4.21 8.10,5.32 7.56,6.30 6.74,7.06 5.72,7.52 5.17,7.67 5.89,6.97 5.45,5.22 5.24,2.86 7.31,2.44 6.98,3.54 4.35,4.46 3.08,5.80 2.91,6.79 2.65,7.47 2.25,8.06 1.71,8.54 1.07,8.88 0.37,9.06 -0.35,9.06 -1.05,8.89 -1.69,8.56 -2.23,8.08 -2.64,7.49 -2.90,6.82 -2.99,6.10 Z"
          fill="#1d1d1d"
          stroke="#1d1d1d"
          stroke-width="1"
          stroke-linejoin="round"
          stroke-linecap="round"
          pointer-events="none"
        />
      </g>
    </g>
  </g>
</svg>
