<svg
  xmlns="http://www.w3.org/2000/svg"
  viewBox="0 0 283 200"
  style="background-color: transparent"
>
  <g>
    <g
      id="99b1cd71-7340-4654-1ea9-c9f1b4737765_svg"
      class="tl-centered-g"
      transform="translate(52.87, 63.05) rotate(0.00, 33.01, 30.82)"
    >
      <g opacity="1">
        <path
          d="M25.15,7.36 Q22.99,7.28 20.95,7.24 T17.08,7.22 13.72,7.59 11.06,8.90 8.82,10.98 6.96,13.20 5.76,15.49 4.88,18.37 4.08,22.36 3.37,27.11 2.92,31.68 2.79,35.64 2.86,38.87 3.48,42.16 4.94,45.67 6.72,48.41 8.91,50.60 11.82,52.51 15.53,54.26 19.87,55.91 24.11,57.22 28.50,58.20 32.25,58.75 35.10,58.99 37.91,59.13 41.66,58.97 46.19,57.93 50.60,55.87 54.81,53.04 57.76,50.36 59.45,48.15 61.18,44.72 62.75,39.95 63.42,36.14 63.60,33.45 63.32,29.86 61.97,25.61 60.18,22.34 58.59,20.03 56.71,17.57 54.50,14.92 52.24,12.61 50.00,10.56 47.78,8.81 45.52,7.35 42.22,5.64 37.97,4.03 34.05,3.13 30.23,2.61 27.85,2.29 27.15,1.99 26.58,1.47 26.21,0.80 26.07,0.05 26.18,-0.71 26.53,-1.40 27.07,-1.93 27.76,-2.27 28.52,-2.37 29.27,-2.22 29.94,-1.84 30.44,-1.26 30.74,-0.56 30.80,0.21 30.61,0.95 30.19,1.59 29.59,2.07 28.87,2.33 28.10,2.34 27.37,2.11 26.75,1.66 26.31,1.04 26.09,0.30 26.12,-0.46 26.39,-1.18 26.87,-1.77 27.52,-2.18 28.27,-2.36 28.65,-2.39 30.91,-2.17 35.16,-1.44 39.50,-0.11 43.01,1.30 45.37,2.57 47.74,4.06 50.20,5.79 52.58,7.74 54.92,9.89 57.42,12.28 60.00,14.91 62.20,17.47 64.05,20.03 65.65,22.64 66.85,25.26 67.65,28.05 67.98,30.89 67.97,33.75 67.77,36.67 67.40,39.72 66.71,42.64 65.72,45.43 64.49,48.11 62.95,50.74 60.99,53.44 58.75,55.87 56.39,57.81 53.98,59.39 51.45,60.81 48.83,62.04 46.14,63.01 43.38,63.64 40.60,63.88 37.78,63.92 34.85,63.90 31.78,63.84 28.67,63.66 24.84,63.03 20.35,61.88 15.72,60.44 10.97,58.72 6.97,56.76 4.08,54.51 1.84,51.92 0.03,49.08 -1.41,45.96 -2.39,42.44 -2.73,38.98 -2.66,35.50 -2.48,31.29 -2.13,26.48 -1.79,22.66 -1.30,18.92 -0.31,14.68 1.27,11.14 3.47,8.08 6.21,5.35 9.77,2.89 13.54,1.64 17.11,1.51 21.04,1.54 24.21,1.57 25.64,1.63 26.30,1.82 26.91,2.15 27.41,2.62 27.79,3.20 28.02,3.85 28.09,4.54 27.98,5.23 27.72,5.86 27.32,6.42 26.79,6.87 26.17,7.17 25.49,7.32 Z"
          fill="#1d1d1d"
          stroke="#1d1d1d"
          stroke-width="1"
          stroke-linejoin="round"
          stroke-linecap="round"
          pointer-events="none"
        />
      </g>
    </g>
    <g
      id="292d0715-d1d8-473a-1b0a-c078fa7afebf_svg"
      class="tl-centered-g"
      transform="translate(79.04, 74.00) rotate(0.00, 1.35, 7.95)"
    >
      <g opacity="1">
        <path
          d="M2.75,0.01 Q2.99,2.54 3.16,4.05 T3.54,6.89 4.18,10.25 4.93,13.75 5.30,15.64 5.25,16.49 4.92,17.26 4.37,17.90 3.64,18.32 2.81,18.49 1.98,18.39 1.22,18.03 0.61,17.44 0.23,16.69 0.11,15.85 0.25,15.02 0.66,14.28 1.28,13.71 2.05,13.37 2.89,13.29 3.71,13.48 4.42,13.93 4.96,14.58 5.26,15.37 5.30,16.21 5.06,17.02 4.58,17.71 3.90,18.21 3.09,18.47 2.25,18.45 1.46,18.17 0.79,17.65 0.33,16.95 0.16,16.56 -0.16,14.82 -0.80,11.10 -1.41,7.76 -2.04,4.79 -2.56,1.93 -2.75,0.34 -2.67,-0.32 -2.43,-0.94 -2.05,-1.48 -1.56,-1.92 -0.97,-2.23 -0.33,-2.39 0.33,-2.39 0.98,-2.23 1.56,-1.92 2.06,-1.48 2.43,-0.93 2.67,-0.31 Z"
          fill="#1d1d1d"
          stroke="#1d1d1d"
          stroke-width="1"
          stroke-linejoin="round"
          stroke-linecap="round"
          pointer-events="none"
        />
      </g>
    </g>
    <g
      id="815940e4-b839-4073-0f3c-ba3e6fb61d1d_svg"
      class="tl-centered-g"
      transform="translate(70.36, 69.50) rotate(0.00, 2.83, 8.72)"
    >
      <g opacity="1">
        <path
          d="M3.01,-0.01 Q3.09,1.45 3.53,2.85 T4.44,5.55 5.45,8.51 6.64,11.59 8.01,14.56 8.89,16.64 8.98,17.71 8.72,18.75 8.15,19.66 7.31,20.33 6.30,20.71 5.23,20.74 4.20,20.43 3.33,19.80 2.70,18.93 2.38,17.91 2.41,16.83 2.78,15.83 3.45,14.99 4.35,14.41 5.39,14.14 6.46,14.23 7.45,14.65 8.25,15.36 8.78,16.30 8.99,17.35 8.84,18.42 8.37,19.38 7.61,20.14 6.65,20.62 5.59,20.77 4.53,20.57 3.60,20.04 2.88,19.24 2.59,18.79 1.89,17.30 0.65,14.58 -0.26,12.09 -1.07,9.46 -1.96,6.56 -2.69,3.37 -2.98,0.98 -2.98,-0.11 -2.84,-0.82 -2.53,-1.47 -2.07,-2.03 -1.50,-2.46 -0.84,-2.75 -0.13,-2.86 0.59,-2.81 1.27,-2.58 1.88,-2.20 2.38,-1.68 2.75,-1.06 2.95,-0.37 Z"
          fill="#1d1d1d"
          stroke="#1d1d1d"
          stroke-width="1"
          stroke-linejoin="round"
          stroke-linecap="round"
          pointer-events="none"
        />
      </g>
    </g>
    <g
      id="3c83272f-cb60-4ce5-0e56-91180654c2e6_svg"
      class="tl-centered-g"
      transform="translate(70.25, 16.40) rotate(0.00, 73.31, 23.41)"
    >
      <g opacity="1">
        <path
          d="M0.00,44.36 Q2.17,44.32 4.36,44.18 T8.11,43.85 11.19,43.37 14.24,42.77 17.15,42.09 19.79,41.36 23.35,40.23 27.87,38.71 32.37,37.19 35.95,35.95 38.56,34.98 41.08,33.97 43.50,32.93 45.88,31.81 48.29,30.62 50.68,29.41 53.11,28.21 55.58,27.06 58.74,25.53 62.42,23.78 65.88,22.27 69.53,20.88 73.54,19.59 77.58,18.33 81.29,17.11 84.66,16.01 87.72,15.03 90.91,14.12 94.13,13.32 97.25,12.63 100.52,11.97 103.49,11.31 107.01,10.39 111.31,9.16 115.31,7.78 118.80,6.41 122.09,5.07 125.14,3.71 127.90,2.36 130.83,0.91 133.61,-0.30 136.48,-0.93 139.39,-1.48 141.98,-2.09 143.64,-2.23 144.39,-2.45 145.29,-3.04 146.33,-3.30 147.40,-3.22 148.39,-2.80 149.19,-2.09 149.72,-1.16 149.93,-0.11 149.79,0.95 149.32,1.92 148.57,2.68 147.61,3.16 146.55,3.31 145.50,3.12 144.56,2.60 143.84,1.80 143.41,0.82 143.31,-0.25 143.57,-1.29 144.14,-2.20 144.97,-2.88 145.98,-3.25 147.05,-3.29 148.07,-2.98 148.95,-2.36 149.58,-1.49 149.90,-0.47 149.88,0.60 149.52,1.61 149.25,2.09 145.82,3.30 140.88,4.86 137.54,5.35 134.41,6.01 131.76,7.15 129.00,8.39 125.96,9.74 122.64,11.13 119.18,12.48 115.27,14.01 110.93,15.61 106.82,16.94 103.60,17.82 100.96,18.26 98.26,18.59 95.52,19.05 92.51,19.72 89.36,20.54 86.29,21.38 82.89,22.37 79.14,23.53 75.20,24.71 71.35,25.88 67.72,27.12 64.33,28.35 60.71,29.82 56.33,31.78 52.77,33.49 50.33,34.73 47.86,35.97 45.33,37.18 42.82,38.27 40.26,39.32 37.53,40.44 33.83,41.74 29.28,43.14 24.63,44.50 20.94,45.54 18.20,46.28 15.21,47.08 12.07,47.89 8.79,48.66 4.64,49.18 1.08,49.30 -0.29,49.25 -0.87,49.11 -1.39,48.83 -1.83,48.44 -2.17,47.96 -2.37,47.41 -2.45,46.82 -2.37,46.23 -2.17,45.68 -1.83,45.20 -1.39,44.81 -0.87,44.53 -0.29,44.39 Z"
          fill="#1d1d1d"
          stroke="#1d1d1d"
          stroke-width="1"
          stroke-linejoin="round"
          stroke-linecap="round"
          pointer-events="none"
        />
      </g>
    </g>
    <g
      id="f10d4d11-6ab4-4171-14e0-8d396f8a9637_svg"
      class="tl-centered-g"
      transform="translate(16.00, 124.94) rotate(0.00, 33.19, 27.17)"
    >
      <g opacity="1">
        <path
          d="M50.07,2.36 Q48.12,2.43 46.53,2.51 T43.34,2.64 40.29,2.65 37.01,2.51 33.39,2.49 29.79,2.74 26.06,3.19 22.57,3.82 19.72,4.59 16.75,5.85 13.57,7.88 10.56,10.72 8.15,13.43 6.15,16.22 4.38,19.32 3.36,22.13 2.96,24.95 3.02,28.32 3.40,31.96 4.13,35.11 5.49,38.10 7.44,40.76 9.58,43.15 12.23,45.56 15.47,47.61 18.92,49.07 23.08,50.28 27.76,51.17 32.71,51.58 37.05,51.83 40.05,51.80 43.06,51.47 46.66,50.95 50.22,50.15 53.11,49.09 55.57,47.90 58.57,45.94 61.49,43.31 63.05,40.32 63.61,36.43 63.63,31.93 63.02,27.60 61.41,23.41 59.55,19.60 57.96,16.34 56.28,13.08 54.60,9.99 51.82,5.77 49.69,2.73 49.48,2.10 49.48,1.44 49.70,0.82 50.10,0.29 50.65,-0.08 51.29,-0.25 51.95,-0.21 52.56,0.03 53.06,0.46 53.40,1.03 53.54,1.68 53.47,2.33 53.19,2.93 52.73,3.41 52.14,3.72 51.49,3.82 50.84,3.71 50.26,3.40 49.80,2.92 49.53,2.32 49.46,1.66 49.60,1.02 49.95,0.45 50.45,0.02 51.07,-0.22 51.73,-0.25 52.37,-0.07 52.91,0.30 53.15,0.53 54.39,2.47 56.30,5.57 57.78,8.16 59.61,11.16 61.62,14.29 63.58,17.38 65.41,20.32 66.83,23.01 67.96,26.63 68.66,30.37 68.82,33.10 68.79,35.83 68.41,39.40 67.08,43.30 64.52,46.48 61.86,48.68 59.60,50.11 57.12,51.35 54.38,52.50 51.21,53.67 47.45,54.89 43.68,55.88 40.29,56.47 36.98,56.76 33.86,56.85 29.77,56.79 25.72,56.57 23.02,56.20 19.21,55.42 14.91,54.17 11.73,52.65 8.97,50.77 6.36,48.50 3.91,45.92 1.55,43.05 -0.33,40.01 -1.59,36.67 -2.48,32.75 -2.90,29.01 -2.79,25.51 -2.36,22.38 -1.49,19.82 0.03,16.93 2.34,13.44 4.62,10.42 6.43,8.29 8.31,6.41 11.28,4.21 15.39,2.20 18.87,1.18 21.88,0.49 25.46,-0.34 29.31,-1.18 33.11,-1.85 36.91,-2.36 40.29,-2.65 43.34,-2.64 46.53,-2.51 49.09,-2.40 50.35,-2.33 50.90,-2.19 51.40,-1.93 51.83,-1.56 52.15,-1.09 52.35,-0.56 52.42,0.00 52.35,0.56 52.15,1.09 51.83,1.56 51.40,1.93 50.90,2.19 50.35,2.33 Z"
          fill="#1d1d1d"
          stroke="#1d1d1d"
          stroke-width="1"
          stroke-linejoin="round"
          stroke-linecap="round"
          pointer-events="none"
        />
      </g>
    </g>
    <g
      id="76590ed8-d046-4201-2da0-234ed4056cb1_svg"
      class="tl-centered-g"
      transform="translate(60.97, 158.81) rotate(0.00, 8.23, 9.94)"
    >
      <g opacity="1">
        <path
          d="M-2.15,19.88 Q-2.11,17.64 -2.12,15.82 T-2.15,12.39 -2.20,9.31 -2.32,6.48 -2.68,3.47 -3.04,1.22 -3.12,0.24 -3.02,-0.51 -2.74,-1.21 -2.30,-1.82 -1.73,-2.32 -1.05,-2.66 -0.32,-2.83 0.44,-2.81 1.17,-2.62 1.83,-2.26 2.39,-1.75 2.81,-1.12 3.07,-0.41 4.94,0.79 8.84,3.03 12.07,5.14 15.38,7.25 17.89,8.90 18.39,9.45 18.70,10.13 18.78,10.88 18.61,11.60 18.22,12.24 17.64,12.72 16.95,12.99 16.20,13.03 15.48,12.82 14.87,12.39 14.42,11.79 14.19,11.08 14.19,10.34 14.44,9.63 14.89,9.04 15.52,8.62 16.24,8.43 16.99,8.48 17.68,8.76 18.25,9.25 18.63,9.89 18.78,10.63 18.69,11.37 18.37,12.04 17.85,12.58 17.19,12.93 16.45,13.04 15.71,12.91 15.35,12.79 12.91,11.70 9.29,9.99 6.85,8.71 3.40,6.71 -0.25,4.29 -2.43,1.91 -3.12,0.24 -3.02,-0.51 -2.74,-1.21 -2.30,-1.82 -1.73,-2.32 -1.05,-2.66 -0.32,-2.83 0.44,-2.81 1.17,-2.62 1.83,-2.26 2.39,-1.75 2.81,-1.12 3.07,-0.41 3.20,0.87 3.42,3.11 3.68,6.15 3.74,9.31 3.69,12.39 3.66,15.82 3.67,18.76 3.65,20.23 3.48,20.91 3.16,21.53 2.69,22.05 2.12,22.45 1.46,22.70 0.77,22.78 0.08,22.70 -0.58,22.45 -1.15,22.05 -1.62,21.53 -1.94,20.91 -2.11,20.23 Z"
          fill="#1d1d1d"
          stroke="#1d1d1d"
          stroke-width="1"
          stroke-linejoin="round"
          stroke-linecap="round"
          pointer-events="none"
        />
      </g>
    </g>
    <g
      id="aea49793-99bd-4b0f-21be-7a91e4d4b9d6_svg"
      class="tl-centered-g"
      transform="translate(69.39, 174.06) rotate(0.00, 9.99, 2.79)"
    >
      <g opacity="1">
        <path
          d="M-0.25,2.66 Q2.12,2.42 3.78,2.08 T6.88,1.42 9.67,0.67 12.50,-0.30 16.24,-1.84 19.00,-3.01 20.02,-3.17 21.03,-2.99 21.93,-2.51 22.63,-1.76 23.05,-0.82 23.15,0.20 22.92,1.20 22.39,2.07 21.60,2.73 20.65,3.10 19.62,3.15 18.64,2.86 17.79,2.28 17.18,1.46 16.86,0.49 16.87,-0.54 17.20,-1.51 17.83,-2.32 18.68,-2.89 19.67,-3.15 20.70,-3.09 21.65,-2.70 22.42,-2.03 22.94,-1.15 23.15,-0.14 23.03,0.87 22.60,1.80 21.89,2.54 21.47,2.85 18.80,3.95 14.53,5.56 11.18,6.48 8.09,7.14 4.79,7.76 1.66,8.33 0.13,8.51 -0.57,8.42 -1.23,8.18 -1.81,7.78 -2.28,7.25 -2.61,6.63 -2.78,5.94 -2.79,5.24 -2.62,4.55 -2.29,3.93 -1.83,3.40 -1.25,2.99 -0.59,2.74 Z"
          fill="#1d1d1d"
          stroke="#1d1d1d"
          stroke-width="1"
          stroke-linejoin="round"
          stroke-linecap="round"
          pointer-events="none"
        />
      </g>
    </g>
    <g
      id="90fd4308-935d-44bb-23e4-86b8ebf50d84_svg"
      class="tl-centered-g"
      transform="translate(97.18, 121.95) rotate(0.00, 31.45, 31.07)"
    >
      <g opacity="1">
        <path
          d="M18.24,2.64 Q17.16,3.26 16.45,4.42 T15.09,6.72 13.63,9.51 12.09,12.81 10.59,16.17 9.25,19.13 8.16,21.67 7.19,24.38 6.26,27.50 5.30,31.11 4.38,34.95 3.72,38.26 3.35,41.10 3.22,44.30 3.24,47.58 3.70,50.34 5.60,52.88 8.49,55.07 11.27,56.62 14.28,57.77 17.86,58.52 21.70,58.89 26.51,59.18 30.90,59.45 33.68,59.45 37.48,58.91 41.25,58.13 45.01,57.00 49.64,55.15 53.38,52.88 56.10,50.24 57.98,47.12 59.16,43.88 59.77,40.59 59.73,37.45 58.80,34.46 57.09,30.69 54.83,26.61 52.29,23.21 49.85,20.65 47.66,18.79 45.38,17.12 42.72,15.23 39.70,13.28 36.48,11.59 33.38,10.39 30.54,9.59 27.39,9.00 24.02,8.72 20.57,8.43 18.26,7.97 17.41,7.43 16.78,6.64 16.43,5.70 16.40,4.70 16.69,3.73 17.28,2.92 18.10,2.33 19.06,2.03 20.06,2.06 21.00,2.40 21.79,3.03 22.33,3.88 22.58,4.85 22.50,5.85 22.10,6.78 21.43,7.53 20.56,8.02 19.57,8.22 18.57,8.08 17.67,7.64 16.96,6.93 16.51,6.03 16.37,5.03 16.56,4.04 17.06,3.17 17.80,2.49 18.73,2.10 19.73,2.01 20.23,2.05 21.90,2.27 24.91,2.58 27.75,2.91 30.69,3.51 33.72,4.36 37.17,5.60 40.94,7.34 44.54,9.45 47.55,11.55 50.08,13.48 52.54,15.59 55.11,18.25 57.95,21.70 60.22,24.80 61.70,27.20 63.42,30.47 65.06,34.54 65.66,37.97 65.40,40.76 64.70,43.88 63.40,47.54 61.21,51.62 57.98,55.36 53.89,58.26 50.36,60.06 47.76,61.11 45.09,62.04 42.40,62.85 39.69,63.54 36.85,64.14 33.88,64.57 30.88,64.79 26.45,65.01 21.39,65.16 17.61,64.95 14.46,64.43 11.52,63.59 8.51,62.33 5.06,60.52 1.52,58.16 -1.10,55.65 -2.57,53.18 -3.17,50.51 -3.23,47.55 -3.14,44.55 -2.89,41.48 -2.46,38.57 -1.91,35.55 -1.16,31.62 -0.31,27.61 0.60,24.05 1.62,20.70 2.76,17.79 3.89,15.28 5.18,12.44 6.77,9.01 8.27,6.00 9.62,3.63 11.08,1.26 13.08,-1.02 14.86,-2.36 15.75,-2.77 16.45,-2.95 17.17,-2.96 17.86,-2.79 18.50,-2.46 19.04,-1.99 19.45,-1.40 19.71,-0.73 19.81,-0.02 19.72,0.69 19.48,1.36 19.07,1.96 18.54,2.44 Z"
          fill="#1d1d1d"
          stroke="#1d1d1d"
          stroke-width="1"
          stroke-linejoin="round"
          stroke-linecap="round"
          pointer-events="none"
        />
      </g>
    </g>
    <g
      id="db3db7b2-018c-4047-01e5-007c01a61f67_svg"
      class="tl-centered-g"
      transform="translate(117.12, 68.44) rotate(0.00, 57.61, 25.79)"
    >
      <g opacity="1">
        <path
          d="M-0.66,49.62 Q3.02,48.59 4.67,48.01 T8.37,46.64 12.44,45.04 16.27,43.50 19.62,42.12 22.60,40.87 25.30,39.78 27.82,38.74 30.36,37.74 33.82,36.28 37.80,34.41 41.30,32.72 45.28,30.93 49.71,28.94 53.65,26.90 57.27,24.75 61.19,22.41 64.76,20.45 67.67,19.04 70.70,17.70 73.70,16.39 76.69,15.05 79.71,13.65 82.33,12.34 85.88,10.49 90.53,8.19 94.81,6.13 98.59,4.28 102.29,2.61 105.45,1.38 108.66,0.09 112.38,-1.58 114.52,-2.51 115.36,-2.60 116.18,-2.42 116.91,-1.99 117.45,-1.34 117.76,-0.56 117.81,0.28 117.58,1.09 117.11,1.79 116.44,2.30 115.64,2.57 114.80,2.57 114.00,2.30 113.33,1.79 112.85,1.09 112.63,0.28 112.68,-0.56 112.99,-1.34 113.53,-1.99 114.26,-2.42 115.08,-2.60 115.92,-2.51 116.68,-2.16 117.30,-1.58 117.69,-0.83 117.83,0.00 117.69,0.83 117.29,1.58 116.68,2.16 116.33,2.40 114.48,3.19 110.54,4.84 106.28,6.50 102.38,7.98 98.70,9.44 94.56,11.19 90.02,13.15 86.50,14.76 84.10,15.91 81.45,17.20 78.48,18.74 75.52,20.27 72.65,21.72 69.88,23.17 67.18,24.77 63.78,26.85 59.83,29.17 55.92,31.34 51.72,33.39 48.22,35.00 45.02,36.37 41.37,37.80 37.50,39.23 34.13,40.43 31.61,41.24 29.02,42.06 26.41,42.88 23.69,43.72 20.70,44.78 17.39,46.13 13.66,47.83 9.63,49.76 5.90,51.43 2.44,52.83 0.42,53.59 -0.08,53.63 -0.56,53.55 -1.02,53.36 -1.42,53.06 -1.73,52.68 -1.94,52.24 -2.04,51.75 -2.02,51.26 -1.89,50.78 -1.64,50.35 -1.30,50.00 -0.88,49.73 Z"
          fill="#1d1d1d"
          stroke="#1d1d1d"
          stroke-width="1"
          stroke-linejoin="round"
          stroke-linecap="round"
          pointer-events="none"
        />
      </g>
    </g>
    <g
      id="0cfce273-596d-4f6c-0a4d-b698bfd8c654_svg"
      class="tl-centered-g"
      transform="translate(153.36, 126.08) rotate(0.00, 47.32, 25.48)"
    >
      <g opacity="1">
        <path
          d="M0.00,48.51 Q2.49,48.51 4.74,48.49 T8.95,48.12 12.48,46.98 15.54,45.40 18.59,43.67 21.94,41.65 25.64,39.32 29.57,36.74 33.56,34.16 37.58,31.74 41.58,29.41 45.35,27.35 48.88,25.56 52.73,23.64 56.90,21.55 60.83,19.50 64.60,17.47 68.02,15.56 71.02,13.81 73.92,12.14 76.54,10.59 79.72,8.57 83.09,6.20 85.70,4.13 88.20,1.95 91.23,-0.73 93.36,-2.40 94.20,-2.68 95.08,-2.68 95.91,-2.40 96.61,-1.87 97.11,-1.14 97.34,-0.30 97.30,0.58 96.97,1.40 96.40,2.07 95.65,2.53 94.79,2.72 93.91,2.62 93.12,2.25 92.48,1.65 92.06,0.87 91.92,0.00 92.06,-0.87 92.47,-1.64 93.11,-2.25 93.91,-2.62 94.78,-2.72 95.64,-2.53 96.40,-2.07 96.97,-1.40 97.30,-0.59 97.34,0.29 97.11,1.14 96.62,1.87 96.31,2.19 94.09,3.83 90.78,6.24 88.34,7.83 85.29,9.60 81.42,11.59 77.96,13.26 75.22,14.57 72.25,16.04 69.14,17.62 65.68,19.45 61.90,21.52 57.96,23.63 53.80,25.77 49.98,27.72 46.54,29.49 42.89,31.58 39.00,33.99 35.17,36.52 31.37,39.26 27.63,42.15 24.18,44.85 21.02,47.38 18.00,49.66 14.27,51.71 9.51,53.11 4.74,53.45 1.24,53.43 -0.29,53.39 -0.87,53.25 -1.39,52.98 -1.83,52.59 -2.16,52.10 -2.37,51.55 -2.44,50.97 -2.37,50.39 -2.16,49.84 -1.83,49.35 -1.39,48.96 -0.87,48.69 -0.29,48.55 Z"
          fill="#1d1d1d"
          stroke="#1d1d1d"
          stroke-width="1"
          stroke-linejoin="round"
          stroke-linecap="round"
          pointer-events="none"
        />
      </g>
    </g>
    <g
      id="ddc9705f-e225-4aa7-3c34-4ab285d9a018_svg"
      class="tl-centered-g"
      transform="translate(123.07, 149.01) rotate(0.00, 6.07, 6.05)"
    >
      <g opacity="1">
        <path
          d="M4.74,3.47 Q3.68,3.63 3.51,5.10 T4.20,7.56 6.38,8.61 8.00,7.07 8.02,4.99 7.65,3.94 7.63,2.82 7.98,1.75 8.64,0.86 9.56,0.22 10.63,-0.10 11.75,-0.05 12.79,0.35 13.65,1.06 14.24,2.01 14.50,3.10 14.39,4.21 13.94,5.23 13.18,6.05 12.20,6.59 11.10,6.78 9.99,6.62 9.00,6.11 8.22,5.31 7.73,4.30 7.60,3.19 7.82,2.10 8.39,1.13 9.23,0.39 10.26,-0.03 11.38,-0.11 12.46,0.18 13.39,0.79 13.81,1.17 14.71,3.95 15.57,8.42 14.79,11.70 12.80,14.07 10.10,15.17 6.95,15.45 3.92,15.14 1.20,14.13 -1.41,12.22 -2.93,9.35 -3.05,6.11 -2.41,3.15 -1.05,0.41 1.33,-1.63 3.39,-2.44 4.34,-2.51 5.06,-2.43 5.73,-2.18 6.33,-1.77 6.81,-1.24 7.15,-0.60 7.33,0.10 7.33,0.82 7.16,1.52 6.83,2.16 6.36,2.71 5.77,3.12 5.09,3.38 Z"
          fill="#1d1d1d"
          stroke="#1d1d1d"
          stroke-width="1"
          stroke-linejoin="round"
          stroke-linecap="round"
          pointer-events="none"
        />
      </g>
    </g>
    <g
      id="cc11a38b-87c5-4083-338a-513a20d35386_svg"
      class="tl-centered-g"
      transform="translate(44.89, 142.69) rotate(0.00, 5.13, 2.89)"
    >
      <g opacity="1">
        <path
          d="M1.19,1.61 Q2.80,2.22 4.37,2.41 T4.84,2.92 3.36,3.65 2.48,4.32 1.43,4.69 0.33,4.69 -0.72,4.34 -1.61,3.68 -2.24,2.77 -2.54,1.70 -2.49,0.59 -2.08,-0.44 -1.37,-1.29 -0.43,-1.86 0.65,-2.11 1.76,-1.99 2.76,-1.54 3.57,-0.78 4.10,0.20 4.28,1.29 4.11,2.38 3.60,3.37 2.80,4.13 1.80,4.60 0.70,4.73 -0.39,4.50 -1.34,3.93 -2.06,3.09 -2.48,2.07 -2.55,0.96 -2.26,-0.11 -2.02,-0.62 1.63,-2.02 6.67,-3.33 9.71,-2.47 12.21,-0.40 13.26,2.34 13.09,5.01 11.08,7.33 8.09,8.60 5.40,8.68 2.37,8.19 -0.13,7.52 -1.25,7.04 -1.84,6.63 -2.32,6.10 -2.65,5.46 -2.82,4.76 -2.82,4.05 -2.65,3.35 -2.31,2.72 -1.84,2.18 -1.25,1.78 -0.58,1.52 0.13,1.44 0.84,1.53 Z"
          fill="#1d1d1d"
          stroke="#1d1d1d"
          stroke-width="1"
          stroke-linejoin="round"
          stroke-linecap="round"
          pointer-events="none"
        />
      </g>
    </g>
    <g
      id="65c87975-d2ce-44e4-2b05-a188ce7d3507_svg"
      class="tl-centered-g"
      transform="translate(80.30, 91.22) rotate(0.00, 6.00, 3.27)"
    >
      <g opacity="1">
        <path
          d="M-1.70,1.22 Q-0.39,0.18 0.82,-0.77 T3.31,-2.31 6.04,-3.08 8.89,-2.94 11.67,-1.69 14.01,0.53 13.79,5.74 12.09,9.81 11.00,9.92 9.93,9.68 8.99,9.11 8.29,8.27 7.89,7.25 7.83,6.15 8.13,5.10 8.75,4.20 9.63,3.54 10.67,3.19 11.77,3.20 12.80,3.56 13.67,4.22 14.28,5.14 14.57,6.19 14.50,7.29 14.09,8.30 13.38,9.14 12.44,9.69 11.36,9.92 10.27,9.80 9.28,9.33 8.49,8.57 7.98,7.60 7.81,6.52 8.00,5.44 8.52,4.47 9.32,3.72 9.78,3.42 8.97,3.60 6.88,3.61 4.45,4.16 2.64,5.40 1.68,6.10 1.03,6.40 0.32,6.53 -0.39,6.49 -1.07,6.27 -1.68,5.91 -2.19,5.40 -2.56,4.79 -2.77,4.11 -2.82,3.40 -2.69,2.69 -2.40,2.04 -1.96,1.48 Z"
          fill="#1d1d1d"
          stroke="#1d1d1d"
          stroke-width="1"
          stroke-linejoin="round"
          stroke-linecap="round"
          pointer-events="none"
        />
      </g>
    </g>
    <g
      id="ede821c6-495c-4996-06b6-468c7836005c_svg"
      class="tl-centered-g"
      transform="translate(152.16, 72.20) rotate(0.00, 12.07, 4.12)"
    >
      <g opacity="1">
        <path
          d="M0.00,5.37 Q2.26,5.40 3.86,5.26 T6.89,4.69 9.90,3.56 13.23,2.07 16.52,0.59 20.47,-1.45 23.39,-2.93 24.37,-3.02 25.32,-2.79 26.15,-2.27 26.77,-1.51 27.11,-0.59 27.14,0.39 26.86,1.33 26.29,2.13 25.50,2.70 24.57,3.00 23.59,2.98 22.67,2.64 21.90,2.04 21.37,1.21 21.12,0.26 21.20,-0.71 21.58,-1.61 22.23,-2.35 23.08,-2.83 24.04,-3.03 25.01,-2.90 25.89,-2.47 26.59,-1.78 27.03,-0.91 27.17,0.06 26.99,1.03 26.51,1.88 25.79,2.54 25.37,2.81 24.10,3.55 21.59,4.79 18.88,5.92 15.69,7.31 12.09,8.90 8.32,10.24 4.33,10.90 1.13,11.08 -0.34,11.05 -1.01,10.89 -1.61,10.57 -2.13,10.11 -2.52,9.55 -2.76,8.91 -2.84,8.23 -2.76,7.55 -2.52,6.91 -2.13,6.35 -1.61,5.89 -1.01,5.57 -0.34,5.41 Z"
          fill="#1d1d1d"
          stroke="#1d1d1d"
          stroke-width="1"
          stroke-linejoin="round"
          stroke-linecap="round"
          pointer-events="none"
        />
      </g>
    </g>
    <g
      id="d31b5f01-404b-41b0-045b-4076579ba124_svg"
      class="tl-centered-g"
      transform="translate(184.21, 36.60) rotate(0.00, 9.63, 2.38)"
    >
      <g opacity="1">
        <path
          d="M0.00,1.92 Q1.77,1.90 3.40,1.83 T6.50,1.44 9.96,0.44 15.14,-1.46 18.77,-2.75 19.68,-2.77 20.54,-2.49 21.27,-1.96 21.79,-1.22 22.04,-0.35 22.01,0.56 21.69,1.40 21.12,2.10 20.35,2.58 19.47,2.79 18.57,2.71 17.74,2.34 17.07,1.73 16.63,0.94 16.47,0.05 16.61,-0.85 17.02,-1.66 17.66,-2.29 18.48,-2.68 19.38,-2.79 20.26,-2.61 21.04,-2.16 21.64,-1.48 21.99,-0.65 22.05,0.26 21.83,1.13 21.33,1.89 20.62,2.45 20.22,2.67 17.08,3.87 11.66,5.91 7.39,7.16 3.58,7.58 0.89,7.61 -0.34,7.56 -1.00,7.40 -1.60,7.08 -2.11,6.63 -2.50,6.07 -2.74,5.43 -2.82,4.76 -2.74,4.09 -2.50,3.45 -2.11,2.89 -1.60,2.44 -1.00,2.12 -0.34,1.96 Z"
          fill="#1d1d1d"
          stroke="#1d1d1d"
          stroke-width="1"
          stroke-linejoin="round"
          stroke-linecap="round"
          pointer-events="none"
        />
      </g>
    </g>
    <g
      id="054949e2-0ba5-4890-23d6-e8d98d74a387_svg"
      class="tl-centered-g"
      transform="translate(136.55, 112.47) rotate(0.00, 21.42, 7.66)"
    >
      <g opacity="1">
        <path
          d="M0.00,12.51 Q2.29,12.54 4.21,12.52 T7.66,12.33 11.03,11.67 14.92,10.48 18.74,9.10 21.76,7.88 24.24,6.74 27.13,5.25 31.04,3.14 34.45,1.32 38.71,-0.90 42.21,-2.58 43.06,-2.65 43.90,-2.44 44.62,-1.97 45.16,-1.30 45.45,-0.49 45.47,0.37 45.22,1.19 44.71,1.88 44.01,2.38 43.19,2.63 42.33,2.61 41.53,2.31 40.86,1.77 40.40,1.04 40.19,0.21 40.26,-0.65 40.61,-1.44 41.18,-2.07 41.93,-2.50 42.78,-2.66 43.63,-2.54 44.40,-2.15 45.00,-1.54 45.38,-0.77 45.50,0.08 45.33,0.92 44.91,1.67 44.26,2.24 43.90,2.48 41.09,3.90 37.16,6.00 33.86,8.02 29.76,10.46 26.50,12.10 23.79,13.18 20.61,14.34 16.60,15.81 12.21,17.21 8.07,17.95 4.21,18.10 1.15,18.10 -0.34,18.07 -0.99,17.91 -1.58,17.60 -2.08,17.15 -2.46,16.60 -2.70,15.98 -2.78,15.31 -2.70,14.64 -2.46,14.02 -2.08,13.47 -1.58,13.02 -0.99,12.71 -0.33,12.55 Z"
          fill="#1d1d1d"
          stroke="#1d1d1d"
          stroke-width="1"
          stroke-linejoin="round"
          stroke-linecap="round"
          pointer-events="none"
        />
      </g>
    </g>
    <g
      id="3a4091a3-2285-41b5-119f-086301a62427_svg"
      class="tl-centered-g"
      transform="translate(209.66, 111.66) rotate(0.00, 15.56, 3.83)"
    >
      <g opacity="1">
        <path
          d="M31.12,2.42 Q28.11,2.34 26.61,2.41 T21.87,3.03 17.08,3.97 13.44,5.22 9.12,6.98 3.72,8.94 0.19,10.04 -0.58,9.97 -1.29,9.67 -1.86,9.15 -2.24,8.48 -2.38,7.72 -2.28,6.96 -1.93,6.27 -1.39,5.72 -0.70,5.38 0.07,5.28 0.83,5.42 1.50,5.80 2.01,6.38 2.31,7.09 2.38,7.86 2.19,8.61 1.77,9.26 1.17,9.74 0.45,10.00 -0.33,10.02 -1.06,9.79 -1.69,9.34 -2.14,8.72 -2.36,7.98 -2.34,7.21 -2.07,6.48 -1.59,5.88 -0.94,5.47 -0.58,5.31 2.41,4.49 7.68,2.86 12.25,1.35 16.10,0.22 19.84,-0.92 23.38,-1.81 26.43,-2.16 29.62,-2.38 31.41,-2.39 31.97,-2.25 32.49,-1.98 32.92,-1.60 33.25,-1.12 33.46,-0.58 33.53,0.00 33.46,0.58 33.25,1.12 32.92,1.60 32.49,1.98 31.97,2.25 31.41,2.39 Z"
          fill="#1d1d1d"
          stroke="#1d1d1d"
          stroke-width="1"
          stroke-linejoin="round"
          stroke-linecap="round"
          pointer-events="none"
        />
      </g>
    </g>
    <g
      id="17ccbd27-ddae-47b4-2c69-6f605e491eb9_svg"
      class="tl-centered-g"
      transform="translate(237.14, 65.89) rotate(0.00, 15.01, 22.50)"
    >
      <g opacity="1">
        <path
          d="M0.57,-2.95 Q2.17,-2.65 3.46,-2.30 T6.24,-1.33 9.00,-0.14 11.58,1.19 14.26,2.73 16.83,4.44 19.08,6.19 21.19,7.92 23.31,9.83 25.23,11.98 27.04,14.63 28.74,17.46 30.15,20.46 31.38,23.83 32.34,26.95 32.95,29.74 33.22,32.84 33.21,35.92 32.70,38.52 31.42,41.46 29.43,44.52 28.06,46.24 27.51,46.83 26.83,47.28 26.07,47.54 25.27,47.62 24.47,47.50 23.72,47.20 23.06,46.72 22.54,46.11 22.19,45.38 22.01,44.59 22.03,43.78 22.25,43.00 22.19,43.32 22.11,43.49 22.53,42.50 23.24,41.69 24.18,41.15 25.23,40.94 26.30,41.08 27.27,41.55 28.04,42.30 28.53,43.27 28.68,44.33 28.49,45.39 27.96,46.34 27.17,47.06 26.18,47.50 25.11,47.59 24.06,47.34 23.14,46.77 22.46,45.93 22.08,44.92 22.04,43.85 22.35,42.81 22.97,41.93 23.85,41.30 24.87,40.97 25.95,40.99 26.97,41.36 27.81,42.03 28.40,42.93 28.46,44.67 28.06,46.24 27.51,46.83 26.83,47.28 26.07,47.54 25.27,47.62 24.47,47.50 23.72,47.20 23.07,46.72 22.54,46.11 22.19,45.38 22.01,44.59 22.03,43.78 22.25,43.00 23.32,41.65 25.12,39.08 26.35,36.10 26.65,33.21 26.38,30.30 25.68,27.47 24.63,24.60 23.44,21.98 21.93,19.34 20.02,16.51 17.79,14.02 15.48,11.98 13.14,10.07 10.74,8.32 8.14,6.74 5.15,5.06 2.32,3.75 0.22,3.11 -0.92,2.84 -1.57,2.54 -2.13,2.09 -2.57,1.52 -2.86,0.86 -2.98,0.15 -2.93,-0.57 -2.71,-1.25 -2.33,-1.87 -1.82,-2.37 -1.20,-2.74 -0.51,-2.94 0.21,-2.98 Z"
          fill="#1d1d1d"
          stroke="#1d1d1d"
          stroke-width="1"
          stroke-linejoin="round"
          stroke-linecap="round"
          pointer-events="none"
        />
      </g>
    </g>
    <g
      id="7ae6d706-4cc1-4aad-25b7-54cfe0c48049_svg"
      class="tl-centered-g"
      transform="translate(216.72, 16.00) rotate(0.00, 9.19, 19.89)"
    >
      <g opacity="1">
        <path
          d="M0.17,-2.99 Q1.74,-2.91 3.52,-2.43 T6.54,-1.30 9.00,0.33 11.21,2.24 13.14,4.09 15.13,6.29 17.04,8.95 18.46,11.52 19.47,14.09 20.26,16.84 20.98,19.92 21.53,23.14 21.77,26.09 21.83,29.11 21.85,32.07 21.86,34.77 21.67,38.30 21.27,41.04 20.70,41.99 19.85,42.72 18.82,43.13 17.71,43.20 16.64,42.90 15.72,42.28 15.04,41.40 14.68,40.35 14.68,39.24 15.03,38.18 15.70,37.29 16.62,36.67 17.69,36.37 18.80,36.42 19.83,36.83 20.68,37.55 21.26,38.50 21.50,39.58 21.38,40.69 20.92,41.70 20.16,42.51 19.18,43.03 18.08,43.22 16.98,43.04 16.00,42.52 15.23,41.72 14.76,40.71 14.64,39.61 14.67,39.04 14.78,37.16 14.90,33.83 14.91,30.80 14.90,27.59 14.76,24.46 14.37,21.66 13.75,18.78 12.92,15.67 11.72,12.81 10.11,10.31 8.11,8.04 5.75,5.76 2.95,3.86 0.61,3.04 -0.53,2.92 -1.21,2.71 -1.82,2.34 -2.33,1.84 -2.70,1.23 -2.92,0.54 -2.96,-0.17 -2.84,-0.87 -2.55,-1.53 -2.11,-2.09 -1.54,-2.54 -0.89,-2.83 -0.19,-2.96 Z"
          fill="#1d1d1d"
          stroke="#1d1d1d"
          stroke-width="1"
          stroke-linejoin="round"
          stroke-linecap="round"
          pointer-events="none"
        />
      </g>
    </g>
  </g>
</svg>
